<svg width="293" height="348" viewBox="0 0 293 348" fill="none" xmlns="http://www.w3.org/2000/svg">
<g filter="url(#filter0_d_39_100)">
<rect x="6" width="285" height="338" rx="15" fill="#0D0D16"/>
</g>
<path d="M103.998 51V32.8182H115.272V35.1797H106.741V40.7195H114.464V43.0721H106.741V51H103.998ZM118.433 51V37.3636H121.087V51H118.433ZM119.773 35.2596C119.312 35.2596 118.915 35.1057 118.584 34.7979C118.258 34.4843 118.096 34.1114 118.096 33.6793C118.096 33.2414 118.258 32.8685 118.584 32.5607C118.915 32.247 119.312 32.0902 119.773 32.0902C120.235 32.0902 120.629 32.247 120.954 32.5607C121.286 32.8685 121.451 33.2414 121.451 33.6793C121.451 34.1114 121.286 34.4843 120.954 34.7979C120.629 35.1057 120.235 35.2596 119.773 35.2596ZM127.313 42.9034V51H124.658V37.3636H127.206V39.5831H127.375C127.689 38.861 128.18 38.281 128.849 37.843C129.524 37.4051 130.373 37.1861 131.397 37.1861C132.326 37.1861 133.14 37.3814 133.838 37.772C134.537 38.1567 135.078 38.7308 135.463 39.4943C135.848 40.2578 136.04 41.2018 136.04 42.3263V51H133.385V42.646C133.385 41.6576 133.128 40.8852 132.613 40.3288C132.098 39.7666 131.391 39.4854 130.491 39.4854C129.876 39.4854 129.328 39.6186 128.849 39.8849C128.375 40.1513 127.999 40.5419 127.721 41.0568C127.449 41.5658 127.313 42.1813 127.313 42.9034ZM143.568 51.3018C142.704 51.3018 141.923 51.142 141.225 50.8224C140.526 50.4969 139.973 50.0264 139.564 49.4109C139.162 48.7953 138.961 48.0407 138.961 47.147C138.961 46.3776 139.109 45.7443 139.405 45.2472C139.7 44.75 140.1 44.3564 140.603 44.0664C141.106 43.7764 141.668 43.5574 142.29 43.4094C142.911 43.2615 143.545 43.149 144.19 43.0721C145.006 42.9774 145.669 42.9004 146.178 42.8413C146.687 42.7762 147.057 42.6726 147.288 42.5305C147.519 42.3885 147.634 42.1577 147.634 41.8381V41.7759C147.634 41.0006 147.415 40.3999 146.977 39.9737C146.545 39.5476 145.9 39.3345 145.042 39.3345C144.148 39.3345 143.444 39.5328 142.929 39.9293C142.42 40.32 142.068 40.755 141.873 41.2344L139.378 40.6662C139.674 39.8376 140.106 39.1688 140.674 38.6598C141.248 38.1449 141.908 37.772 142.654 37.5412C143.4 37.3045 144.184 37.1861 145.006 37.1861C145.551 37.1861 146.128 37.2512 146.738 37.3814C147.353 37.5057 147.927 37.7365 148.46 38.0739C148.999 38.4112 149.439 38.8936 149.783 39.521C150.126 40.1424 150.298 40.9503 150.298 41.9446V51H147.705V49.1357H147.599C147.427 49.4789 147.17 49.8163 146.826 50.1477C146.483 50.4792 146.042 50.7544 145.504 50.9734C144.965 51.1924 144.32 51.3018 143.568 51.3018ZM144.145 49.1712C144.879 49.1712 145.507 49.0262 146.027 48.7362C146.554 48.4461 146.954 48.0674 147.226 47.5998C147.504 47.1263 147.643 46.6203 147.643 46.0817V44.3239C147.549 44.4186 147.365 44.5073 147.093 44.5902C146.826 44.6671 146.522 44.7352 146.178 44.7944C145.835 44.8477 145.501 44.898 145.175 44.9453C144.85 44.9867 144.577 45.0223 144.358 45.0518C143.843 45.117 143.373 45.2264 142.947 45.3803C142.527 45.5342 142.189 45.7562 141.935 46.0462C141.686 46.3303 141.562 46.709 141.562 47.1825C141.562 47.8395 141.805 48.3366 142.29 48.674C142.775 49.0054 143.394 49.1712 144.145 49.1712ZM156.488 42.9034V51H153.833V37.3636H156.381V39.5831H156.55C156.864 38.861 157.355 38.281 158.024 37.843C158.698 37.4051 159.548 37.1861 160.572 37.1861C161.501 37.1861 162.315 37.3814 163.013 37.772C163.711 38.1567 164.253 38.7308 164.638 39.4943C165.022 40.2578 165.215 41.2018 165.215 42.3263V51H162.56V42.646C162.56 41.6576 162.303 40.8852 161.788 40.3288C161.273 39.7666 160.566 39.4854 159.666 39.4854C159.05 39.4854 158.503 39.6186 158.024 39.8849C157.55 40.1513 157.174 40.5419 156.896 41.0568C156.624 41.5658 156.488 42.1813 156.488 42.9034ZM174.519 51.2752C173.199 51.2752 172.062 50.9763 171.11 50.3786C170.163 49.7749 169.435 48.9433 168.926 47.8839C168.417 46.8245 168.162 45.6112 168.162 44.244C168.162 42.859 168.423 41.6368 168.943 40.5774C169.464 39.5121 170.198 38.6805 171.145 38.0827C172.092 37.485 173.208 37.1861 174.492 37.1861C175.528 37.1861 176.451 37.3784 177.262 37.7631C178.073 38.1419 178.727 38.6746 179.224 39.3612C179.727 40.0477 180.026 40.8497 180.121 41.767H177.537C177.395 41.1278 177.07 40.5774 176.561 40.1158C176.057 39.6541 175.383 39.4233 174.536 39.4233C173.797 39.4233 173.148 39.6186 172.592 40.0092C172.042 40.3939 171.613 40.9444 171.305 41.6605C170.997 42.3707 170.843 43.2112 170.843 44.1818C170.843 45.1761 170.994 46.0343 171.296 46.7564C171.598 47.4785 172.024 48.0378 172.574 48.4343C173.131 48.8308 173.785 49.0291 174.536 49.0291C175.039 49.0291 175.495 48.9374 175.904 48.7539C176.318 48.5645 176.664 48.2952 176.942 47.946C177.226 47.5968 177.425 47.1766 177.537 46.6854H180.121C180.026 47.5672 179.739 48.3544 179.259 49.0469C178.78 49.7393 178.138 50.2839 177.333 50.6804C176.534 51.0769 175.596 51.2752 174.519 51.2752ZM188.836 51.2752C187.493 51.2752 186.336 50.9882 185.365 50.4141C184.4 49.834 183.655 49.0202 183.128 47.9727C182.607 46.9192 182.347 45.6851 182.347 44.2706C182.347 42.8738 182.607 41.6428 183.128 40.5774C183.655 39.5121 184.389 38.6805 185.33 38.0827C186.277 37.485 187.383 37.1861 188.65 37.1861C189.419 37.1861 190.165 37.3133 190.887 37.5678C191.609 37.8223 192.257 38.2218 192.831 38.7663C193.406 39.3108 193.858 40.0181 194.19 40.8881C194.521 41.7522 194.687 42.8028 194.687 44.0398V44.9808H183.847V42.9922H192.086C192.086 42.2938 191.944 41.6753 191.66 41.1367C191.375 40.5922 190.976 40.1631 190.461 39.8494C189.952 39.5357 189.354 39.3789 188.668 39.3789C187.922 39.3789 187.271 39.5624 186.715 39.9293C186.164 40.2904 185.738 40.7638 185.436 41.3498C185.14 41.9298 184.992 42.5601 184.992 43.2408V44.7944C184.992 45.7058 185.152 46.4812 185.472 47.1204C185.797 47.7596 186.25 48.2479 186.83 48.5852C187.41 48.9167 188.088 49.0824 188.863 49.0824C189.366 49.0824 189.825 49.0114 190.239 48.8693C190.653 48.7214 191.011 48.5024 191.313 48.2124C191.615 47.9223 191.846 47.5643 192.006 47.1381L194.518 47.5909C194.317 48.3307 193.956 48.9788 193.435 49.5352C192.92 50.0856 192.272 50.5147 191.491 50.8224C190.716 51.1243 189.831 51.2752 188.836 51.2752Z" fill="url(#paint0_linear_39_100)"/>
<path d="M45.6618 102.216L42.2418 94.26C42.1518 94.05 42.0558 93.822 41.9538 93.576C41.8578 93.324 41.7738 93.096 41.7018 92.892C41.7198 93.054 41.7318 93.27 41.7378 93.54C41.7498 93.804 41.7558 94.044 41.7558 94.26V102H40.1898V89.4H41.6658L45.3378 97.878C45.3918 98.01 45.4458 98.148 45.4998 98.292C45.5538 98.436 45.6078 98.58 45.6618 98.724C45.7098 98.586 45.7608 98.448 45.8148 98.31C45.8688 98.166 45.9258 98.022 45.9858 97.878L49.6398 89.4H51.1338V102H49.5678V94.26C49.5678 94.044 49.5708 93.801 49.5768 93.531C49.5888 93.255 49.5978 93.036 49.6038 92.874C49.5318 93.078 49.4418 93.312 49.3338 93.576C49.2318 93.84 49.1358 94.08 49.0458 94.296L45.6618 102.216ZM56.5057 102.216C55.5097 102.216 54.7267 101.94 54.1567 101.388C53.5867 100.836 53.3017 100.08 53.3017 99.12C53.3017 98.502 53.4427 97.965 53.7247 97.509C54.0067 97.053 54.4057 96.702 54.9217 96.456C55.4377 96.204 56.0437 96.078 56.7397 96.078C57.1897 96.078 57.6097 96.129 57.9997 96.231C58.3957 96.327 58.7677 96.474 59.1157 96.672V96.024C59.1157 95.31 58.9537 94.788 58.6297 94.458C58.3057 94.122 57.8017 93.954 57.1177 93.954C56.6797 93.954 56.2237 94.035 55.7497 94.197C55.2817 94.359 54.8437 94.584 54.4357 94.872L53.9857 93.558C54.4477 93.252 54.9727 93.015 55.5607 92.847C56.1547 92.673 56.7397 92.586 57.3157 92.586C58.4077 92.586 59.2267 92.865 59.7727 93.423C60.3187 93.975 60.5917 94.8 60.5917 95.898V102H59.1157V101.154C58.7557 101.496 58.3507 101.76 57.9007 101.946C57.4507 102.126 56.9857 102.216 56.5057 102.216ZM56.7397 100.848C57.1657 100.848 57.5857 100.743 57.9997 100.533C58.4197 100.323 58.7917 100.026 59.1157 99.642V98.058C58.8097 97.866 58.4617 97.716 58.0717 97.608C57.6817 97.5 57.3097 97.446 56.9557 97.446C56.2837 97.446 55.7527 97.599 55.3627 97.905C54.9727 98.205 54.7777 98.616 54.7777 99.138C54.7777 99.666 54.9517 100.083 55.2997 100.389C55.6477 100.695 56.1277 100.848 56.7397 100.848ZM63.5448 102V92.802H65.1108V93.738C65.3928 93.348 65.7318 93.06 66.1278 92.874C66.5238 92.682 66.9768 92.586 67.4868 92.586C68.6028 92.586 69.4308 92.925 69.9708 93.603C70.5108 94.275 70.7808 95.31 70.7808 96.708V102H69.2148V96.438C69.2148 95.664 69.0408 95.07 68.6928 94.656C68.3508 94.236 67.8648 94.026 67.2348 94.026C66.5328 94.026 66.0018 94.227 65.6418 94.629C65.2878 95.025 65.1108 95.616 65.1108 96.402V102H63.5448ZM76.4393 102.216C75.4433 102.216 74.6603 101.94 74.0903 101.388C73.5203 100.836 73.2353 100.08 73.2353 99.12C73.2353 98.502 73.3763 97.965 73.6583 97.509C73.9403 97.053 74.3393 96.702 74.8553 96.456C75.3713 96.204 75.9773 96.078 76.6733 96.078C77.1233 96.078 77.5433 96.129 77.9333 96.231C78.3293 96.327 78.7013 96.474 79.0493 96.672V96.024C79.0493 95.31 78.8873 94.788 78.5633 94.458C78.2393 94.122 77.7353 93.954 77.0513 93.954C76.6133 93.954 76.1573 94.035 75.6833 94.197C75.2153 94.359 74.7773 94.584 74.3693 94.872L73.9193 93.558C74.3813 93.252 74.9063 93.015 75.4943 92.847C76.0883 92.673 76.6733 92.586 77.2493 92.586C78.3413 92.586 79.1603 92.865 79.7063 93.423C80.2523 93.975 80.5253 94.8 80.5253 95.898V102H79.0493V101.154C78.6893 101.496 78.2843 101.76 77.8343 101.946C77.3843 102.126 76.9193 102.216 76.4393 102.216ZM76.6733 100.848C77.0993 100.848 77.5193 100.743 77.9333 100.533C78.3533 100.323 78.7253 100.026 79.0493 99.642V98.058C78.7433 97.866 78.3953 97.716 78.0053 97.608C77.6153 97.5 77.2433 97.446 76.8893 97.446C76.2173 97.446 75.6863 97.599 75.2963 97.905C74.9063 98.205 74.7113 98.616 74.7113 99.138C74.7113 99.666 74.8853 100.083 75.2333 100.389C75.5813 100.695 76.0613 100.848 76.6733 100.848ZM86.3395 105.834L85.5835 104.61C86.3995 104.562 87.0655 104.451 87.5815 104.277C88.1035 104.103 88.4875 103.857 88.7335 103.539C88.9855 103.221 89.1115 102.822 89.1115 102.342V101.1C88.5595 101.844 87.7675 102.216 86.7355 102.216C85.9795 102.216 85.3195 102.015 84.7555 101.613C84.1915 101.211 83.7535 100.65 83.4415 99.93C83.1295 99.204 82.9735 98.358 82.9735 97.392C82.9735 96.414 83.1295 95.565 83.4415 94.845C83.7595 94.125 84.2035 93.57 84.7735 93.18C85.3435 92.784 86.0155 92.586 86.7895 92.586C87.2515 92.586 87.6835 92.673 88.0855 92.847C88.4935 93.015 88.8355 93.252 89.1115 93.558V92.802H90.6775V101.748C90.6775 102.402 90.5905 102.975 90.4165 103.467C90.2425 103.965 89.9755 104.382 89.6155 104.718C89.2555 105.054 88.8025 105.312 88.2565 105.492C87.7165 105.678 87.0775 105.792 86.3395 105.834ZM87.0595 100.758C87.4555 100.758 87.8395 100.638 88.2115 100.398C88.5895 100.158 88.8895 99.846 89.1115 99.462V95.25C88.9075 94.896 88.6075 94.605 88.2115 94.377C87.8215 94.143 87.4375 94.026 87.0595 94.026C86.2495 94.026 85.6285 94.314 85.1965 94.89C84.7705 95.466 84.5575 96.3 84.5575 97.392C84.5575 98.076 84.6595 98.67 84.8635 99.174C85.0735 99.678 85.3645 100.068 85.7365 100.344C86.1145 100.62 86.5555 100.758 87.0595 100.758ZM97.1142 102.216C96.2742 102.216 95.5482 102.009 94.9362 101.595C94.3242 101.181 93.8532 100.611 93.5232 99.885C93.1932 99.159 93.0282 98.328 93.0282 97.392C93.0282 96.378 93.1992 95.514 93.5412 94.8C93.8832 94.08 94.3602 93.531 94.9722 93.153C95.5842 92.775 96.2982 92.586 97.1142 92.586C97.8042 92.586 98.4372 92.742 99.0132 93.054C99.5892 93.36 100.048 93.837 100.39 94.485C100.738 95.127 100.912 95.952 100.912 96.96C100.912 97.104 100.906 97.272 100.894 97.464C100.888 97.65 100.876 97.842 100.858 98.04H94.6302C94.6902 98.598 94.8282 99.087 95.0442 99.507C95.2602 99.927 95.5452 100.257 95.8992 100.497C96.2532 100.731 96.6702 100.848 97.1502 100.848C97.5402 100.848 97.9002 100.779 98.2302 100.641C98.5662 100.503 98.8782 100.29 99.1662 100.002L100.084 101.028C99.7422 101.37 99.3162 101.655 98.8062 101.883C98.3022 102.105 97.7382 102.216 97.1142 102.216ZM94.6122 96.672H99.3282C99.3282 96.15 99.2412 95.685 99.0672 95.277C98.8992 94.863 98.6502 94.539 98.3202 94.305C97.9902 94.071 97.5882 93.954 97.1142 93.954C96.4482 93.954 95.8752 94.17 95.3952 94.602C94.9212 95.034 94.6602 95.724 94.6122 96.672ZM110.154 102.216C109.158 102.216 108.375 101.94 107.805 101.388C107.235 100.836 106.95 100.08 106.95 99.12C106.95 98.502 107.091 97.965 107.373 97.509C107.655 97.053 108.054 96.702 108.57 96.456C109.086 96.204 109.692 96.078 110.388 96.078C110.838 96.078 111.258 96.129 111.648 96.231C112.044 96.327 112.416 96.474 112.764 96.672V96.024C112.764 95.31 112.602 94.788 112.278 94.458C111.954 94.122 111.45 93.954 110.766 93.954C110.328 93.954 109.872 94.035 109.398 94.197C108.93 94.359 108.492 94.584 108.084 94.872L107.634 93.558C108.096 93.252 108.621 93.015 109.209 92.847C109.803 92.673 110.388 92.586 110.964 92.586C112.056 92.586 112.875 92.865 113.421 93.423C113.967 93.975 114.24 94.8 114.24 95.898V102H112.764V101.154C112.404 101.496 111.999 101.76 111.549 101.946C111.099 102.126 110.634 102.216 110.154 102.216ZM110.388 100.848C110.814 100.848 111.234 100.743 111.648 100.533C112.068 100.323 112.44 100.026 112.764 99.642V98.058C112.458 97.866 112.11 97.716 111.72 97.608C111.33 97.5 110.958 97.446 110.604 97.446C109.932 97.446 109.401 97.599 109.011 97.905C108.621 98.205 108.426 98.616 108.426 99.138C108.426 99.666 108.6 100.083 108.948 100.389C109.296 100.695 109.776 100.848 110.388 100.848ZM117.055 102V89.742L118.621 89.004V102H117.055ZM121.766 102V89.742L123.332 89.004V102H121.766ZM131.712 105.492L133.116 101.766L129.714 92.802H131.28L133.566 99.066C133.632 99.228 133.686 99.375 133.728 99.507C133.77 99.639 133.812 99.786 133.854 99.948C133.902 99.786 133.947 99.639 133.989 99.507C134.031 99.375 134.082 99.228 134.142 99.066L136.464 92.802H138.066L133.296 105.492H131.712ZM143.59 102.216C142.33 102.216 141.337 101.787 140.611 100.929C139.885 100.065 139.522 98.892 139.522 97.41C139.522 96.42 139.687 95.565 140.017 94.845C140.347 94.125 140.815 93.57 141.421 93.18C142.033 92.784 142.756 92.586 143.59 92.586C144.43 92.586 145.153 92.781 145.759 93.171C146.371 93.555 146.839 94.107 147.163 94.827C147.493 95.547 147.658 96.402 147.658 97.392C147.658 98.382 147.493 99.24 147.163 99.966C146.833 100.686 146.362 101.241 145.75 101.631C145.144 102.021 144.424 102.216 143.59 102.216ZM143.59 100.758C144.364 100.758 144.97 100.461 145.408 99.867C145.852 99.267 146.074 98.442 146.074 97.392C146.074 96.336 145.852 95.511 145.408 94.917C144.97 94.323 144.364 94.026 143.59 94.026C142.81 94.026 142.201 94.323 141.763 94.917C141.325 95.505 141.106 96.336 141.106 97.41C141.106 98.46 141.325 99.282 141.763 99.876C142.201 100.464 142.81 100.758 143.59 100.758ZM153.357 102.216C152.223 102.216 151.38 101.88 150.828 101.208C150.282 100.536 150.009 99.504 150.009 98.112V92.802H151.575V98.346C151.575 99.126 151.746 99.723 152.088 100.137C152.43 100.551 152.919 100.758 153.555 100.758C154.257 100.758 154.785 100.557 155.139 100.155C155.499 99.753 155.679 99.162 155.679 98.382V92.802H157.245V102H155.679V101.118C155.385 101.496 155.052 101.775 154.68 101.955C154.314 102.129 153.873 102.216 153.357 102.216ZM160.365 102V92.802H161.931V94.008C162.141 93.54 162.429 93.186 162.795 92.946C163.167 92.706 163.605 92.586 164.109 92.586C164.667 92.586 165.141 92.742 165.531 93.054L165.297 94.53C165.099 94.392 164.892 94.293 164.676 94.233C164.466 94.167 164.235 94.134 163.983 94.134C163.569 94.134 163.209 94.245 162.903 94.467C162.597 94.689 162.357 95.001 162.183 95.403C162.015 95.805 161.931 96.276 161.931 96.816V102H160.365ZM175.144 102.216C174.304 102.216 173.578 102.009 172.966 101.595C172.354 101.181 171.883 100.611 171.553 99.885C171.223 99.159 171.058 98.328 171.058 97.392C171.058 96.378 171.229 95.514 171.571 94.8C171.913 94.08 172.39 93.531 173.002 93.153C173.614 92.775 174.328 92.586 175.144 92.586C175.834 92.586 176.467 92.742 177.043 93.054C177.619 93.36 178.078 93.837 178.42 94.485C178.768 95.127 178.942 95.952 178.942 96.96C178.942 97.104 178.936 97.272 178.924 97.464C178.918 97.65 178.906 97.842 178.888 98.04H172.66C172.72 98.598 172.858 99.087 173.074 99.507C173.29 99.927 173.575 100.257 173.929 100.497C174.283 100.731 174.7 100.848 175.18 100.848C175.57 100.848 175.93 100.779 176.26 100.641C176.596 100.503 176.908 100.29 177.196 100.002L178.114 101.028C177.772 101.37 177.346 101.655 176.836 101.883C176.332 102.105 175.768 102.216 175.144 102.216ZM172.642 96.672H177.358C177.358 96.15 177.271 95.685 177.097 95.277C176.929 94.863 176.68 94.539 176.35 94.305C176.02 94.071 175.618 93.954 175.144 93.954C174.478 93.954 173.905 94.17 173.425 94.602C172.951 95.034 172.69 95.724 172.642 96.672ZM179.928 102L183.006 97.212L180.162 92.802H181.908L183.366 95.034C183.468 95.184 183.561 95.334 183.645 95.484C183.735 95.634 183.816 95.778 183.888 95.916C183.972 95.772 184.059 95.628 184.149 95.484C184.239 95.334 184.332 95.184 184.428 95.034L185.868 92.802H187.632L184.77 97.212L187.866 102H186.102L184.41 99.39C184.314 99.234 184.224 99.084 184.14 98.94C184.056 98.796 183.972 98.652 183.888 98.508C183.816 98.652 183.735 98.796 183.645 98.94C183.561 99.084 183.468 99.234 183.366 99.39L181.674 102H179.928ZM190.16 105.654V92.802H191.726V93.576C192.386 92.916 193.172 92.586 194.084 92.586C194.864 92.586 195.536 92.781 196.1 93.171C196.67 93.561 197.108 94.116 197.414 94.836C197.726 95.556 197.882 96.408 197.882 97.392C197.882 98.376 197.726 99.231 197.414 99.957C197.102 100.677 196.661 101.235 196.091 101.631C195.527 102.021 194.858 102.216 194.084 102.216C193.598 102.216 193.16 102.129 192.77 101.955C192.38 101.775 192.032 101.502 191.726 101.136V104.916L190.16 105.654ZM193.886 100.758C194.66 100.758 195.251 100.467 195.659 99.885C196.073 99.303 196.28 98.472 196.28 97.392C196.28 96.354 196.064 95.535 195.632 94.935C195.2 94.329 194.618 94.026 193.886 94.026C193.418 94.026 192.998 94.134 192.626 94.35C192.254 94.566 191.954 94.872 191.726 95.268V99.516C192.044 99.93 192.383 100.242 192.743 100.452C193.103 100.656 193.484 100.758 193.886 100.758ZM204.165 102.216C203.325 102.216 202.599 102.009 201.987 101.595C201.375 101.181 200.904 100.611 200.574 99.885C200.244 99.159 200.079 98.328 200.079 97.392C200.079 96.378 200.25 95.514 200.592 94.8C200.934 94.08 201.411 93.531 202.023 93.153C202.635 92.775 203.349 92.586 204.165 92.586C204.855 92.586 205.488 92.742 206.064 93.054C206.64 93.36 207.099 93.837 207.441 94.485C207.789 95.127 207.963 95.952 207.963 96.96C207.963 97.104 207.957 97.272 207.945 97.464C207.939 97.65 207.927 97.842 207.909 98.04H201.681C201.741 98.598 201.879 99.087 202.095 99.507C202.311 99.927 202.596 100.257 202.95 100.497C203.304 100.731 203.721 100.848 204.201 100.848C204.591 100.848 204.951 100.779 205.281 100.641C205.617 100.503 205.929 100.29 206.217 100.002L207.135 101.028C206.793 101.37 206.367 101.655 205.857 101.883C205.353 102.105 204.789 102.216 204.165 102.216ZM201.663 96.672H206.379C206.379 96.15 206.292 95.685 206.118 95.277C205.95 94.863 205.701 94.539 205.371 94.305C205.041 94.071 204.639 93.954 204.165 93.954C203.499 93.954 202.926 94.17 202.446 94.602C201.972 95.034 201.711 95.724 201.663 96.672ZM210.48 102V92.802H212.046V93.738C212.328 93.348 212.667 93.06 213.063 92.874C213.459 92.682 213.912 92.586 214.422 92.586C215.538 92.586 216.366 92.925 216.906 93.603C217.446 94.275 217.716 95.31 217.716 96.708V102H216.15V96.438C216.15 95.664 215.976 95.07 215.628 94.656C215.286 94.236 214.8 94.026 214.17 94.026C213.468 94.026 212.937 94.227 212.577 94.629C212.223 95.025 212.046 95.616 212.046 96.402V102H210.48ZM223.341 102.216C222.693 102.216 222.069 102.078 221.469 101.802C220.875 101.52 220.389 101.142 220.011 100.668L221.127 99.714C221.451 100.062 221.811 100.332 222.207 100.524C222.603 100.716 222.993 100.812 223.377 100.812C223.917 100.812 224.337 100.71 224.637 100.506C224.937 100.296 225.087 100.008 225.087 99.642C225.087 99.402 225.018 99.186 224.88 98.994C224.748 98.802 224.526 98.619 224.214 98.445C223.908 98.271 223.497 98.088 222.981 97.896C221.967 97.518 221.238 97.107 220.794 96.663C220.356 96.219 220.137 95.67 220.137 95.016C220.137 94.296 220.422 93.711 220.992 93.261C221.568 92.811 222.315 92.586 223.233 92.586C223.863 92.586 224.442 92.706 224.97 92.946C225.498 93.18 225.951 93.522 226.329 93.972L225.249 94.872C224.697 94.284 224.019 93.99 223.215 93.99C222.741 93.99 222.366 94.083 222.09 94.269C221.82 94.449 221.685 94.698 221.685 95.016C221.685 95.322 221.838 95.592 222.144 95.826C222.456 96.054 223.017 96.318 223.827 96.618C224.487 96.858 225.021 97.119 225.429 97.401C225.843 97.683 226.143 98.004 226.329 98.364C226.521 98.724 226.617 99.138 226.617 99.606C226.617 100.416 226.326 101.055 225.744 101.523C225.162 101.985 224.361 102.216 223.341 102.216ZM232.431 102.216C231.591 102.216 230.865 102.009 230.253 101.595C229.641 101.181 229.17 100.611 228.84 99.885C228.51 99.159 228.345 98.328 228.345 97.392C228.345 96.378 228.516 95.514 228.858 94.8C229.2 94.08 229.677 93.531 230.289 93.153C230.901 92.775 231.615 92.586 232.431 92.586C233.121 92.586 233.754 92.742 234.33 93.054C234.906 93.36 235.365 93.837 235.707 94.485C236.055 95.127 236.229 95.952 236.229 96.96C236.229 97.104 236.223 97.272 236.211 97.464C236.205 97.65 236.193 97.842 236.175 98.04H229.947C230.007 98.598 230.145 99.087 230.361 99.507C230.577 99.927 230.862 100.257 231.216 100.497C231.57 100.731 231.987 100.848 232.467 100.848C232.857 100.848 233.217 100.779 233.547 100.641C233.883 100.503 234.195 100.29 234.483 100.002L235.401 101.028C235.059 101.37 234.633 101.655 234.123 101.883C233.619 102.105 233.055 102.216 232.431 102.216ZM229.929 96.672H234.645C234.645 96.15 234.558 95.685 234.384 95.277C234.216 94.863 233.967 94.539 233.637 94.305C233.307 94.071 232.905 93.954 232.431 93.954C231.765 93.954 231.192 94.17 230.712 94.602C230.238 95.034 229.977 95.724 229.929 96.672ZM241.112 102.216C240.464 102.216 239.84 102.078 239.24 101.802C238.646 101.52 238.16 101.142 237.782 100.668L238.898 99.714C239.222 100.062 239.582 100.332 239.978 100.524C240.374 100.716 240.764 100.812 241.148 100.812C241.688 100.812 242.108 100.71 242.408 100.506C242.708 100.296 242.858 100.008 242.858 99.642C242.858 99.402 242.789 99.186 242.651 98.994C242.519 98.802 242.297 98.619 241.985 98.445C241.679 98.271 241.268 98.088 240.752 97.896C239.738 97.518 239.009 97.107 238.565 96.663C238.127 96.219 237.908 95.67 237.908 95.016C237.908 94.296 238.193 93.711 238.763 93.261C239.339 92.811 240.086 92.586 241.004 92.586C241.634 92.586 242.213 92.706 242.741 92.946C243.269 93.18 243.722 93.522 244.1 93.972L243.02 94.872C242.468 94.284 241.79 93.99 240.986 93.99C240.512 93.99 240.137 94.083 239.861 94.269C239.591 94.449 239.456 94.698 239.456 95.016C239.456 95.322 239.609 95.592 239.915 95.826C240.227 96.054 240.788 96.318 241.598 96.618C242.258 96.858 242.792 97.119 243.2 97.401C243.614 97.683 243.914 98.004 244.1 98.364C244.292 98.724 244.388 99.138 244.388 99.606C244.388 100.416 244.097 101.055 243.515 101.523C242.933 101.985 242.132 102.216 241.112 102.216ZM99.1678 125.216C98.1718 125.216 97.3888 124.94 96.8188 124.388C96.2488 123.836 95.9638 123.08 95.9638 122.12C95.9638 121.502 96.1048 120.965 96.3868 120.509C96.6688 120.053 97.0678 119.702 97.5838 119.456C98.0998 119.204 98.7058 119.078 99.4018 119.078C99.8518 119.078 100.272 119.129 100.662 119.231C101.058 119.327 101.43 119.474 101.778 119.672V119.024C101.778 118.31 101.616 117.788 101.292 117.458C100.968 117.122 100.464 116.954 99.7798 116.954C99.3418 116.954 98.8858 117.035 98.4118 117.197C97.9438 117.359 97.5058 117.584 97.0978 117.872L96.6478 116.558C97.1098 116.252 97.6348 116.015 98.2228 115.847C98.8168 115.673 99.4018 115.586 99.9778 115.586C101.07 115.586 101.889 115.865 102.435 116.423C102.981 116.975 103.254 117.8 103.254 118.898V125H101.778V124.154C101.418 124.496 101.013 124.76 100.563 124.946C100.113 125.126 99.6478 125.216 99.1678 125.216ZM99.4018 123.848C99.8278 123.848 100.248 123.743 100.662 123.533C101.082 123.323 101.454 123.026 101.778 122.642V121.058C101.472 120.866 101.124 120.716 100.734 120.608C100.344 120.5 99.9718 120.446 99.6178 120.446C98.9458 120.446 98.4148 120.599 98.0248 120.905C97.6348 121.205 97.4398 121.616 97.4398 122.138C97.4398 122.666 97.6138 123.083 97.9618 123.389C98.3098 123.695 98.7898 123.848 99.4018 123.848ZM108.271 125.216C107.641 125.216 107.158 125.027 106.822 124.649C106.492 124.271 106.327 123.728 106.327 123.02V117.17H104.833V115.802H106.327V112.76L107.893 112.004V115.802H110.161V117.17H107.893V122.498C107.893 122.936 107.968 123.257 108.118 123.461C108.274 123.659 108.517 123.758 108.847 123.758C109.267 123.758 109.723 123.596 110.215 123.272L110.035 124.802C109.765 124.946 109.483 125.051 109.189 125.117C108.901 125.183 108.595 125.216 108.271 125.216ZM120.282 125.216C119.022 125.216 118.029 124.787 117.303 123.929C116.577 123.065 116.214 121.892 116.214 120.41C116.214 119.42 116.379 118.565 116.709 117.845C117.039 117.125 117.507 116.57 118.113 116.18C118.725 115.784 119.448 115.586 120.282 115.586C121.122 115.586 121.845 115.781 122.451 116.171C123.063 116.555 123.531 117.107 123.855 117.827C124.185 118.547 124.35 119.402 124.35 120.392C124.35 121.382 124.185 122.24 123.855 122.966C123.525 123.686 123.054 124.241 122.442 124.631C121.836 125.021 121.116 125.216 120.282 125.216ZM120.282 123.758C121.056 123.758 121.662 123.461 122.1 122.867C122.544 122.267 122.766 121.442 122.766 120.392C122.766 119.336 122.544 118.511 122.1 117.917C121.662 117.323 121.056 117.026 120.282 117.026C119.502 117.026 118.893 117.323 118.455 117.917C118.017 118.505 117.798 119.336 117.798 120.41C117.798 121.46 118.017 122.282 118.455 122.876C118.893 123.464 119.502 123.758 120.282 123.758ZM126.703 125V115.802H128.269V116.738C128.551 116.348 128.89 116.06 129.286 115.874C129.682 115.682 130.135 115.586 130.645 115.586C131.761 115.586 132.589 115.925 133.129 116.603C133.669 117.275 133.939 118.31 133.939 119.708V125H132.373V119.438C132.373 118.664 132.199 118.07 131.851 117.656C131.509 117.236 131.023 117.026 130.393 117.026C129.691 117.026 129.16 117.227 128.8 117.629C128.446 118.025 128.269 118.616 128.269 119.402V125H126.703ZM140.655 125.216C139.815 125.216 139.089 125.009 138.477 124.595C137.865 124.181 137.394 123.611 137.064 122.885C136.734 122.159 136.569 121.328 136.569 120.392C136.569 119.378 136.74 118.514 137.082 117.8C137.424 117.08 137.901 116.531 138.513 116.153C139.125 115.775 139.839 115.586 140.655 115.586C141.345 115.586 141.978 115.742 142.554 116.054C143.13 116.36 143.589 116.837 143.931 117.485C144.279 118.127 144.453 118.952 144.453 119.96C144.453 120.104 144.447 120.272 144.435 120.464C144.429 120.65 144.417 120.842 144.399 121.04H138.171C138.231 121.598 138.369 122.087 138.585 122.507C138.801 122.927 139.086 123.257 139.44 123.497C139.794 123.731 140.211 123.848 140.691 123.848C141.081 123.848 141.441 123.779 141.771 123.641C142.107 123.503 142.419 123.29 142.707 123.002L143.625 124.028C143.283 124.37 142.857 124.655 142.347 124.883C141.843 125.105 141.279 125.216 140.655 125.216ZM138.153 119.672H142.869C142.869 119.15 142.782 118.685 142.608 118.277C142.44 117.863 142.191 117.539 141.861 117.305C141.531 117.071 141.129 116.954 140.655 116.954C139.989 116.954 139.416 117.17 138.936 117.602C138.462 118.034 138.201 118.724 138.153 119.672ZM151.031 128.654V115.802H152.597V116.576C153.257 115.916 154.043 115.586 154.955 115.586C155.735 115.586 156.407 115.781 156.971 116.171C157.541 116.561 157.979 117.116 158.285 117.836C158.597 118.556 158.753 119.408 158.753 120.392C158.753 121.376 158.597 122.231 158.285 122.957C157.973 123.677 157.532 124.235 156.962 124.631C156.398 125.021 155.729 125.216 154.955 125.216C154.469 125.216 154.031 125.129 153.641 124.955C153.251 124.775 152.903 124.502 152.597 124.136V127.916L151.031 128.654ZM154.757 123.758C155.531 123.758 156.122 123.467 156.53 122.885C156.944 122.303 157.151 121.472 157.151 120.392C157.151 119.354 156.935 118.535 156.503 117.935C156.071 117.329 155.489 117.026 154.757 117.026C154.289 117.026 153.869 117.134 153.497 117.35C153.125 117.566 152.825 117.872 152.597 118.268V122.516C152.915 122.93 153.254 123.242 153.614 123.452C153.974 123.656 154.355 123.758 154.757 123.758ZM161.299 125V112.742L162.865 112.004V125H161.299ZM168.584 125.216C167.588 125.216 166.805 124.94 166.235 124.388C165.665 123.836 165.38 123.08 165.38 122.12C165.38 121.502 165.521 120.965 165.803 120.509C166.085 120.053 166.484 119.702 167 119.456C167.516 119.204 168.122 119.078 168.818 119.078C169.268 119.078 169.688 119.129 170.078 119.231C170.474 119.327 170.846 119.474 171.194 119.672V119.024C171.194 118.31 171.032 117.788 170.708 117.458C170.384 117.122 169.88 116.954 169.196 116.954C168.758 116.954 168.302 117.035 167.828 117.197C167.36 117.359 166.922 117.584 166.514 117.872L166.064 116.558C166.526 116.252 167.051 116.015 167.639 115.847C168.233 115.673 168.818 115.586 169.394 115.586C170.486 115.586 171.305 115.865 171.851 116.423C172.397 116.975 172.67 117.8 172.67 118.898V125H171.194V124.154C170.834 124.496 170.429 124.76 169.979 124.946C169.529 125.126 169.064 125.216 168.584 125.216ZM168.818 123.848C169.244 123.848 169.664 123.743 170.078 123.533C170.498 123.323 170.87 123.026 171.194 122.642V121.058C170.888 120.866 170.54 120.716 170.15 120.608C169.76 120.5 169.388 120.446 169.034 120.446C168.362 120.446 167.831 120.599 167.441 120.905C167.051 121.205 166.856 121.616 166.856 122.138C166.856 122.666 167.03 123.083 167.378 123.389C167.726 123.695 168.206 123.848 168.818 123.848ZM178.934 125.216C178.142 125.216 177.461 125.024 176.891 124.64C176.321 124.25 175.883 123.698 175.577 122.984C175.271 122.264 175.118 121.406 175.118 120.41C175.118 119.408 175.274 118.547 175.586 117.827C175.898 117.107 176.342 116.555 176.918 116.171C177.5 115.781 178.196 115.586 179.006 115.586C179.798 115.586 180.47 115.769 181.022 116.135C181.574 116.501 181.976 117.032 182.228 117.728L180.752 118.268C180.602 117.872 180.377 117.569 180.077 117.359C179.783 117.149 179.432 117.044 179.024 117.044C178.28 117.044 177.71 117.332 177.314 117.908C176.918 118.484 176.72 119.318 176.72 120.41C176.72 121.478 176.915 122.3 177.305 122.876C177.695 123.452 178.25 123.74 178.97 123.74C179.432 123.74 179.825 123.62 180.149 123.38C180.479 123.14 180.71 122.804 180.842 122.372L182.3 122.858C182.078 123.614 181.673 124.196 181.085 124.604C180.497 125.012 179.78 125.216 178.934 125.216ZM188.345 125.216C187.505 125.216 186.779 125.009 186.167 124.595C185.555 124.181 185.084 123.611 184.754 122.885C184.424 122.159 184.259 121.328 184.259 120.392C184.259 119.378 184.43 118.514 184.772 117.8C185.114 117.08 185.591 116.531 186.203 116.153C186.815 115.775 187.529 115.586 188.345 115.586C189.035 115.586 189.668 115.742 190.244 116.054C190.82 116.36 191.279 116.837 191.621 117.485C191.969 118.127 192.143 118.952 192.143 119.96C192.143 120.104 192.137 120.272 192.125 120.464C192.119 120.65 192.107 120.842 192.089 121.04H185.861C185.921 121.598 186.059 122.087 186.275 122.507C186.491 122.927 186.776 123.257 187.13 123.497C187.484 123.731 187.901 123.848 188.381 123.848C188.771 123.848 189.131 123.779 189.461 123.641C189.797 123.503 190.109 123.29 190.397 123.002L191.315 124.028C190.973 124.37 190.547 124.655 190.037 124.883C189.533 125.105 188.969 125.216 188.345 125.216ZM185.843 119.672H190.559C190.559 119.15 190.472 118.685 190.298 118.277C190.13 117.863 189.881 117.539 189.551 117.305C189.221 117.071 188.819 116.954 188.345 116.954C187.679 116.954 187.106 117.17 186.626 117.602C186.152 118.034 185.891 118.724 185.843 119.672Z" fill="white"/>
<path d="M42.1488 172V159.4H49.6368V160.876H43.7148V164.746H47.6208V166.222H43.7148V170.506H50.0328V172H42.1488ZM55.2303 172.216C54.2343 172.216 53.4513 171.94 52.8813 171.388C52.3113 170.836 52.0263 170.08 52.0263 169.12C52.0263 168.502 52.1673 167.965 52.4493 167.509C52.7313 167.053 53.1303 166.702 53.6463 166.456C54.1623 166.204 54.7683 166.078 55.4643 166.078C55.9143 166.078 56.3343 166.129 56.7243 166.231C57.1203 166.327 57.4923 166.474 57.8403 166.672V166.024C57.8403 165.31 57.6783 164.788 57.3543 164.458C57.0303 164.122 56.5263 163.954 55.8423 163.954C55.4043 163.954 54.9483 164.035 54.4743 164.197C54.0063 164.359 53.5683 164.584 53.1603 164.872L52.7103 163.558C53.1723 163.252 53.6973 163.015 54.2853 162.847C54.8793 162.673 55.4643 162.586 56.0403 162.586C57.1323 162.586 57.9513 162.865 58.4973 163.423C59.0433 163.975 59.3163 164.8 59.3163 165.898V172H57.8403V171.154C57.4803 171.496 57.0753 171.76 56.6253 171.946C56.1753 172.126 55.7103 172.216 55.2303 172.216ZM55.4643 170.848C55.8903 170.848 56.3103 170.743 56.7243 170.533C57.1443 170.323 57.5163 170.026 57.8403 169.642V168.058C57.5343 167.866 57.1863 167.716 56.7963 167.608C56.4063 167.5 56.0343 167.446 55.6803 167.446C55.0083 167.446 54.4773 167.599 54.0873 167.905C53.6973 168.205 53.5023 168.616 53.5023 169.138C53.5023 169.666 53.6763 170.083 54.0243 170.389C54.3723 170.695 54.8523 170.848 55.4643 170.848ZM64.7589 172.216C64.1109 172.216 63.4869 172.078 62.8869 171.802C62.2929 171.52 61.8069 171.142 61.4289 170.668L62.5449 169.714C62.8689 170.062 63.2289 170.332 63.6249 170.524C64.0209 170.716 64.4109 170.812 64.7949 170.812C65.3349 170.812 65.7549 170.71 66.0549 170.506C66.3549 170.296 66.5049 170.008 66.5049 169.642C66.5049 169.402 66.4359 169.186 66.2979 168.994C66.1659 168.802 65.9439 168.619 65.6319 168.445C65.3259 168.271 64.9149 168.088 64.3989 167.896C63.3849 167.518 62.6559 167.107 62.2119 166.663C61.7739 166.219 61.5549 165.67 61.5549 165.016C61.5549 164.296 61.8399 163.711 62.4099 163.261C62.9859 162.811 63.7329 162.586 64.6509 162.586C65.2809 162.586 65.8599 162.706 66.3879 162.946C66.9159 163.18 67.3689 163.522 67.7469 163.972L66.6669 164.872C66.1149 164.284 65.4369 163.99 64.6329 163.99C64.1589 163.99 63.7839 164.083 63.5079 164.269C63.2379 164.449 63.1029 164.698 63.1029 165.016C63.1029 165.322 63.2559 165.592 63.5619 165.826C63.8739 166.054 64.4349 166.318 65.2449 166.618C65.9049 166.858 66.4389 167.119 66.8469 167.401C67.2609 167.683 67.5609 168.004 67.7469 168.364C67.9389 168.724 68.0349 169.138 68.0349 169.606C68.0349 170.416 67.7439 171.055 67.1619 171.523C66.5799 171.985 65.7789 172.216 64.7589 172.216ZM71.251 175.492L72.655 171.766L69.253 162.802H70.819L73.105 169.066C73.171 169.228 73.225 169.375 73.267 169.507C73.309 169.639 73.351 169.786 73.393 169.948C73.441 169.786 73.486 169.639 73.528 169.507C73.57 169.375 73.621 169.228 73.681 169.066L76.003 162.802H77.605L72.835 175.492H71.251ZM86.6436 172.216C85.9956 172.216 85.3716 172.078 84.7716 171.802C84.1776 171.52 83.6916 171.142 83.3136 170.668L84.4296 169.714C84.7536 170.062 85.1136 170.332 85.5096 170.524C85.9056 170.716 86.2956 170.812 86.6796 170.812C87.2196 170.812 87.6396 170.71 87.9396 170.506C88.2396 170.296 88.3896 170.008 88.3896 169.642C88.3896 169.402 88.3206 169.186 88.1826 168.994C88.0506 168.802 87.8286 168.619 87.5166 168.445C87.2106 168.271 86.7996 168.088 86.2836 167.896C85.2696 167.518 84.5406 167.107 84.0966 166.663C83.6586 166.219 83.4396 165.67 83.4396 165.016C83.4396 164.296 83.7246 163.711 84.2946 163.261C84.8706 162.811 85.6176 162.586 86.5356 162.586C87.1656 162.586 87.7446 162.706 88.2726 162.946C88.8006 163.18 89.2536 163.522 89.6316 163.972L88.5516 164.872C87.9996 164.284 87.3216 163.99 86.5176 163.99C86.0436 163.99 85.6686 164.083 85.3926 164.269C85.1226 164.449 84.9876 164.698 84.9876 165.016C84.9876 165.322 85.1406 165.592 85.4466 165.826C85.7586 166.054 86.3196 166.318 87.1296 166.618C87.7896 166.858 88.3236 167.119 88.7316 167.401C89.1456 167.683 89.4456 168.004 89.6316 168.364C89.8236 168.724 89.9196 169.138 89.9196 169.606C89.9196 170.416 89.6286 171.055 89.0466 171.523C88.4646 171.985 87.6636 172.216 86.6436 172.216ZM94.8514 172.216C93.8554 172.216 93.0724 171.94 92.5024 171.388C91.9324 170.836 91.6474 170.08 91.6474 169.12C91.6474 168.502 91.7884 167.965 92.0704 167.509C92.3524 167.053 92.7514 166.702 93.2674 166.456C93.7834 166.204 94.3894 166.078 95.0854 166.078C95.5354 166.078 95.9554 166.129 96.3454 166.231C96.7414 166.327 97.1134 166.474 97.4614 166.672V166.024C97.4614 165.31 97.2994 164.788 96.9754 164.458C96.6514 164.122 96.1474 163.954 95.4634 163.954C95.0254 163.954 94.5694 164.035 94.0954 164.197C93.6274 164.359 93.1894 164.584 92.7814 164.872L92.3314 163.558C92.7934 163.252 93.3184 163.015 93.9064 162.847C94.5004 162.673 95.0854 162.586 95.6614 162.586C96.7534 162.586 97.5724 162.865 98.1184 163.423C98.6644 163.975 98.9374 164.8 98.9374 165.898V172H97.4614V171.154C97.1014 171.496 96.6964 171.76 96.2464 171.946C95.7964 172.126 95.3314 172.216 94.8514 172.216ZM95.0854 170.848C95.5114 170.848 95.9314 170.743 96.3454 170.533C96.7654 170.323 97.1374 170.026 97.4614 169.642V168.058C97.1554 167.866 96.8074 167.716 96.4174 167.608C96.0274 167.5 95.6554 167.446 95.3014 167.446C94.6294 167.446 94.0984 167.599 93.7084 167.905C93.3184 168.205 93.1234 168.616 93.1234 169.138C93.1234 169.666 93.2974 170.083 93.6454 170.389C93.9934 170.695 94.4734 170.848 95.0854 170.848ZM101.752 172V159.742L103.318 159.004V172H101.752ZM109.037 172.216C108.041 172.216 107.258 171.94 106.688 171.388C106.118 170.836 105.833 170.08 105.833 169.12C105.833 168.502 105.974 167.965 106.256 167.509C106.538 167.053 106.937 166.702 107.453 166.456C107.969 166.204 108.575 166.078 109.271 166.078C109.721 166.078 110.141 166.129 110.531 166.231C110.927 166.327 111.299 166.474 111.647 166.672V166.024C111.647 165.31 111.485 164.788 111.161 164.458C110.837 164.122 110.333 163.954 109.649 163.954C109.211 163.954 108.755 164.035 108.281 164.197C107.813 164.359 107.375 164.584 106.967 164.872L106.517 163.558C106.979 163.252 107.504 163.015 108.092 162.847C108.686 162.673 109.271 162.586 109.847 162.586C110.939 162.586 111.758 162.865 112.304 163.423C112.85 163.975 113.123 164.8 113.123 165.898V172H111.647V171.154C111.287 171.496 110.882 171.76 110.432 171.946C109.982 172.126 109.517 172.216 109.037 172.216ZM109.271 170.848C109.697 170.848 110.117 170.743 110.531 170.533C110.951 170.323 111.323 170.026 111.647 169.642V168.058C111.341 167.866 110.993 167.716 110.603 167.608C110.213 167.5 109.841 167.446 109.487 167.446C108.815 167.446 108.284 167.599 107.894 167.905C107.504 168.205 107.309 168.616 107.309 169.138C107.309 169.666 107.483 170.083 107.831 170.389C108.179 170.695 108.659 170.848 109.271 170.848ZM116.076 172V162.802H117.642V164.008C117.852 163.54 118.14 163.186 118.506 162.946C118.878 162.706 119.316 162.586 119.82 162.586C120.378 162.586 120.852 162.742 121.242 163.054L121.008 164.53C120.81 164.392 120.603 164.293 120.387 164.233C120.177 164.167 119.946 164.134 119.694 164.134C119.28 164.134 118.92 164.245 118.614 164.467C118.308 164.689 118.068 165.001 117.894 165.403C117.726 165.805 117.642 166.276 117.642 166.816V172H116.076ZM124.319 175.492L125.723 171.766L122.321 162.802H123.887L126.173 169.066C126.239 169.228 126.293 169.375 126.335 169.507C126.377 169.639 126.419 169.786 126.461 169.948C126.509 169.786 126.554 169.639 126.596 169.507C126.638 169.375 126.689 169.228 126.749 169.066L129.071 162.802H130.673L125.903 175.492H124.319ZM136.994 172V162.802H138.56V163.666C138.824 163.312 139.163 163.045 139.577 162.865C139.997 162.679 140.462 162.586 140.972 162.586C141.506 162.586 141.989 162.706 142.421 162.946C142.859 163.18 143.198 163.51 143.438 163.936C143.72 163.504 144.092 163.171 144.554 162.937C145.022 162.703 145.538 162.586 146.102 162.586C147.092 162.586 147.878 162.892 148.46 163.504C149.048 164.11 149.342 164.932 149.342 165.97V172H147.776V166.42C147.776 165.652 147.614 165.061 147.29 164.647C146.972 164.233 146.516 164.026 145.922 164.026C145.526 164.026 145.178 164.128 144.878 164.332C144.584 164.536 144.353 164.824 144.185 165.196C144.023 165.562 143.942 165.988 143.942 166.474V172H142.376V166.42C142.376 165.634 142.22 165.04 141.908 164.638C141.602 164.23 141.146 164.026 140.54 164.026C139.928 164.026 139.445 164.239 139.091 164.665C138.737 165.091 138.56 165.67 138.56 166.402V172H136.994ZM156.026 172.216C154.766 172.216 153.773 171.787 153.047 170.929C152.321 170.065 151.958 168.892 151.958 167.41C151.958 166.42 152.123 165.565 152.453 164.845C152.783 164.125 153.251 163.57 153.857 163.18C154.469 162.784 155.192 162.586 156.026 162.586C156.866 162.586 157.589 162.781 158.195 163.171C158.807 163.555 159.275 164.107 159.599 164.827C159.929 165.547 160.094 166.402 160.094 167.392C160.094 168.382 159.929 169.24 159.599 169.966C159.269 170.686 158.798 171.241 158.186 171.631C157.58 172.021 156.86 172.216 156.026 172.216ZM156.026 170.758C156.8 170.758 157.406 170.461 157.844 169.867C158.288 169.267 158.51 168.442 158.51 167.392C158.51 166.336 158.288 165.511 157.844 164.917C157.406 164.323 156.8 164.026 156.026 164.026C155.246 164.026 154.637 164.323 154.199 164.917C153.761 165.505 153.542 166.336 153.542 167.41C153.542 168.46 153.761 169.282 154.199 169.876C154.637 170.464 155.246 170.758 156.026 170.758ZM162.447 172V162.802H164.013V163.738C164.295 163.348 164.634 163.06 165.03 162.874C165.426 162.682 165.879 162.586 166.389 162.586C167.505 162.586 168.333 162.925 168.873 163.603C169.413 164.275 169.683 165.31 169.683 166.708V172H168.117V166.438C168.117 165.664 167.943 165.07 167.595 164.656C167.253 164.236 166.767 164.026 166.137 164.026C165.435 164.026 164.904 164.227 164.544 164.629C164.19 165.025 164.013 165.616 164.013 166.402V172H162.447ZM172.608 172V162.802H174.174V172H172.608ZM173.382 161.128C173.112 161.128 172.881 161.035 172.689 160.849C172.503 160.657 172.41 160.426 172.41 160.156C172.41 159.874 172.503 159.637 172.689 159.445C172.881 159.247 173.112 159.148 173.382 159.148C173.664 159.148 173.898 159.247 174.084 159.445C174.276 159.637 174.372 159.874 174.372 160.156C174.372 160.426 174.276 160.657 174.084 160.849C173.898 161.035 173.664 161.128 173.382 161.128ZM179.716 172.216C179.086 172.216 178.603 172.027 178.267 171.649C177.937 171.271 177.772 170.728 177.772 170.02V164.17H176.278V162.802H177.772V159.76L179.338 159.004V162.802H181.606V164.17H179.338V169.498C179.338 169.936 179.413 170.257 179.563 170.461C179.719 170.659 179.962 170.758 180.292 170.758C180.712 170.758 181.168 170.596 181.66 170.272L181.48 171.802C181.21 171.946 180.928 172.051 180.634 172.117C180.346 172.183 180.04 172.216 179.716 172.216ZM187.315 172.216C186.055 172.216 185.062 171.787 184.336 170.929C183.61 170.065 183.247 168.892 183.247 167.41C183.247 166.42 183.412 165.565 183.742 164.845C184.072 164.125 184.54 163.57 185.146 163.18C185.758 162.784 186.481 162.586 187.315 162.586C188.155 162.586 188.878 162.781 189.484 163.171C190.096 163.555 190.564 164.107 190.888 164.827C191.218 165.547 191.383 166.402 191.383 167.392C191.383 168.382 191.218 169.24 190.888 169.966C190.558 170.686 190.087 171.241 189.475 171.631C188.869 172.021 188.149 172.216 187.315 172.216ZM187.315 170.758C188.089 170.758 188.695 170.461 189.133 169.867C189.577 169.267 189.799 168.442 189.799 167.392C189.799 166.336 189.577 165.511 189.133 164.917C188.695 164.323 188.089 164.026 187.315 164.026C186.535 164.026 185.926 164.323 185.488 164.917C185.05 165.505 184.831 166.336 184.831 167.41C184.831 168.46 185.05 169.282 185.488 169.876C185.926 170.464 186.535 170.758 187.315 170.758ZM193.736 172V162.802H195.302V164.008C195.512 163.54 195.8 163.186 196.166 162.946C196.538 162.706 196.976 162.586 197.48 162.586C198.038 162.586 198.512 162.742 198.902 163.054L198.668 164.53C198.47 164.392 198.263 164.293 198.047 164.233C197.837 164.167 197.606 164.134 197.354 164.134C196.94 164.134 196.58 164.245 196.274 164.467C195.968 164.689 195.728 165.001 195.554 165.403C195.386 165.805 195.302 166.276 195.302 166.816V172H193.736ZM200.662 172V162.802H202.228V172H200.662ZM201.436 161.128C201.166 161.128 200.935 161.035 200.743 160.849C200.557 160.657 200.464 160.426 200.464 160.156C200.464 159.874 200.557 159.637 200.743 159.445C200.935 159.247 201.166 159.148 201.436 159.148C201.718 159.148 201.952 159.247 202.138 159.445C202.33 159.637 202.426 159.874 202.426 160.156C202.426 160.426 202.33 160.657 202.138 160.849C201.952 161.035 201.718 161.128 201.436 161.128ZM205.215 172V162.802H206.781V163.738C207.063 163.348 207.402 163.06 207.798 162.874C208.194 162.682 208.647 162.586 209.157 162.586C210.273 162.586 211.101 162.925 211.641 163.603C212.181 164.275 212.451 165.31 212.451 166.708V172H210.885V166.438C210.885 165.664 210.711 165.07 210.363 164.656C210.021 164.236 209.535 164.026 208.905 164.026C208.203 164.026 207.672 164.227 207.312 164.629C206.958 165.025 206.781 165.616 206.781 166.402V172H205.215ZM218.447 175.834L217.691 174.61C218.507 174.562 219.173 174.451 219.689 174.277C220.211 174.103 220.595 173.857 220.841 173.539C221.093 173.221 221.219 172.822 221.219 172.342V171.1C220.667 171.844 219.875 172.216 218.843 172.216C218.087 172.216 217.427 172.015 216.863 171.613C216.299 171.211 215.861 170.65 215.549 169.93C215.237 169.204 215.081 168.358 215.081 167.392C215.081 166.414 215.237 165.565 215.549 164.845C215.867 164.125 216.311 163.57 216.881 163.18C217.451 162.784 218.123 162.586 218.897 162.586C219.359 162.586 219.791 162.673 220.193 162.847C220.601 163.015 220.943 163.252 221.219 163.558V162.802H222.785V171.748C222.785 172.402 222.698 172.975 222.524 173.467C222.35 173.965 222.083 174.382 221.723 174.718C221.363 175.054 220.91 175.312 220.364 175.492C219.824 175.678 219.185 175.792 218.447 175.834ZM219.167 170.758C219.563 170.758 219.947 170.638 220.319 170.398C220.697 170.158 220.997 169.846 221.219 169.462V165.25C221.015 164.896 220.715 164.605 220.319 164.377C219.929 164.143 219.545 164.026 219.167 164.026C218.357 164.026 217.736 164.314 217.304 164.89C216.878 165.466 216.665 166.3 216.665 167.392C216.665 168.076 216.767 168.67 216.971 169.174C217.181 169.678 217.472 170.068 217.844 170.344C218.222 170.62 218.663 170.758 219.167 170.758ZM233.528 172.216C232.268 172.216 231.275 171.787 230.549 170.929C229.823 170.065 229.46 168.892 229.46 167.41C229.46 166.42 229.625 165.565 229.955 164.845C230.285 164.125 230.753 163.57 231.359 163.18C231.971 162.784 232.694 162.586 233.528 162.586C234.368 162.586 235.091 162.781 235.697 163.171C236.309 163.555 236.777 164.107 237.101 164.827C237.431 165.547 237.596 166.402 237.596 167.392C237.596 168.382 237.431 169.24 237.101 169.966C236.771 170.686 236.3 171.241 235.688 171.631C235.082 172.021 234.362 172.216 233.528 172.216ZM233.528 170.758C234.302 170.758 234.908 170.461 235.346 169.867C235.79 169.267 236.012 168.442 236.012 167.392C236.012 166.336 235.79 165.511 235.346 164.917C234.908 164.323 234.302 164.026 233.528 164.026C232.748 164.026 232.139 164.323 231.701 164.917C231.263 165.505 231.044 166.336 231.044 167.41C231.044 168.46 231.263 169.282 231.701 169.876C232.139 170.464 232.748 170.758 233.528 170.758ZM240.401 172V164.17H238.979V162.802H240.401V161.272C240.401 160.612 240.575 160.099 240.923 159.733C241.277 159.367 241.769 159.184 242.399 159.184C242.705 159.184 242.999 159.22 243.281 159.292C243.563 159.364 243.839 159.472 244.109 159.616V160.93C243.851 160.81 243.62 160.723 243.416 160.669C243.212 160.615 243.005 160.588 242.795 160.588C242.501 160.588 242.288 160.663 242.156 160.813C242.03 160.957 241.967 161.2 241.967 161.542V162.802H244.109V164.17H241.967V172H240.401ZM105.762 195.216C104.922 195.216 104.196 195.009 103.584 194.595C102.972 194.181 102.501 193.611 102.171 192.885C101.841 192.159 101.676 191.328 101.676 190.392C101.676 189.378 101.847 188.514 102.189 187.8C102.531 187.08 103.008 186.531 103.62 186.153C104.232 185.775 104.946 185.586 105.762 185.586C106.452 185.586 107.085 185.742 107.661 186.054C108.237 186.36 108.696 186.837 109.038 187.485C109.386 188.127 109.56 188.952 109.56 189.96C109.56 190.104 109.554 190.272 109.542 190.464C109.536 190.65 109.524 190.842 109.506 191.04H103.278C103.338 191.598 103.476 192.087 103.692 192.507C103.908 192.927 104.193 193.257 104.547 193.497C104.901 193.731 105.318 193.848 105.798 193.848C106.188 193.848 106.548 193.779 106.878 193.641C107.214 193.503 107.526 193.29 107.814 193.002L108.732 194.028C108.39 194.37 107.964 194.655 107.454 194.883C106.95 195.105 106.386 195.216 105.762 195.216ZM103.26 189.672H107.976C107.976 189.15 107.889 188.685 107.715 188.277C107.547 187.863 107.298 187.539 106.968 187.305C106.638 187.071 106.236 186.954 105.762 186.954C105.096 186.954 104.523 187.17 104.043 187.602C103.569 188.034 103.308 188.724 103.26 189.672ZM112.077 195V185.802H113.643V186.666C113.907 186.312 114.246 186.045 114.66 185.865C115.08 185.679 115.545 185.586 116.055 185.586C116.589 185.586 117.072 185.706 117.504 185.946C117.942 186.18 118.281 186.51 118.521 186.936C118.803 186.504 119.175 186.171 119.637 185.937C120.105 185.703 120.621 185.586 121.185 185.586C122.175 185.586 122.961 185.892 123.543 186.504C124.131 187.11 124.425 187.932 124.425 188.97V195H122.859V189.42C122.859 188.652 122.697 188.061 122.373 187.647C122.055 187.233 121.599 187.026 121.005 187.026C120.609 187.026 120.261 187.128 119.961 187.332C119.667 187.536 119.436 187.824 119.268 188.196C119.106 188.562 119.025 188.988 119.025 189.474V195H117.459V189.42C117.459 188.634 117.303 188.04 116.991 187.638C116.685 187.23 116.229 187.026 115.623 187.026C115.011 187.026 114.528 187.239 114.174 187.665C113.82 188.091 113.643 188.67 113.643 189.402V195H112.077ZM127.546 198.654V185.802H129.112V186.576C129.772 185.916 130.558 185.586 131.47 185.586C132.25 185.586 132.922 185.781 133.486 186.171C134.056 186.561 134.494 187.116 134.8 187.836C135.112 188.556 135.268 189.408 135.268 190.392C135.268 191.376 135.112 192.231 134.8 192.957C134.488 193.677 134.047 194.235 133.477 194.631C132.913 195.021 132.244 195.216 131.47 195.216C130.984 195.216 130.546 195.129 130.156 194.955C129.766 194.775 129.418 194.502 129.112 194.136V197.916L127.546 198.654ZM131.272 193.758C132.046 193.758 132.637 193.467 133.045 192.885C133.459 192.303 133.666 191.472 133.666 190.392C133.666 189.354 133.45 188.535 133.018 187.935C132.586 187.329 132.004 187.026 131.272 187.026C130.804 187.026 130.384 187.134 130.012 187.35C129.64 187.566 129.34 187.872 129.112 188.268V192.516C129.43 192.93 129.769 193.242 130.129 193.452C130.489 193.656 130.87 193.758 131.272 193.758ZM137.813 195V182.742L139.379 182.004V195H137.813ZM145.962 195.216C144.702 195.216 143.709 194.787 142.983 193.929C142.257 193.065 141.894 191.892 141.894 190.41C141.894 189.42 142.059 188.565 142.389 187.845C142.719 187.125 143.187 186.57 143.793 186.18C144.405 185.784 145.128 185.586 145.962 185.586C146.802 185.586 147.525 185.781 148.131 186.171C148.743 186.555 149.211 187.107 149.535 187.827C149.865 188.547 150.03 189.402 150.03 190.392C150.03 191.382 149.865 192.24 149.535 192.966C149.205 193.686 148.734 194.241 148.122 194.631C147.516 195.021 146.796 195.216 145.962 195.216ZM145.962 193.758C146.736 193.758 147.342 193.461 147.78 192.867C148.224 192.267 148.446 191.442 148.446 190.392C148.446 189.336 148.224 188.511 147.78 187.917C147.342 187.323 146.736 187.026 145.962 187.026C145.182 187.026 144.573 187.323 144.135 187.917C143.697 188.505 143.478 189.336 143.478 190.41C143.478 191.46 143.697 192.282 144.135 192.876C144.573 193.464 145.182 193.758 145.962 193.758ZM153.473 198.492L154.877 194.766L151.475 185.802H153.041L155.327 192.066C155.393 192.228 155.447 192.375 155.489 192.507C155.531 192.639 155.573 192.786 155.615 192.948C155.663 192.786 155.708 192.639 155.75 192.507C155.792 192.375 155.843 192.228 155.903 192.066L158.225 185.802H159.827L155.057 198.492H153.473ZM165.369 195.216C164.529 195.216 163.803 195.009 163.191 194.595C162.579 194.181 162.108 193.611 161.778 192.885C161.448 192.159 161.283 191.328 161.283 190.392C161.283 189.378 161.454 188.514 161.796 187.8C162.138 187.08 162.615 186.531 163.227 186.153C163.839 185.775 164.553 185.586 165.369 185.586C166.059 185.586 166.692 185.742 167.268 186.054C167.844 186.36 168.303 186.837 168.645 187.485C168.993 188.127 169.167 188.952 169.167 189.96C169.167 190.104 169.161 190.272 169.149 190.464C169.143 190.65 169.131 190.842 169.113 191.04H162.885C162.945 191.598 163.083 192.087 163.299 192.507C163.515 192.927 163.8 193.257 164.154 193.497C164.508 193.731 164.925 193.848 165.405 193.848C165.795 193.848 166.155 193.779 166.485 193.641C166.821 193.503 167.133 193.29 167.421 193.002L168.339 194.028C167.997 194.37 167.571 194.655 167.061 194.883C166.557 195.105 165.993 195.216 165.369 195.216ZM162.867 189.672H167.583C167.583 189.15 167.496 188.685 167.322 188.277C167.154 187.863 166.905 187.539 166.575 187.305C166.245 187.071 165.843 186.954 165.369 186.954C164.703 186.954 164.13 187.17 163.65 187.602C163.176 188.034 162.915 188.724 162.867 189.672ZM175.371 195.216C174.531 195.216 173.805 195.009 173.193 194.595C172.581 194.181 172.11 193.611 171.78 192.885C171.45 192.159 171.285 191.328 171.285 190.392C171.285 189.378 171.456 188.514 171.798 187.8C172.14 187.08 172.617 186.531 173.229 186.153C173.841 185.775 174.555 185.586 175.371 185.586C176.061 185.586 176.694 185.742 177.27 186.054C177.846 186.36 178.305 186.837 178.647 187.485C178.995 188.127 179.169 188.952 179.169 189.96C179.169 190.104 179.163 190.272 179.151 190.464C179.145 190.65 179.133 190.842 179.115 191.04H172.887C172.947 191.598 173.085 192.087 173.301 192.507C173.517 192.927 173.802 193.257 174.156 193.497C174.51 193.731 174.927 193.848 175.407 193.848C175.797 193.848 176.157 193.779 176.487 193.641C176.823 193.503 177.135 193.29 177.423 193.002L178.341 194.028C177.999 194.37 177.573 194.655 177.063 194.883C176.559 195.105 175.995 195.216 175.371 195.216ZM172.869 189.672H177.585C177.585 189.15 177.498 188.685 177.324 188.277C177.156 187.863 176.907 187.539 176.577 187.305C176.247 187.071 175.845 186.954 175.371 186.954C174.705 186.954 174.132 187.17 173.652 187.602C173.178 188.034 172.917 188.724 172.869 189.672ZM184.053 195.216C183.405 195.216 182.781 195.078 182.181 194.802C181.587 194.52 181.101 194.142 180.723 193.668L181.839 192.714C182.163 193.062 182.523 193.332 182.919 193.524C183.315 193.716 183.705 193.812 184.089 193.812C184.629 193.812 185.049 193.71 185.349 193.506C185.649 193.296 185.799 193.008 185.799 192.642C185.799 192.402 185.73 192.186 185.592 191.994C185.46 191.802 185.238 191.619 184.926 191.445C184.62 191.271 184.209 191.088 183.693 190.896C182.679 190.518 181.95 190.107 181.506 189.663C181.068 189.219 180.849 188.67 180.849 188.016C180.849 187.296 181.134 186.711 181.704 186.261C182.28 185.811 183.027 185.586 183.945 185.586C184.575 185.586 185.154 185.706 185.682 185.946C186.21 186.18 186.663 186.522 187.041 186.972L185.961 187.872C185.409 187.284 184.731 186.99 183.927 186.99C183.453 186.99 183.078 187.083 182.802 187.269C182.532 187.449 182.397 187.698 182.397 188.016C182.397 188.322 182.55 188.592 182.856 188.826C183.168 189.054 183.729 189.318 184.539 189.618C185.199 189.858 185.733 190.119 186.141 190.401C186.555 190.683 186.855 191.004 187.041 191.364C187.233 191.724 187.329 192.138 187.329 192.606C187.329 193.416 187.038 194.055 186.456 194.523C185.874 194.985 185.073 195.216 184.053 195.216Z" fill="white"/>
<path d="M43.1517 260V247.4H47.9757C48.9957 247.4 49.8027 247.586 50.3967 247.958C50.9907 248.324 51.4137 248.798 51.6657 249.38C51.9177 249.956 52.0437 250.556 52.0437 251.18C52.0437 251.612 51.9687 252.05 51.8187 252.494C51.6747 252.932 51.4407 253.337 51.1167 253.709C50.7927 254.081 50.3727 254.381 49.8567 254.609C49.3407 254.831 48.7137 254.942 47.9757 254.942H44.7177V260H43.1517ZM44.7177 253.484H48.0837C48.6777 253.484 49.1487 253.367 49.4967 253.133C49.8507 252.899 50.1027 252.605 50.2527 252.251C50.4027 251.897 50.4777 251.54 50.4777 251.18C50.4777 250.85 50.4087 250.505 50.2707 250.145C50.1387 249.785 49.8987 249.482 49.5507 249.236C49.2027 248.984 48.7137 248.858 48.0837 248.858H44.7177V253.484ZM56.532 260.216C55.536 260.216 54.753 259.94 54.183 259.388C53.613 258.836 53.328 258.08 53.328 257.12C53.328 256.502 53.469 255.965 53.751 255.509C54.033 255.053 54.432 254.702 54.948 254.456C55.464 254.204 56.07 254.078 56.766 254.078C57.216 254.078 57.636 254.129 58.026 254.231C58.422 254.327 58.794 254.474 59.142 254.672V254.024C59.142 253.31 58.98 252.788 58.656 252.458C58.332 252.122 57.828 251.954 57.144 251.954C56.706 251.954 56.25 252.035 55.776 252.197C55.308 252.359 54.87 252.584 54.462 252.872L54.012 251.558C54.474 251.252 54.999 251.015 55.587 250.847C56.181 250.673 56.766 250.586 57.342 250.586C58.434 250.586 59.253 250.865 59.799 251.423C60.345 251.975 60.618 252.8 60.618 253.898V260H59.142V259.154C58.782 259.496 58.377 259.76 57.927 259.946C57.477 260.126 57.012 260.216 56.532 260.216ZM56.766 258.848C57.192 258.848 57.612 258.743 58.026 258.533C58.446 258.323 58.818 258.026 59.142 257.642V256.058C58.836 255.866 58.488 255.716 58.098 255.608C57.708 255.5 57.336 255.446 56.982 255.446C56.31 255.446 55.779 255.599 55.389 255.905C54.999 256.205 54.804 256.616 54.804 257.138C54.804 257.666 54.978 258.083 55.326 258.389C55.674 258.695 56.154 258.848 56.766 258.848ZM64.3965 263.492L65.8005 259.766L62.3985 250.802H63.9645L66.2505 257.066C66.3165 257.228 66.3705 257.375 66.4125 257.507C66.4545 257.639 66.4965 257.786 66.5385 257.948C66.5865 257.786 66.6315 257.639 66.6735 257.507C66.7155 257.375 66.7665 257.228 66.8265 257.066L69.1485 250.802H70.7505L65.9805 263.492H64.3965ZM73.0106 260V250.802H74.5766V251.666C74.8406 251.312 75.1796 251.045 75.5936 250.865C76.0136 250.679 76.4786 250.586 76.9886 250.586C77.5226 250.586 78.0056 250.706 78.4376 250.946C78.8756 251.18 79.2146 251.51 79.4546 251.936C79.7366 251.504 80.1086 251.171 80.5706 250.937C81.0386 250.703 81.5546 250.586 82.1186 250.586C83.1086 250.586 83.8946 250.892 84.4766 251.504C85.0646 252.11 85.3586 252.932 85.3586 253.97V260H83.7926V254.42C83.7926 253.652 83.6306 253.061 83.3066 252.647C82.9886 252.233 82.5326 252.026 81.9386 252.026C81.5426 252.026 81.1946 252.128 80.8946 252.332C80.6006 252.536 80.3696 252.824 80.2016 253.196C80.0396 253.562 79.9586 253.988 79.9586 254.474V260H78.3926V254.42C78.3926 253.634 78.2366 253.04 77.9246 252.638C77.6186 252.23 77.1626 252.026 76.5566 252.026C75.9446 252.026 75.4616 252.239 75.1076 252.665C74.7536 253.091 74.5766 253.67 74.5766 254.402V260H73.0106ZM92.0605 260.216C91.2205 260.216 90.4945 260.009 89.8825 259.595C89.2705 259.181 88.7995 258.611 88.4695 257.885C88.1395 257.159 87.9745 256.328 87.9745 255.392C87.9745 254.378 88.1455 253.514 88.4875 252.8C88.8295 252.08 89.3065 251.531 89.9185 251.153C90.5305 250.775 91.2445 250.586 92.0605 250.586C92.7505 250.586 93.3835 250.742 93.9595 251.054C94.5355 251.36 94.9945 251.837 95.3365 252.485C95.6845 253.127 95.8585 253.952 95.8585 254.96C95.8585 255.104 95.8525 255.272 95.8405 255.464C95.8345 255.65 95.8225 255.842 95.8045 256.04H89.5765C89.6365 256.598 89.7745 257.087 89.9905 257.507C90.2065 257.927 90.4915 258.257 90.8455 258.497C91.1995 258.731 91.6165 258.848 92.0965 258.848C92.4865 258.848 92.8465 258.779 93.1765 258.641C93.5125 258.503 93.8245 258.29 94.1125 258.002L95.0305 259.028C94.6885 259.37 94.2625 259.655 93.7525 259.883C93.2485 260.105 92.6845 260.216 92.0605 260.216ZM89.5585 254.672H94.2745C94.2745 254.15 94.1875 253.685 94.0135 253.277C93.8455 252.863 93.5965 252.539 93.2665 252.305C92.9365 252.071 92.5345 251.954 92.0605 251.954C91.3945 251.954 90.8215 252.17 90.3415 252.602C89.8675 253.034 89.6065 253.724 89.5585 254.672ZM98.3758 260V250.802H99.9418V251.738C100.224 251.348 100.563 251.06 100.959 250.874C101.355 250.682 101.808 250.586 102.318 250.586C103.434 250.586 104.262 250.925 104.802 251.603C105.342 252.275 105.612 253.31 105.612 254.708V260H104.046V254.438C104.046 253.664 103.872 253.07 103.524 252.656C103.182 252.236 102.696 252.026 102.066 252.026C101.364 252.026 100.833 252.227 100.473 252.629C100.119 253.025 99.9418 253.616 99.9418 254.402V260H98.3758ZM110.811 260.216C110.181 260.216 109.698 260.027 109.362 259.649C109.032 259.271 108.867 258.728 108.867 258.02V252.17H107.373V250.802H108.867V247.76L110.433 247.004V250.802H112.701V252.17H110.433V257.498C110.433 257.936 110.508 258.257 110.658 258.461C110.814 258.659 111.057 258.758 111.387 258.758C111.807 258.758 112.263 258.596 112.755 258.272L112.575 259.802C112.305 259.946 112.023 260.051 111.729 260.117C111.441 260.183 111.135 260.216 110.811 260.216ZM117.617 260.216C116.969 260.216 116.345 260.078 115.745 259.802C115.151 259.52 114.665 259.142 114.287 258.668L115.403 257.714C115.727 258.062 116.087 258.332 116.483 258.524C116.879 258.716 117.269 258.812 117.653 258.812C118.193 258.812 118.613 258.71 118.913 258.506C119.213 258.296 119.363 258.008 119.363 257.642C119.363 257.402 119.294 257.186 119.156 256.994C119.024 256.802 118.802 256.619 118.49 256.445C118.184 256.271 117.773 256.088 117.257 255.896C116.243 255.518 115.514 255.107 115.07 254.663C114.632 254.219 114.413 253.67 114.413 253.016C114.413 252.296 114.698 251.711 115.268 251.261C115.844 250.811 116.591 250.586 117.509 250.586C118.139 250.586 118.718 250.706 119.246 250.946C119.774 251.18 120.227 251.522 120.605 251.972L119.525 252.872C118.973 252.284 118.295 251.99 117.491 251.99C117.017 251.99 116.642 252.083 116.366 252.269C116.096 252.449 115.961 252.698 115.961 253.016C115.961 253.322 116.114 253.592 116.42 253.826C116.732 254.054 117.293 254.318 118.103 254.618C118.763 254.858 119.297 255.119 119.705 255.401C120.119 255.683 120.419 256.004 120.605 256.364C120.797 256.724 120.893 257.138 120.893 257.606C120.893 258.416 120.602 259.055 120.02 259.523C119.438 259.985 118.637 260.216 117.617 260.216ZM130.237 260.216C129.241 260.216 128.458 259.94 127.888 259.388C127.318 258.836 127.033 258.08 127.033 257.12C127.033 256.502 127.174 255.965 127.456 255.509C127.738 255.053 128.137 254.702 128.653 254.456C129.169 254.204 129.775 254.078 130.471 254.078C130.921 254.078 131.341 254.129 131.731 254.231C132.127 254.327 132.499 254.474 132.847 254.672V254.024C132.847 253.31 132.685 252.788 132.361 252.458C132.037 252.122 131.533 251.954 130.849 251.954C130.411 251.954 129.955 252.035 129.481 252.197C129.013 252.359 128.575 252.584 128.167 252.872L127.717 251.558C128.179 251.252 128.704 251.015 129.292 250.847C129.886 250.673 130.471 250.586 131.047 250.586C132.139 250.586 132.958 250.865 133.504 251.423C134.05 251.975 134.323 252.8 134.323 253.898V260H132.847V259.154C132.487 259.496 132.082 259.76 131.632 259.946C131.182 260.126 130.717 260.216 130.237 260.216ZM130.471 258.848C130.897 258.848 131.317 258.743 131.731 258.533C132.151 258.323 132.523 258.026 132.847 257.642V256.058C132.541 255.866 132.193 255.716 131.803 255.608C131.413 255.5 131.041 255.446 130.687 255.446C130.015 255.446 129.484 255.599 129.094 255.905C128.704 256.205 128.509 256.616 128.509 257.138C128.509 257.666 128.683 258.083 129.031 258.389C129.379 258.695 129.859 258.848 130.471 258.848ZM137.276 260V250.802H138.842V252.008C139.052 251.54 139.34 251.186 139.706 250.946C140.078 250.706 140.516 250.586 141.02 250.586C141.578 250.586 142.052 250.742 142.442 251.054L142.208 252.53C142.01 252.392 141.803 252.293 141.587 252.233C141.377 252.167 141.146 252.134 140.894 252.134C140.48 252.134 140.12 252.245 139.814 252.467C139.508 252.689 139.268 253.001 139.094 253.403C138.926 253.805 138.842 254.276 138.842 254.816V260H137.276ZM147.361 260.216C146.521 260.216 145.795 260.009 145.183 259.595C144.571 259.181 144.1 258.611 143.77 257.885C143.44 257.159 143.275 256.328 143.275 255.392C143.275 254.378 143.446 253.514 143.788 252.8C144.13 252.08 144.607 251.531 145.219 251.153C145.831 250.775 146.545 250.586 147.361 250.586C148.051 250.586 148.684 250.742 149.26 251.054C149.836 251.36 150.295 251.837 150.637 252.485C150.985 253.127 151.159 253.952 151.159 254.96C151.159 255.104 151.153 255.272 151.141 255.464C151.135 255.65 151.123 255.842 151.105 256.04H144.877C144.937 256.598 145.075 257.087 145.291 257.507C145.507 257.927 145.792 258.257 146.146 258.497C146.5 258.731 146.917 258.848 147.397 258.848C147.787 258.848 148.147 258.779 148.477 258.641C148.813 258.503 149.125 258.29 149.413 258.002L150.331 259.028C149.989 259.37 149.563 259.655 149.053 259.883C148.549 260.105 147.985 260.216 147.361 260.216ZM144.859 254.672H149.575C149.575 254.15 149.488 253.685 149.314 253.277C149.146 252.863 148.897 252.539 148.567 252.305C148.237 252.071 147.835 251.954 147.361 251.954C146.695 251.954 146.122 252.17 145.642 252.602C145.168 253.034 144.907 253.724 144.859 254.672ZM157.737 260V250.802H159.303V251.738C159.585 251.348 159.924 251.06 160.32 250.874C160.716 250.682 161.169 250.586 161.679 250.586C162.795 250.586 163.623 250.925 164.163 251.603C164.703 252.275 164.973 253.31 164.973 254.708V260H163.407V254.438C163.407 253.664 163.233 253.07 162.885 252.656C162.543 252.236 162.057 252.026 161.427 252.026C160.725 252.026 160.194 252.227 159.834 252.629C159.48 253.025 159.303 253.616 159.303 254.402V260H157.737ZM171.671 260.216C170.411 260.216 169.418 259.787 168.692 258.929C167.966 258.065 167.603 256.892 167.603 255.41C167.603 254.42 167.768 253.565 168.098 252.845C168.428 252.125 168.896 251.57 169.502 251.18C170.114 250.784 170.837 250.586 171.671 250.586C172.511 250.586 173.234 250.781 173.84 251.171C174.452 251.555 174.92 252.107 175.244 252.827C175.574 253.547 175.739 254.402 175.739 255.392C175.739 256.382 175.574 257.24 175.244 257.966C174.914 258.686 174.443 259.241 173.831 259.631C173.225 260.021 172.505 260.216 171.671 260.216ZM171.671 258.758C172.445 258.758 173.051 258.461 173.489 257.867C173.933 257.267 174.155 256.442 174.155 255.392C174.155 254.336 173.933 253.511 173.489 252.917C173.051 252.323 172.445 252.026 171.671 252.026C170.891 252.026 170.282 252.323 169.844 252.917C169.406 253.505 169.187 254.336 169.187 255.41C169.187 256.46 169.406 257.282 169.844 257.876C170.282 258.464 170.891 258.758 171.671 258.758ZM182.507 260V247.742L184.073 247.004V260H182.507ZM190.656 260.216C189.396 260.216 188.403 259.787 187.677 258.929C186.951 258.065 186.588 256.892 186.588 255.41C186.588 254.42 186.753 253.565 187.083 252.845C187.413 252.125 187.881 251.57 188.487 251.18C189.099 250.784 189.822 250.586 190.656 250.586C191.496 250.586 192.219 250.781 192.825 251.171C193.437 251.555 193.905 252.107 194.229 252.827C194.559 253.547 194.724 254.402 194.724 255.392C194.724 256.382 194.559 257.24 194.229 257.966C193.899 258.686 193.428 259.241 192.816 259.631C192.21 260.021 191.49 260.216 190.656 260.216ZM190.656 258.758C191.43 258.758 192.036 258.461 192.474 257.867C192.918 257.267 193.14 256.442 193.14 255.392C193.14 254.336 192.918 253.511 192.474 252.917C192.036 252.323 191.43 252.026 190.656 252.026C189.876 252.026 189.267 252.323 188.829 252.917C188.391 253.505 188.172 254.336 188.172 255.41C188.172 256.46 188.391 257.282 188.829 257.876C189.267 258.464 189.876 258.758 190.656 258.758ZM197.077 260V250.802H198.643V251.738C198.925 251.348 199.264 251.06 199.66 250.874C200.056 250.682 200.509 250.586 201.019 250.586C202.135 250.586 202.963 250.925 203.503 251.603C204.043 252.275 204.313 253.31 204.313 254.708V260H202.747V254.438C202.747 253.664 202.573 253.07 202.225 252.656C201.883 252.236 201.397 252.026 200.767 252.026C200.065 252.026 199.534 252.227 199.174 252.629C198.82 253.025 198.643 253.616 198.643 254.402V260H197.077ZM210.309 263.834L209.553 262.61C210.369 262.562 211.035 262.451 211.551 262.277C212.073 262.103 212.457 261.857 212.703 261.539C212.955 261.221 213.081 260.822 213.081 260.342V259.1C212.529 259.844 211.737 260.216 210.705 260.216C209.949 260.216 209.289 260.015 208.725 259.613C208.161 259.211 207.723 258.65 207.411 257.93C207.099 257.204 206.943 256.358 206.943 255.392C206.943 254.414 207.099 253.565 207.411 252.845C207.729 252.125 208.173 251.57 208.743 251.18C209.313 250.784 209.985 250.586 210.759 250.586C211.221 250.586 211.653 250.673 212.055 250.847C212.463 251.015 212.805 251.252 213.081 251.558V250.802H214.647V259.748C214.647 260.402 214.56 260.975 214.386 261.467C214.212 261.965 213.945 262.382 213.585 262.718C213.225 263.054 212.772 263.312 212.226 263.492C211.686 263.678 211.047 263.792 210.309 263.834ZM211.029 258.758C211.425 258.758 211.809 258.638 212.181 258.398C212.559 258.158 212.859 257.846 213.081 257.462V253.25C212.877 252.896 212.577 252.605 212.181 252.377C211.791 252.143 211.407 252.026 211.029 252.026C210.219 252.026 209.598 252.314 209.166 252.89C208.74 253.466 208.527 254.3 208.527 255.392C208.527 256.076 208.629 256.67 208.833 257.174C209.043 257.678 209.334 258.068 209.706 258.344C210.084 258.62 210.525 258.758 211.029 258.758ZM221.084 260.216C220.244 260.216 219.518 260.009 218.906 259.595C218.294 259.181 217.823 258.611 217.493 257.885C217.163 257.159 216.998 256.328 216.998 255.392C216.998 254.378 217.169 253.514 217.511 252.8C217.853 252.08 218.33 251.531 218.942 251.153C219.554 250.775 220.268 250.586 221.084 250.586C221.774 250.586 222.407 250.742 222.983 251.054C223.559 251.36 224.018 251.837 224.36 252.485C224.708 253.127 224.882 253.952 224.882 254.96C224.882 255.104 224.876 255.272 224.864 255.464C224.858 255.65 224.846 255.842 224.828 256.04H218.6C218.66 256.598 218.798 257.087 219.014 257.507C219.23 257.927 219.515 258.257 219.869 258.497C220.223 258.731 220.64 258.848 221.12 258.848C221.51 258.848 221.87 258.779 222.2 258.641C222.536 258.503 222.848 258.29 223.136 258.002L224.054 259.028C223.712 259.37 223.286 259.655 222.776 259.883C222.272 260.105 221.708 260.216 221.084 260.216ZM218.582 254.672H223.298C223.298 254.15 223.211 253.685 223.037 253.277C222.869 252.863 222.62 252.539 222.29 252.305C221.96 252.071 221.558 251.954 221.084 251.954C220.418 251.954 219.845 252.17 219.365 252.602C218.891 253.034 218.63 253.724 218.582 254.672ZM227.399 260V250.802H228.965V252.008C229.175 251.54 229.463 251.186 229.829 250.946C230.201 250.706 230.639 250.586 231.143 250.586C231.701 250.586 232.175 250.742 232.565 251.054L232.331 252.53C232.133 252.392 231.926 252.293 231.71 252.233C231.5 252.167 231.269 252.134 231.017 252.134C230.603 252.134 230.243 252.245 229.937 252.467C229.631 252.689 229.391 253.001 229.217 253.403C229.049 253.805 228.965 254.276 228.965 254.816V260H227.399ZM241.296 260.216C240.3 260.216 239.517 259.94 238.947 259.388C238.377 258.836 238.092 258.08 238.092 257.12C238.092 256.502 238.233 255.965 238.515 255.509C238.797 255.053 239.196 254.702 239.712 254.456C240.228 254.204 240.834 254.078 241.53 254.078C241.98 254.078 242.4 254.129 242.79 254.231C243.186 254.327 243.558 254.474 243.906 254.672V254.024C243.906 253.31 243.744 252.788 243.42 252.458C243.096 252.122 242.592 251.954 241.908 251.954C241.47 251.954 241.014 252.035 240.54 252.197C240.072 252.359 239.634 252.584 239.226 252.872L238.776 251.558C239.238 251.252 239.763 251.015 240.351 250.847C240.945 250.673 241.53 250.586 242.106 250.586C243.198 250.586 244.017 250.865 244.563 251.423C245.109 251.975 245.382 252.8 245.382 253.898V260H243.906V259.154C243.546 259.496 243.141 259.76 242.691 259.946C242.241 260.126 241.776 260.216 241.296 260.216ZM241.53 258.848C241.956 258.848 242.376 258.743 242.79 258.533C243.21 258.323 243.582 258.026 243.906 257.642V256.058C243.6 255.866 243.252 255.716 242.862 255.608C242.472 255.5 242.1 255.446 241.746 255.446C241.074 255.446 240.543 255.599 240.153 255.905C239.763 256.205 239.568 256.616 239.568 257.138C239.568 257.666 239.742 258.083 240.09 258.389C240.438 258.695 240.918 258.848 241.53 258.848ZM124.55 283V273.802H126.116V274.666C126.38 274.312 126.719 274.045 127.133 273.865C127.553 273.679 128.018 273.586 128.528 273.586C129.062 273.586 129.545 273.706 129.977 273.946C130.415 274.18 130.754 274.51 130.994 274.936C131.276 274.504 131.648 274.171 132.11 273.937C132.578 273.703 133.094 273.586 133.658 273.586C134.648 273.586 135.434 273.892 136.016 274.504C136.604 275.11 136.898 275.932 136.898 276.97V283H135.332V277.42C135.332 276.652 135.17 276.061 134.846 275.647C134.528 275.233 134.072 275.026 133.478 275.026C133.082 275.026 132.734 275.128 132.434 275.332C132.14 275.536 131.909 275.824 131.741 276.196C131.579 276.562 131.498 276.988 131.498 277.474V283H129.932V277.42C129.932 276.634 129.776 276.04 129.464 275.638C129.158 275.23 128.702 275.026 128.096 275.026C127.484 275.026 127.001 275.239 126.647 275.665C126.293 276.091 126.116 276.67 126.116 277.402V283H124.55ZM143.6 283.216C142.76 283.216 142.034 283.009 141.422 282.595C140.81 282.181 140.339 281.611 140.009 280.885C139.679 280.159 139.514 279.328 139.514 278.392C139.514 277.378 139.685 276.514 140.027 275.8C140.369 275.08 140.846 274.531 141.458 274.153C142.07 273.775 142.784 273.586 143.6 273.586C144.29 273.586 144.923 273.742 145.499 274.054C146.075 274.36 146.534 274.837 146.876 275.485C147.224 276.127 147.398 276.952 147.398 277.96C147.398 278.104 147.392 278.272 147.38 278.464C147.374 278.65 147.362 278.842 147.344 279.04H141.116C141.176 279.598 141.314 280.087 141.53 280.507C141.746 280.927 142.031 281.257 142.385 281.497C142.739 281.731 143.156 281.848 143.636 281.848C144.026 281.848 144.386 281.779 144.716 281.641C145.052 281.503 145.364 281.29 145.652 281.002L146.57 282.028C146.228 282.37 145.802 282.655 145.292 282.883C144.788 283.105 144.224 283.216 143.6 283.216ZM141.098 277.672H145.814C145.814 277.15 145.727 276.685 145.553 276.277C145.385 275.863 145.136 275.539 144.806 275.305C144.476 275.071 144.074 274.954 143.6 274.954C142.934 274.954 142.361 275.17 141.881 275.602C141.407 276.034 141.146 276.724 141.098 277.672ZM152.281 283.216C151.633 283.216 151.009 283.078 150.409 282.802C149.815 282.52 149.329 282.142 148.951 281.668L150.067 280.714C150.391 281.062 150.751 281.332 151.147 281.524C151.543 281.716 151.933 281.812 152.317 281.812C152.857 281.812 153.277 281.71 153.577 281.506C153.877 281.296 154.027 281.008 154.027 280.642C154.027 280.402 153.958 280.186 153.82 279.994C153.688 279.802 153.466 279.619 153.154 279.445C152.848 279.271 152.437 279.088 151.921 278.896C150.907 278.518 150.178 278.107 149.734 277.663C149.296 277.219 149.077 276.67 149.077 276.016C149.077 275.296 149.362 274.711 149.932 274.261C150.508 273.811 151.255 273.586 152.173 273.586C152.803 273.586 153.382 273.706 153.91 273.946C154.438 274.18 154.891 274.522 155.269 274.972L154.189 275.872C153.637 275.284 152.959 274.99 152.155 274.99C151.681 274.99 151.306 275.083 151.03 275.269C150.76 275.449 150.625 275.698 150.625 276.016C150.625 276.322 150.778 276.592 151.084 276.826C151.396 277.054 151.957 277.318 152.767 277.618C153.427 277.858 153.961 278.119 154.369 278.401C154.783 278.683 155.083 279.004 155.269 279.364C155.461 279.724 155.557 280.138 155.557 280.606C155.557 281.416 155.266 282.055 154.684 282.523C154.102 282.985 153.301 283.216 152.281 283.216ZM160.719 283.216C160.071 283.216 159.447 283.078 158.847 282.802C158.253 282.52 157.767 282.142 157.389 281.668L158.505 280.714C158.829 281.062 159.189 281.332 159.585 281.524C159.981 281.716 160.371 281.812 160.755 281.812C161.295 281.812 161.715 281.71 162.015 281.506C162.315 281.296 162.465 281.008 162.465 280.642C162.465 280.402 162.396 280.186 162.258 279.994C162.126 279.802 161.904 279.619 161.592 279.445C161.286 279.271 160.875 279.088 160.359 278.896C159.345 278.518 158.616 278.107 158.172 277.663C157.734 277.219 157.515 276.67 157.515 276.016C157.515 275.296 157.8 274.711 158.37 274.261C158.946 273.811 159.693 273.586 160.611 273.586C161.241 273.586 161.82 273.706 162.348 273.946C162.876 274.18 163.329 274.522 163.707 274.972L162.627 275.872C162.075 275.284 161.397 274.99 160.593 274.99C160.119 274.99 159.744 275.083 159.468 275.269C159.198 275.449 159.063 275.698 159.063 276.016C159.063 276.322 159.216 276.592 159.522 276.826C159.834 277.054 160.395 277.318 161.205 277.618C161.865 277.858 162.399 278.119 162.807 278.401C163.221 278.683 163.521 279.004 163.707 279.364C163.899 279.724 163.995 280.138 163.995 280.606C163.995 281.416 163.704 282.055 163.122 282.523C162.54 282.985 161.739 283.216 160.719 283.216Z" fill="white"/>
<defs>
<filter id="filter0_d_39_100" x="0" y="0" width="293" height="348" filterUnits="userSpaceOnUse" color-interpolation-filters="sRGB">
<feFlood flood-opacity="0" result="BackgroundImageFix"/>
<feColorMatrix in="SourceAlpha" type="matrix" values="0 0 0 0 0 0 0 0 0 0 0 0 0 0 0 0 0 0 127 0" result="hardAlpha"/>
<feOffset dx="-2" dy="6"/>
<feGaussianBlur stdDeviation="2"/>
<feComposite in2="hardAlpha" operator="out"/>
<feColorMatrix type="matrix" values="0 0 0 0 0 0 0 0 0 0 0 0 0 0 0 0 0 0 0.25 0"/>
<feBlend mode="normal" in2="BackgroundImageFix" result="effect1_dropShadow_39_100"/>
<feBlend mode="normal" in="SourceGraphic" in2="effect1_dropShadow_39_100" result="shape"/>
</filter>
<linearGradient id="paint0_linear_39_100" x1="149" y1="27" x2="149" y2="57" gradientUnits="userSpaceOnUse">
<stop stop-color="#DA210F"/>
<stop offset="1" stop-color="#FEC600"/>
</linearGradient>
</defs>
</svg>
