<svg width="293" height="348" viewBox="0 0 293 348" fill="none" xmlns="http://www.w3.org/2000/svg">
<g filter="url(#filter0_d_39_101)">
<rect x="6" width="285" height="338" rx="15" fill="#0D0D16"/>
</g>
<path d="M90.9975 32.8182H94.3267L100.115 46.9517H100.328L106.116 32.8182H109.446V51H106.836V37.843H106.667L101.305 50.9734H99.1385L93.7763 37.8342H93.6076V51H90.9975V32.8182ZM117.189 51.3018C116.325 51.3018 115.544 51.142 114.846 50.8224C114.147 50.4969 113.594 50.0264 113.185 49.4109C112.783 48.7953 112.582 48.0407 112.582 47.147C112.582 46.3776 112.73 45.7443 113.026 45.2472C113.322 44.75 113.721 44.3564 114.224 44.0664C114.727 43.7764 115.29 43.5574 115.911 43.4094C116.532 43.2615 117.166 43.149 117.811 43.0721C118.628 42.9774 119.29 42.9004 119.799 42.8413C120.308 42.7762 120.678 42.6726 120.909 42.5305C121.14 42.3885 121.255 42.1577 121.255 41.8381V41.7759C121.255 41.0006 121.036 40.3999 120.598 39.9737C120.166 39.5476 119.521 39.3345 118.663 39.3345C117.769 39.3345 117.065 39.5328 116.55 39.9293C116.041 40.32 115.689 40.755 115.494 41.2344L112.999 40.6662C113.295 39.8376 113.727 39.1688 114.295 38.6598C114.869 38.1449 115.529 37.772 116.275 37.5412C117.021 37.3045 117.805 37.1861 118.628 37.1861C119.172 37.1861 119.749 37.2512 120.359 37.3814C120.974 37.5057 121.548 37.7365 122.081 38.0739C122.62 38.4112 123.061 38.8936 123.404 39.521C123.747 40.1424 123.919 40.9503 123.919 41.9446V51H121.326V49.1357H121.22C121.048 49.4789 120.791 49.8163 120.448 50.1477C120.104 50.4792 119.663 50.7544 119.125 50.9734C118.586 51.1924 117.941 51.3018 117.189 51.3018ZM117.766 49.1712C118.5 49.1712 119.128 49.0262 119.649 48.7362C120.175 48.4461 120.575 48.0674 120.847 47.5998C121.125 47.1263 121.264 46.6203 121.264 46.0817V44.3239C121.17 44.4186 120.986 44.5073 120.714 44.5902C120.448 44.6671 120.143 44.7352 119.799 44.7944C119.456 44.8477 119.122 44.898 118.796 44.9453C118.471 44.9867 118.198 45.0223 117.979 45.0518C117.465 45.117 116.994 45.2264 116.568 45.3803C116.148 45.5342 115.81 45.7562 115.556 46.0462C115.307 46.3303 115.183 46.709 115.183 47.1825C115.183 47.8395 115.426 48.3366 115.911 48.674C116.396 49.0054 117.015 49.1712 117.766 49.1712ZM127.454 51V37.3636H130.02V39.5298H130.162C130.411 38.7959 130.849 38.2189 131.476 37.7987C132.109 37.3725 132.825 37.1594 133.624 37.1594C133.79 37.1594 133.985 37.1654 134.21 37.1772C134.441 37.189 134.622 37.2038 134.752 37.2216V39.7607C134.645 39.7311 134.456 39.6985 134.184 39.663C133.912 39.6216 133.639 39.6009 133.367 39.6009C132.74 39.6009 132.18 39.734 131.689 40.0004C131.204 40.2608 130.819 40.6248 130.535 41.0923C130.251 41.554 130.109 42.0807 130.109 42.6726V51H127.454ZM139.491 46.3746L139.473 43.1342H139.934L145.368 37.3636H148.546L142.349 43.9332H141.932L139.491 46.3746ZM137.049 51V32.8182H139.704V51H137.049ZM145.661 51L140.778 44.5192L142.607 42.6637L148.919 51H145.661ZM156.281 51.2752C154.937 51.2752 153.78 50.9882 152.809 50.4141C151.845 49.834 151.099 49.0202 150.572 47.9727C150.051 46.9192 149.791 45.6851 149.791 44.2706C149.791 42.8738 150.051 41.6428 150.572 40.5774C151.099 39.5121 151.833 38.6805 152.774 38.0827C153.721 37.485 154.828 37.1861 156.094 37.1861C156.864 37.1861 157.609 37.3133 158.331 37.5678C159.054 37.8223 159.702 38.2218 160.276 38.7663C160.85 39.3108 161.303 40.0181 161.634 40.8881C161.965 41.7522 162.131 42.8028 162.131 44.0398V44.9808H151.291V42.9922H159.53C159.53 42.2938 159.388 41.6753 159.104 41.1367C158.82 40.5922 158.42 40.1631 157.905 39.8494C157.396 39.5357 156.799 39.3789 156.112 39.3789C155.366 39.3789 154.715 39.5624 154.159 39.9293C153.608 40.2904 153.182 40.7638 152.881 41.3498C152.585 41.9298 152.437 42.5601 152.437 43.2408V44.7944C152.437 45.7058 152.596 46.4812 152.916 47.1204C153.242 47.7596 153.694 48.2479 154.274 48.5852C154.854 48.9167 155.532 49.0824 156.307 49.0824C156.81 49.0824 157.269 49.0114 157.683 48.8693C158.098 48.7214 158.456 48.5024 158.758 48.2124C159.059 47.9223 159.29 47.5643 159.45 47.1381L161.963 47.5909C161.761 48.3307 161.4 48.9788 160.879 49.5352C160.365 50.0856 159.716 50.5147 158.935 50.8224C158.16 51.1243 157.275 51.2752 156.281 51.2752ZM171.442 37.3636V39.4943H163.993V37.3636H171.442ZM165.991 34.0966H168.645V46.9961C168.645 47.511 168.722 47.8987 168.876 48.1591C169.03 48.4136 169.228 48.5882 169.471 48.6829C169.72 48.7717 169.989 48.8161 170.279 48.8161C170.492 48.8161 170.678 48.8013 170.838 48.7717C170.998 48.7421 171.122 48.7184 171.211 48.7006L171.69 50.8935C171.537 50.9527 171.318 51.0118 171.033 51.071C170.749 51.1361 170.394 51.1716 169.968 51.1776C169.27 51.1894 168.619 51.0651 168.015 50.8047C167.411 50.5443 166.923 50.1418 166.55 49.5973C166.177 49.0528 165.991 48.3692 165.991 47.5465V34.0966ZM174.378 51V37.3636H177.033V51H174.378ZM175.719 35.2596C175.257 35.2596 174.861 35.1057 174.529 34.7979C174.204 34.4843 174.041 34.1114 174.041 33.6793C174.041 33.2414 174.204 32.8685 174.529 32.5607C174.861 32.247 175.257 32.0902 175.719 32.0902C176.18 32.0902 176.574 32.247 176.9 32.5607C177.231 32.8685 177.397 33.2414 177.397 33.6793C177.397 34.1114 177.231 34.4843 176.9 34.7979C176.574 35.1057 176.18 35.2596 175.719 35.2596ZM183.258 42.9034V51H180.604V37.3636H183.152V39.5831H183.32C183.634 38.861 184.125 38.281 184.794 37.843C185.469 37.4051 186.318 37.1861 187.342 37.1861C188.271 37.1861 189.085 37.3814 189.783 37.772C190.482 38.1567 191.023 38.7308 191.408 39.4943C191.793 40.2578 191.985 41.2018 191.985 42.3263V51H189.331V42.646C189.331 41.6576 189.073 40.8852 188.558 40.3288C188.043 39.7666 187.336 39.4854 186.437 39.4854C185.821 39.4854 185.274 39.6186 184.794 39.8849C184.321 40.1513 183.945 40.5419 183.667 41.0568C183.394 41.5658 183.258 42.1813 183.258 42.9034ZM201.263 56.3977C200.179 56.3977 199.247 56.2557 198.466 55.9716C197.691 55.6875 197.057 55.3117 196.566 54.8441C196.075 54.3765 195.708 53.8646 195.465 53.3082L197.747 52.3672C197.907 52.6276 198.12 52.9028 198.386 53.1928C198.658 53.4888 199.025 53.7403 199.487 53.9474C199.955 54.1546 200.555 54.2582 201.289 54.2582C202.295 54.2582 203.127 54.0125 203.784 53.5213C204.441 53.036 204.769 52.2607 204.769 51.1953V48.5142H204.601C204.441 48.8042 204.21 49.1268 203.908 49.4819C203.612 49.837 203.204 50.1448 202.683 50.4052C202.162 50.6656 201.484 50.7958 200.65 50.7958C199.573 50.7958 198.602 50.5443 197.738 50.0412C196.88 49.5322 196.199 48.7835 195.696 47.7951C195.199 46.8008 194.95 45.5786 194.95 44.1286C194.95 42.6785 195.196 41.4356 195.687 40.3999C196.184 39.3641 196.865 38.571 197.729 38.0206C198.593 37.4643 199.573 37.1861 200.668 37.1861C201.514 37.1861 202.198 37.3281 202.718 37.6122C203.239 37.8904 203.645 38.2159 203.935 38.5888C204.231 38.9616 204.459 39.2901 204.618 39.5742H204.814V37.3636H207.415V51.3018C207.415 52.4737 207.143 53.4355 206.598 54.1871C206.054 54.9388 205.317 55.4951 204.388 55.8562C203.464 56.2172 202.423 56.3977 201.263 56.3977ZM201.236 48.5941C201.999 48.5941 202.645 48.4165 203.171 48.0614C203.704 47.7004 204.106 47.1855 204.379 46.5167C204.657 45.842 204.796 45.0341 204.796 44.093C204.796 43.1757 204.66 42.3678 204.388 41.6694C204.115 40.971 203.716 40.4265 203.189 40.0359C202.662 39.6393 202.011 39.4411 201.236 39.4411C200.437 39.4411 199.771 39.6482 199.238 40.0625C198.706 40.4709 198.303 41.0272 198.031 41.7315C197.765 42.4358 197.631 43.223 197.631 44.093C197.631 44.9867 197.768 45.771 198.04 46.4457C198.312 47.1204 198.715 47.6471 199.247 48.0259C199.786 48.4047 200.449 48.5941 201.236 48.5941Z" fill="url(#paint0_linear_39_101)"/>
<path d="M59.9733 102.216C59.0193 102.216 58.2033 102.036 57.5253 101.676C56.8473 101.31 56.2953 100.818 55.8693 100.2C55.4433 99.576 55.1283 98.877 54.9243 98.103C54.7263 97.323 54.6273 96.522 54.6273 95.7C54.6273 94.884 54.7323 94.089 54.9423 93.315C55.1583 92.541 55.4823 91.845 55.9143 91.227C56.3523 90.603 56.9073 90.108 57.5793 89.742C58.2513 89.37 59.0493 89.184 59.9733 89.184C60.7533 89.184 61.4013 89.289 61.9173 89.499C62.4393 89.709 62.8683 89.985 63.2043 90.327C63.5403 90.663 63.8253 91.02 64.0593 91.398L62.6553 92.208C62.3673 91.794 62.0223 91.434 61.6203 91.128C61.2183 90.816 60.6693 90.66 59.9733 90.66C59.2713 90.66 58.6803 90.813 58.2003 91.119C57.7263 91.419 57.3453 91.818 57.0573 92.316C56.7693 92.814 56.5623 93.36 56.4363 93.954C56.3103 94.542 56.2473 95.124 56.2473 95.7C56.2473 96.348 56.3193 96.972 56.4633 97.572C56.6073 98.172 56.8293 98.709 57.1293 99.183C57.4293 99.657 57.8133 100.032 58.2813 100.308C58.7553 100.584 59.3193 100.722 59.9733 100.722C60.5433 100.722 61.0383 100.599 61.4583 100.353C61.8843 100.107 62.2143 99.768 62.4483 99.336C62.6823 98.898 62.7993 98.394 62.7993 97.824V97.32H60.5133V95.88H64.4373V97.392C64.4373 98.436 64.2393 99.318 63.8433 100.038C63.4533 100.752 62.9193 101.295 62.2413 101.667C61.5693 102.033 60.8133 102.216 59.9733 102.216ZM70.8359 102.216C69.9959 102.216 69.2699 102.009 68.6579 101.595C68.0459 101.181 67.5749 100.611 67.2449 99.885C66.9149 99.159 66.7499 98.328 66.7499 97.392C66.7499 96.378 66.9209 95.514 67.2629 94.8C67.6049 94.08 68.0819 93.531 68.6939 93.153C69.3059 92.775 70.0199 92.586 70.8359 92.586C71.5259 92.586 72.1589 92.742 72.7349 93.054C73.3109 93.36 73.7699 93.837 74.1119 94.485C74.4599 95.127 74.6339 95.952 74.6339 96.96C74.6339 97.104 74.6279 97.272 74.6159 97.464C74.6099 97.65 74.5979 97.842 74.5799 98.04H68.3519C68.4119 98.598 68.5499 99.087 68.7659 99.507C68.9819 99.927 69.2669 100.257 69.6209 100.497C69.9749 100.731 70.3919 100.848 70.8719 100.848C71.2619 100.848 71.6219 100.779 71.9519 100.641C72.2879 100.503 72.5999 100.29 72.8879 100.002L73.8059 101.028C73.4639 101.37 73.0379 101.655 72.5279 101.883C72.0239 102.105 71.4599 102.216 70.8359 102.216ZM68.3339 96.672H73.0499C73.0499 96.15 72.9629 95.685 72.7889 95.277C72.6209 94.863 72.3719 94.539 72.0419 94.305C71.7119 94.071 71.3099 93.954 70.8359 93.954C70.1699 93.954 69.5969 94.17 69.1169 94.602C68.6429 95.034 68.3819 95.724 68.3339 96.672ZM79.3557 102.216C78.7257 102.216 78.2427 102.027 77.9067 101.649C77.5767 101.271 77.4117 100.728 77.4117 100.02V94.17H75.9177V92.802H77.4117V89.76L78.9777 89.004V92.802H81.2457V94.17H78.9777V99.498C78.9777 99.936 79.0527 100.257 79.2027 100.461C79.3587 100.659 79.6017 100.758 79.9317 100.758C80.3517 100.758 80.8077 100.596 81.2997 100.272L81.1197 101.802C80.8497 101.946 80.5677 102.051 80.2737 102.117C79.9857 102.183 79.6797 102.216 79.3557 102.216ZM90.3947 102.216C89.7647 102.216 89.2817 102.027 88.9457 101.649C88.6157 101.271 88.4507 100.728 88.4507 100.02V94.17H86.9567V92.802H88.4507V89.76L90.0167 89.004V92.802H92.2847V94.17H90.0167V99.498C90.0167 99.936 90.0917 100.257 90.2417 100.461C90.3977 100.659 90.6407 100.758 90.9707 100.758C91.3907 100.758 91.8467 100.596 92.3387 100.272L92.1587 101.802C91.8887 101.946 91.6067 102.051 91.3127 102.117C91.0247 102.183 90.7187 102.216 90.3947 102.216ZM94.2899 102V89.724L95.8559 89.004V93.756C96.1379 93.366 96.4769 93.075 96.8729 92.883C97.2749 92.685 97.7279 92.586 98.2319 92.586C99.0299 92.586 99.6689 92.751 100.149 93.081C100.635 93.411 100.986 93.885 101.202 94.503C101.418 95.115 101.526 95.85 101.526 96.708V102H99.9599V96.438C99.9599 95.718 99.7979 95.136 99.4739 94.692C99.1559 94.248 98.6579 94.026 97.9799 94.026C97.2779 94.026 96.7469 94.227 96.3869 94.629C96.0329 95.025 95.8559 95.616 95.8559 96.402V102H94.2899ZM108.242 102.216C107.402 102.216 106.676 102.009 106.064 101.595C105.452 101.181 104.981 100.611 104.651 99.885C104.321 99.159 104.156 98.328 104.156 97.392C104.156 96.378 104.327 95.514 104.669 94.8C105.011 94.08 105.488 93.531 106.1 93.153C106.712 92.775 107.426 92.586 108.242 92.586C108.932 92.586 109.565 92.742 110.141 93.054C110.717 93.36 111.176 93.837 111.518 94.485C111.866 95.127 112.04 95.952 112.04 96.96C112.04 97.104 112.034 97.272 112.022 97.464C112.016 97.65 112.004 97.842 111.986 98.04H105.758C105.818 98.598 105.956 99.087 106.172 99.507C106.388 99.927 106.673 100.257 107.027 100.497C107.381 100.731 107.798 100.848 108.278 100.848C108.668 100.848 109.028 100.779 109.358 100.641C109.694 100.503 110.006 100.29 110.294 100.002L111.212 101.028C110.87 101.37 110.444 101.655 109.934 101.883C109.43 102.105 108.866 102.216 108.242 102.216ZM105.74 96.672H110.456C110.456 96.15 110.369 95.685 110.195 95.277C110.027 94.863 109.778 94.539 109.448 94.305C109.118 94.071 108.716 93.954 108.242 93.954C107.576 93.954 107.003 94.17 106.523 94.602C106.049 95.034 105.788 95.724 105.74 96.672ZM122.542 102.216C122.086 102.216 121.672 102.135 121.3 101.973C120.928 101.811 120.556 101.556 120.184 101.208V102H118.618V89.742L120.184 89.004V93.594C120.472 93.276 120.817 93.03 121.219 92.856C121.627 92.676 122.05 92.586 122.488 92.586C123.268 92.586 123.943 92.781 124.513 93.171C125.083 93.561 125.524 94.116 125.836 94.836C126.148 95.556 126.304 96.408 126.304 97.392C126.304 98.922 125.974 100.11 125.314 100.956C124.654 101.796 123.73 102.216 122.542 102.216ZM122.326 100.758C123.094 100.758 123.682 100.467 124.09 99.885C124.498 99.303 124.702 98.472 124.702 97.392C124.702 96.294 124.498 95.46 124.09 94.89C123.688 94.314 123.1 94.026 122.326 94.026C121.912 94.026 121.504 94.143 121.102 94.377C120.7 94.605 120.394 94.896 120.184 95.25V99.516C120.412 99.894 120.715 100.197 121.093 100.425C121.477 100.647 121.888 100.758 122.326 100.758ZM132.553 102.216C131.713 102.216 130.987 102.009 130.375 101.595C129.763 101.181 129.292 100.611 128.962 99.885C128.632 99.159 128.467 98.328 128.467 97.392C128.467 96.378 128.638 95.514 128.98 94.8C129.322 94.08 129.799 93.531 130.411 93.153C131.023 92.775 131.737 92.586 132.553 92.586C133.243 92.586 133.876 92.742 134.452 93.054C135.028 93.36 135.487 93.837 135.829 94.485C136.177 95.127 136.351 95.952 136.351 96.96C136.351 97.104 136.345 97.272 136.333 97.464C136.327 97.65 136.315 97.842 136.297 98.04H130.069C130.129 98.598 130.267 99.087 130.483 99.507C130.699 99.927 130.984 100.257 131.338 100.497C131.692 100.731 132.109 100.848 132.589 100.848C132.979 100.848 133.339 100.779 133.669 100.641C134.005 100.503 134.317 100.29 134.605 100.002L135.523 101.028C135.181 101.37 134.755 101.655 134.245 101.883C133.741 102.105 133.177 102.216 132.553 102.216ZM130.051 96.672H134.767C134.767 96.15 134.68 95.685 134.506 95.277C134.338 94.863 134.089 94.539 133.759 94.305C133.429 94.071 133.027 93.954 132.553 93.954C131.887 93.954 131.314 94.17 130.834 94.602C130.36 95.034 130.099 95.724 130.051 96.672ZM141.234 102.216C140.586 102.216 139.962 102.078 139.362 101.802C138.768 101.52 138.282 101.142 137.904 100.668L139.02 99.714C139.344 100.062 139.704 100.332 140.1 100.524C140.496 100.716 140.886 100.812 141.27 100.812C141.81 100.812 142.23 100.71 142.53 100.506C142.83 100.296 142.98 100.008 142.98 99.642C142.98 99.402 142.911 99.186 142.773 98.994C142.641 98.802 142.419 98.619 142.107 98.445C141.801 98.271 141.39 98.088 140.874 97.896C139.86 97.518 139.131 97.107 138.687 96.663C138.249 96.219 138.03 95.67 138.03 95.016C138.03 94.296 138.315 93.711 138.885 93.261C139.461 92.811 140.208 92.586 141.126 92.586C141.756 92.586 142.335 92.706 142.863 92.946C143.391 93.18 143.844 93.522 144.222 93.972L143.142 94.872C142.59 94.284 141.912 93.99 141.108 93.99C140.634 93.99 140.259 94.083 139.983 94.269C139.713 94.449 139.578 94.698 139.578 95.016C139.578 95.322 139.731 95.592 140.037 95.826C140.349 96.054 140.91 96.318 141.72 96.618C142.38 96.858 142.914 97.119 143.322 97.401C143.736 97.683 144.036 98.004 144.222 98.364C144.414 98.724 144.51 99.138 144.51 99.606C144.51 100.416 144.219 101.055 143.637 101.523C143.055 101.985 142.254 102.216 141.234 102.216ZM149.334 102.216C148.704 102.216 148.221 102.027 147.885 101.649C147.555 101.271 147.39 100.728 147.39 100.02V94.17H145.896V92.802H147.39V89.76L148.956 89.004V92.802H151.224V94.17H148.956V99.498C148.956 99.936 149.031 100.257 149.181 100.461C149.337 100.659 149.58 100.758 149.91 100.758C150.33 100.758 150.786 100.596 151.278 100.272L151.098 101.802C150.828 101.946 150.546 102.051 150.252 102.117C149.964 102.183 149.658 102.216 149.334 102.216ZM157.817 102V92.802H159.383V93.666C159.647 93.312 159.986 93.045 160.4 92.865C160.82 92.679 161.285 92.586 161.795 92.586C162.329 92.586 162.812 92.706 163.244 92.946C163.682 93.18 164.021 93.51 164.261 93.936C164.543 93.504 164.915 93.171 165.377 92.937C165.845 92.703 166.361 92.586 166.925 92.586C167.915 92.586 168.701 92.892 169.283 93.504C169.871 94.11 170.165 94.932 170.165 95.97V102H168.599V96.42C168.599 95.652 168.437 95.061 168.113 94.647C167.795 94.233 167.339 94.026 166.745 94.026C166.349 94.026 166.001 94.128 165.701 94.332C165.407 94.536 165.176 94.824 165.008 95.196C164.846 95.562 164.765 95.988 164.765 96.474V102H163.199V96.42C163.199 95.634 163.043 95.04 162.731 94.638C162.425 94.23 161.969 94.026 161.363 94.026C160.751 94.026 160.268 94.239 159.914 94.665C159.56 95.091 159.383 95.67 159.383 96.402V102H157.817ZM175.809 102.216C174.813 102.216 174.03 101.94 173.46 101.388C172.89 100.836 172.605 100.08 172.605 99.12C172.605 98.502 172.746 97.965 173.028 97.509C173.31 97.053 173.709 96.702 174.225 96.456C174.741 96.204 175.347 96.078 176.043 96.078C176.493 96.078 176.913 96.129 177.303 96.231C177.699 96.327 178.071 96.474 178.419 96.672V96.024C178.419 95.31 178.257 94.788 177.933 94.458C177.609 94.122 177.105 93.954 176.421 93.954C175.983 93.954 175.527 94.035 175.053 94.197C174.585 94.359 174.147 94.584 173.739 94.872L173.289 93.558C173.751 93.252 174.276 93.015 174.864 92.847C175.458 92.673 176.043 92.586 176.619 92.586C177.711 92.586 178.53 92.865 179.076 93.423C179.622 93.975 179.895 94.8 179.895 95.898V102H178.419V101.154C178.059 101.496 177.654 101.76 177.204 101.946C176.754 102.126 176.289 102.216 175.809 102.216ZM176.043 100.848C176.469 100.848 176.889 100.743 177.303 100.533C177.723 100.323 178.095 100.026 178.419 99.642V98.058C178.113 97.866 177.765 97.716 177.375 97.608C176.985 97.5 176.613 97.446 176.259 97.446C175.587 97.446 175.056 97.599 174.666 97.905C174.276 98.205 174.081 98.616 174.081 99.138C174.081 99.666 174.255 100.083 174.603 100.389C174.951 100.695 175.431 100.848 176.043 100.848ZM182.848 102V92.802H184.414V94.008C184.624 93.54 184.912 93.186 185.278 92.946C185.65 92.706 186.088 92.586 186.592 92.586C187.15 92.586 187.624 92.742 188.014 93.054L187.78 94.53C187.582 94.392 187.375 94.293 187.159 94.233C186.949 94.167 186.718 94.134 186.466 94.134C186.052 94.134 185.692 94.245 185.386 94.467C185.08 94.689 184.84 95.001 184.666 95.403C184.498 95.805 184.414 96.276 184.414 96.816V102H182.848ZM189.757 102V89.742L191.323 89.004V95.97L194.311 92.802H196.183L193.771 95.304L197.227 102H195.517L192.673 96.438L191.323 97.842V102H189.757ZM202.32 102.216C201.48 102.216 200.754 102.009 200.142 101.595C199.53 101.181 199.059 100.611 198.729 99.885C198.399 99.159 198.234 98.328 198.234 97.392C198.234 96.378 198.405 95.514 198.747 94.8C199.089 94.08 199.566 93.531 200.178 93.153C200.79 92.775 201.504 92.586 202.32 92.586C203.01 92.586 203.643 92.742 204.219 93.054C204.795 93.36 205.254 93.837 205.596 94.485C205.944 95.127 206.118 95.952 206.118 96.96C206.118 97.104 206.112 97.272 206.1 97.464C206.094 97.65 206.082 97.842 206.064 98.04H199.836C199.896 98.598 200.034 99.087 200.25 99.507C200.466 99.927 200.751 100.257 201.105 100.497C201.459 100.731 201.876 100.848 202.356 100.848C202.746 100.848 203.106 100.779 203.436 100.641C203.772 100.503 204.084 100.29 204.372 100.002L205.29 101.028C204.948 101.37 204.522 101.655 204.012 101.883C203.508 102.105 202.944 102.216 202.32 102.216ZM199.818 96.672H204.534C204.534 96.15 204.447 95.685 204.273 95.277C204.105 94.863 203.856 94.539 203.526 94.305C203.196 94.071 202.794 93.954 202.32 93.954C201.654 93.954 201.081 94.17 200.601 94.602C200.127 95.034 199.866 95.724 199.818 96.672ZM210.84 102.216C210.21 102.216 209.727 102.027 209.391 101.649C209.061 101.271 208.896 100.728 208.896 100.02V94.17H207.402V92.802H208.896V89.76L210.462 89.004V92.802H212.73V94.17H210.462V99.498C210.462 99.936 210.537 100.257 210.687 100.461C210.843 100.659 211.086 100.758 211.416 100.758C211.836 100.758 212.292 100.596 212.784 100.272L212.604 101.802C212.334 101.946 212.052 102.051 211.758 102.117C211.47 102.183 211.164 102.216 210.84 102.216ZM214.753 102V92.802H216.319V102H214.753ZM215.527 91.128C215.257 91.128 215.026 91.035 214.834 90.849C214.648 90.657 214.555 90.426 214.555 90.156C214.555 89.874 214.648 89.637 214.834 89.445C215.026 89.247 215.257 89.148 215.527 89.148C215.809 89.148 216.043 89.247 216.229 89.445C216.421 89.637 216.517 89.874 216.517 90.156C216.517 90.426 216.421 90.657 216.229 90.849C216.043 91.035 215.809 91.128 215.527 91.128ZM219.306 102V92.802H220.872V93.738C221.154 93.348 221.493 93.06 221.889 92.874C222.285 92.682 222.738 92.586 223.248 92.586C224.364 92.586 225.192 92.925 225.732 93.603C226.272 94.275 226.542 95.31 226.542 96.708V102H224.976V96.438C224.976 95.664 224.802 95.07 224.454 94.656C224.112 94.236 223.626 94.026 222.996 94.026C222.294 94.026 221.763 94.227 221.403 94.629C221.049 95.025 220.872 95.616 220.872 96.402V102H219.306ZM232.538 105.834L231.782 104.61C232.598 104.562 233.264 104.451 233.78 104.277C234.302 104.103 234.686 103.857 234.932 103.539C235.184 103.221 235.31 102.822 235.31 102.342V101.1C234.758 101.844 233.966 102.216 232.934 102.216C232.178 102.216 231.518 102.015 230.954 101.613C230.39 101.211 229.952 100.65 229.64 99.93C229.328 99.204 229.172 98.358 229.172 97.392C229.172 96.414 229.328 95.565 229.64 94.845C229.958 94.125 230.402 93.57 230.972 93.18C231.542 92.784 232.214 92.586 232.988 92.586C233.45 92.586 233.882 92.673 234.284 92.847C234.692 93.015 235.034 93.252 235.31 93.558V92.802H236.876V101.748C236.876 102.402 236.789 102.975 236.615 103.467C236.441 103.965 236.174 104.382 235.814 104.718C235.454 105.054 235.001 105.312 234.455 105.492C233.915 105.678 233.276 105.792 232.538 105.834ZM233.258 100.758C233.654 100.758 234.038 100.638 234.41 100.398C234.788 100.158 235.088 99.846 235.31 99.462V95.25C235.106 94.896 234.806 94.605 234.41 94.377C234.02 94.143 233.636 94.026 233.258 94.026C232.448 94.026 231.827 94.314 231.395 94.89C230.969 95.466 230.756 96.3 230.756 97.392C230.756 98.076 230.858 98.67 231.062 99.174C231.272 99.678 231.563 100.068 231.935 100.344C232.313 100.62 232.754 100.758 233.258 100.758ZM112.468 125.216C111.82 125.216 111.196 125.078 110.596 124.802C110.002 124.52 109.516 124.142 109.138 123.668L110.254 122.714C110.578 123.062 110.938 123.332 111.334 123.524C111.73 123.716 112.12 123.812 112.504 123.812C113.044 123.812 113.464 123.71 113.764 123.506C114.064 123.296 114.214 123.008 114.214 122.642C114.214 122.402 114.145 122.186 114.007 121.994C113.875 121.802 113.653 121.619 113.341 121.445C113.035 121.271 112.624 121.088 112.108 120.896C111.094 120.518 110.365 120.107 109.921 119.663C109.483 119.219 109.264 118.67 109.264 118.016C109.264 117.296 109.549 116.711 110.119 116.261C110.695 115.811 111.442 115.586 112.36 115.586C112.99 115.586 113.569 115.706 114.097 115.946C114.625 116.18 115.078 116.522 115.456 116.972L114.376 117.872C113.824 117.284 113.146 116.99 112.342 116.99C111.868 116.99 111.493 117.083 111.217 117.269C110.947 117.449 110.812 117.698 110.812 118.016C110.812 118.322 110.965 118.592 111.271 118.826C111.583 119.054 112.144 119.318 112.954 119.618C113.614 119.858 114.148 120.119 114.556 120.401C114.97 120.683 115.27 121.004 115.456 121.364C115.648 121.724 115.744 122.138 115.744 122.606C115.744 123.416 115.453 124.055 114.871 124.523C114.289 124.985 113.488 125.216 112.468 125.216ZM120.568 125.216C119.938 125.216 119.455 125.027 119.119 124.649C118.789 124.271 118.624 123.728 118.624 123.02V117.17H117.13V115.802H118.624V112.76L120.19 112.004V115.802H122.458V117.17H120.19V122.498C120.19 122.936 120.265 123.257 120.415 123.461C120.571 123.659 120.814 123.758 121.144 123.758C121.564 123.758 122.02 123.596 122.512 123.272L122.332 124.802C122.062 124.946 121.78 125.051 121.486 125.117C121.198 125.183 120.892 125.216 120.568 125.216ZM124.094 125V115.802H125.66V117.008C125.87 116.54 126.158 116.186 126.524 115.946C126.896 115.706 127.334 115.586 127.838 115.586C128.396 115.586 128.87 115.742 129.26 116.054L129.026 117.53C128.828 117.392 128.621 117.293 128.405 117.233C128.195 117.167 127.964 117.134 127.712 117.134C127.298 117.134 126.938 117.245 126.632 117.467C126.326 117.689 126.086 118.001 125.912 118.403C125.744 118.805 125.66 119.276 125.66 119.816V125H124.094ZM133.402 125.216C132.406 125.216 131.623 124.94 131.053 124.388C130.483 123.836 130.198 123.08 130.198 122.12C130.198 121.502 130.339 120.965 130.621 120.509C130.903 120.053 131.302 119.702 131.818 119.456C132.334 119.204 132.94 119.078 133.636 119.078C134.086 119.078 134.506 119.129 134.896 119.231C135.292 119.327 135.664 119.474 136.012 119.672V119.024C136.012 118.31 135.85 117.788 135.526 117.458C135.202 117.122 134.698 116.954 134.014 116.954C133.576 116.954 133.12 117.035 132.646 117.197C132.178 117.359 131.74 117.584 131.332 117.872L130.882 116.558C131.344 116.252 131.869 116.015 132.457 115.847C133.051 115.673 133.636 115.586 134.212 115.586C135.304 115.586 136.123 115.865 136.669 116.423C137.215 116.975 137.488 117.8 137.488 118.898V125H136.012V124.154C135.652 124.496 135.247 124.76 134.797 124.946C134.347 125.126 133.882 125.216 133.402 125.216ZM133.636 123.848C134.062 123.848 134.482 123.743 134.896 123.533C135.316 123.323 135.688 123.026 136.012 122.642V121.058C135.706 120.866 135.358 120.716 134.968 120.608C134.578 120.5 134.206 120.446 133.852 120.446C133.18 120.446 132.649 120.599 132.259 120.905C131.869 121.205 131.674 121.616 131.674 122.138C131.674 122.666 131.848 123.083 132.196 123.389C132.544 123.695 133.024 123.848 133.636 123.848ZM142.505 125.216C141.875 125.216 141.392 125.027 141.056 124.649C140.726 124.271 140.561 123.728 140.561 123.02V117.17H139.067V115.802H140.561V112.76L142.127 112.004V115.802H144.395V117.17H142.127V122.498C142.127 122.936 142.202 123.257 142.352 123.461C142.508 123.659 142.751 123.758 143.081 123.758C143.501 123.758 143.957 123.596 144.449 123.272L144.269 124.802C143.999 124.946 143.717 125.051 143.423 125.117C143.135 125.183 142.829 125.216 142.505 125.216ZM150.122 125.216C149.282 125.216 148.556 125.009 147.944 124.595C147.332 124.181 146.861 123.611 146.531 122.885C146.201 122.159 146.036 121.328 146.036 120.392C146.036 119.378 146.207 118.514 146.549 117.8C146.891 117.08 147.368 116.531 147.98 116.153C148.592 115.775 149.306 115.586 150.122 115.586C150.812 115.586 151.445 115.742 152.021 116.054C152.597 116.36 153.056 116.837 153.398 117.485C153.746 118.127 153.92 118.952 153.92 119.96C153.92 120.104 153.914 120.272 153.902 120.464C153.896 120.65 153.884 120.842 153.866 121.04H147.638C147.698 121.598 147.836 122.087 148.052 122.507C148.268 122.927 148.553 123.257 148.907 123.497C149.261 123.731 149.678 123.848 150.158 123.848C150.548 123.848 150.908 123.779 151.238 123.641C151.574 123.503 151.886 123.29 152.174 123.002L153.092 124.028C152.75 124.37 152.324 124.655 151.814 124.883C151.31 125.105 150.746 125.216 150.122 125.216ZM147.62 119.672H152.336C152.336 119.15 152.249 118.685 152.075 118.277C151.907 117.863 151.658 117.539 151.328 117.305C150.998 117.071 150.596 116.954 150.122 116.954C149.456 116.954 148.883 117.17 148.403 117.602C147.929 118.034 147.668 118.724 147.62 119.672ZM159.404 128.834L158.648 127.61C159.464 127.562 160.13 127.451 160.646 127.277C161.168 127.103 161.552 126.857 161.798 126.539C162.05 126.221 162.176 125.822 162.176 125.342V124.1C161.624 124.844 160.832 125.216 159.8 125.216C159.044 125.216 158.384 125.015 157.82 124.613C157.256 124.211 156.818 123.65 156.506 122.93C156.194 122.204 156.038 121.358 156.038 120.392C156.038 119.414 156.194 118.565 156.506 117.845C156.824 117.125 157.268 116.57 157.838 116.18C158.408 115.784 159.08 115.586 159.854 115.586C160.316 115.586 160.748 115.673 161.15 115.847C161.558 116.015 161.9 116.252 162.176 116.558V115.802H163.742V124.748C163.742 125.402 163.655 125.975 163.481 126.467C163.307 126.965 163.04 127.382 162.68 127.718C162.32 128.054 161.867 128.312 161.321 128.492C160.781 128.678 160.142 128.792 159.404 128.834ZM160.124 123.758C160.52 123.758 160.904 123.638 161.276 123.398C161.654 123.158 161.954 122.846 162.176 122.462V118.25C161.972 117.896 161.672 117.605 161.276 117.377C160.886 117.143 160.502 117.026 160.124 117.026C159.314 117.026 158.693 117.314 158.261 117.89C157.835 118.466 157.622 119.3 157.622 120.392C157.622 121.076 157.724 121.67 157.928 122.174C158.138 122.678 158.429 123.068 158.801 123.344C159.179 123.62 159.62 123.758 160.124 123.758ZM166.739 125V115.802H168.305V125H166.739ZM167.513 114.128C167.243 114.128 167.012 114.035 166.82 113.849C166.634 113.657 166.541 113.426 166.541 113.156C166.541 112.874 166.634 112.637 166.82 112.445C167.012 112.247 167.243 112.148 167.513 112.148C167.795 112.148 168.029 112.247 168.215 112.445C168.407 112.637 168.503 112.874 168.503 113.156C168.503 113.426 168.407 113.657 168.215 113.849C168.029 114.035 167.795 114.128 167.513 114.128ZM174.837 125.216C173.997 125.216 173.271 125.009 172.659 124.595C172.047 124.181 171.576 123.611 171.246 122.885C170.916 122.159 170.751 121.328 170.751 120.392C170.751 119.378 170.922 118.514 171.264 117.8C171.606 117.08 172.083 116.531 172.695 116.153C173.307 115.775 174.021 115.586 174.837 115.586C175.527 115.586 176.16 115.742 176.736 116.054C177.312 116.36 177.771 116.837 178.113 117.485C178.461 118.127 178.635 118.952 178.635 119.96C178.635 120.104 178.629 120.272 178.617 120.464C178.611 120.65 178.599 120.842 178.581 121.04H172.353C172.413 121.598 172.551 122.087 172.767 122.507C172.983 122.927 173.268 123.257 173.622 123.497C173.976 123.731 174.393 123.848 174.873 123.848C175.263 123.848 175.623 123.779 175.953 123.641C176.289 123.503 176.601 123.29 176.889 123.002L177.807 124.028C177.465 124.37 177.039 124.655 176.529 124.883C176.025 125.105 175.461 125.216 174.837 125.216ZM172.335 119.672H177.051C177.051 119.15 176.964 118.685 176.79 118.277C176.622 117.863 176.373 117.539 176.043 117.305C175.713 117.071 175.311 116.954 174.837 116.954C174.171 116.954 173.598 117.17 173.118 117.602C172.644 118.034 172.383 118.724 172.335 119.672ZM183.519 125.216C182.871 125.216 182.247 125.078 181.647 124.802C181.053 124.52 180.567 124.142 180.189 123.668L181.305 122.714C181.629 123.062 181.989 123.332 182.385 123.524C182.781 123.716 183.171 123.812 183.555 123.812C184.095 123.812 184.515 123.71 184.815 123.506C185.115 123.296 185.265 123.008 185.265 122.642C185.265 122.402 185.196 122.186 185.058 121.994C184.926 121.802 184.704 121.619 184.392 121.445C184.086 121.271 183.675 121.088 183.159 120.896C182.145 120.518 181.416 120.107 180.972 119.663C180.534 119.219 180.315 118.67 180.315 118.016C180.315 117.296 180.6 116.711 181.17 116.261C181.746 115.811 182.493 115.586 183.411 115.586C184.041 115.586 184.62 115.706 185.148 115.946C185.676 116.18 186.129 116.522 186.507 116.972L185.427 117.872C184.875 117.284 184.197 116.99 183.393 116.99C182.919 116.99 182.544 117.083 182.268 117.269C181.998 117.449 181.863 117.698 181.863 118.016C181.863 118.322 182.016 118.592 182.322 118.826C182.634 119.054 183.195 119.318 184.005 119.618C184.665 119.858 185.199 120.119 185.607 120.401C186.021 120.683 186.321 121.004 186.507 121.364C186.699 121.724 186.795 122.138 186.795 122.606C186.795 123.416 186.504 124.055 185.922 124.523C185.34 124.985 184.539 125.216 183.519 125.216Z" fill="white"/>
<path d="M40.6391 172L36.3191 159.4H37.9931L40.9991 168.508C41.0531 168.676 41.1131 168.874 41.1791 169.102C41.2511 169.324 41.3171 169.552 41.3771 169.786C41.4311 169.552 41.4881 169.327 41.5481 169.111C41.6141 168.895 41.6771 168.694 41.7371 168.508L44.6531 159.4H46.3271L42.0251 172H40.6391ZM48.7093 172V162.802H50.2753V172H48.7093ZM49.4833 161.128C49.2133 161.128 48.9823 161.035 48.7903 160.849C48.6043 160.657 48.5113 160.426 48.5113 160.156C48.5113 159.874 48.6043 159.637 48.7903 159.445C48.9823 159.247 49.2133 159.148 49.4833 159.148C49.7653 159.148 49.9993 159.247 50.1853 159.445C50.3773 159.637 50.4733 159.874 50.4733 160.156C50.4733 160.426 50.3773 160.657 50.1853 160.849C49.9993 161.035 49.7653 161.128 49.4833 161.128ZM56.8076 172.216C55.9676 172.216 55.2416 172.009 54.6296 171.595C54.0176 171.181 53.5466 170.611 53.2166 169.885C52.8866 169.159 52.7216 168.328 52.7216 167.392C52.7216 166.378 52.8926 165.514 53.2346 164.8C53.5766 164.08 54.0536 163.531 54.6656 163.153C55.2776 162.775 55.9916 162.586 56.8076 162.586C57.4976 162.586 58.1306 162.742 58.7066 163.054C59.2826 163.36 59.7416 163.837 60.0836 164.485C60.4316 165.127 60.6056 165.952 60.6056 166.96C60.6056 167.104 60.5996 167.272 60.5876 167.464C60.5816 167.65 60.5696 167.842 60.5516 168.04H54.3236C54.3836 168.598 54.5216 169.087 54.7376 169.507C54.9536 169.927 55.2386 170.257 55.5926 170.497C55.9466 170.731 56.3636 170.848 56.8436 170.848C57.2336 170.848 57.5936 170.779 57.9236 170.641C58.2596 170.503 58.5716 170.29 58.8596 170.002L59.7776 171.028C59.4356 171.37 59.0096 171.655 58.4996 171.883C57.9956 172.105 57.4316 172.216 56.8076 172.216ZM54.3056 166.672H59.0216C59.0216 166.15 58.9346 165.685 58.7606 165.277C58.5926 164.863 58.3436 164.539 58.0136 164.305C57.6836 164.071 57.2816 163.954 56.8076 163.954C56.1416 163.954 55.5686 164.17 55.0886 164.602C54.6146 165.034 54.3536 165.724 54.3056 166.672ZM64.3103 172L61.9523 162.802H63.5003L64.9043 168.976C64.9463 169.144 64.9823 169.312 65.0123 169.48C65.0483 169.642 65.0783 169.798 65.1023 169.948C65.1323 169.792 65.1683 169.633 65.2103 169.471C65.2523 169.303 65.2943 169.138 65.3363 168.976L67.0643 162.802H68.3603L70.0883 168.976C70.1363 169.156 70.1813 169.33 70.2233 169.498C70.2653 169.66 70.3043 169.822 70.3403 169.984C70.3703 169.828 70.4003 169.666 70.4303 169.498C70.4603 169.33 70.4963 169.156 70.5383 168.976L71.9243 162.802H73.4723L71.1143 172H69.7103L68.0363 166.546C67.9823 166.366 67.9223 166.165 67.8563 165.943C67.7963 165.721 67.7423 165.52 67.6943 165.34C67.6523 165.52 67.6013 165.721 67.5413 165.943C67.4813 166.165 67.4243 166.366 67.3703 166.546L65.7143 172H64.3103ZM82.4309 172.216C81.8009 172.216 81.3179 172.027 80.9819 171.649C80.6519 171.271 80.4869 170.728 80.4869 170.02V164.17H78.9929V162.802H80.4869V159.76L82.0529 159.004V162.802H84.3209V164.17H82.0529V169.498C82.0529 169.936 82.1279 170.257 82.2779 170.461C82.4339 170.659 82.6769 170.758 83.0069 170.758C83.4269 170.758 83.8829 170.596 84.3749 170.272L84.1949 171.802C83.9249 171.946 83.6429 172.051 83.3489 172.117C83.0609 172.183 82.7549 172.216 82.4309 172.216ZM86.326 172V159.724L87.892 159.004V163.756C88.174 163.366 88.513 163.075 88.909 162.883C89.311 162.685 89.764 162.586 90.268 162.586C91.066 162.586 91.705 162.751 92.185 163.081C92.671 163.411 93.022 163.885 93.238 164.503C93.454 165.115 93.562 165.85 93.562 166.708V172H91.996V166.438C91.996 165.718 91.834 165.136 91.51 164.692C91.192 164.248 90.694 164.026 90.016 164.026C89.314 164.026 88.783 164.227 88.423 164.629C88.069 165.025 87.892 165.616 87.892 166.402V172H86.326ZM100.278 172.216C99.4383 172.216 98.7123 172.009 98.1003 171.595C97.4883 171.181 97.0173 170.611 96.6873 169.885C96.3573 169.159 96.1923 168.328 96.1923 167.392C96.1923 166.378 96.3633 165.514 96.7053 164.8C97.0473 164.08 97.5243 163.531 98.1363 163.153C98.7483 162.775 99.4623 162.586 100.278 162.586C100.968 162.586 101.601 162.742 102.177 163.054C102.753 163.36 103.212 163.837 103.554 164.485C103.902 165.127 104.076 165.952 104.076 166.96C104.076 167.104 104.07 167.272 104.058 167.464C104.052 167.65 104.04 167.842 104.022 168.04H97.7943C97.8543 168.598 97.9923 169.087 98.2083 169.507C98.4243 169.927 98.7093 170.257 99.0633 170.497C99.4173 170.731 99.8343 170.848 100.314 170.848C100.704 170.848 101.064 170.779 101.394 170.641C101.73 170.503 102.042 170.29 102.33 170.002L103.248 171.028C102.906 171.37 102.48 171.655 101.97 171.883C101.466 172.105 100.902 172.216 100.278 172.216ZM97.7763 166.672H102.492C102.492 166.15 102.405 165.685 102.231 165.277C102.063 164.863 101.814 164.539 101.484 164.305C101.154 164.071 100.752 163.954 100.278 163.954C99.6123 163.954 99.0393 164.17 98.5593 164.602C98.0853 165.034 97.8243 165.724 97.7763 166.672ZM114.578 172.216C114.122 172.216 113.708 172.135 113.336 171.973C112.964 171.811 112.592 171.556 112.22 171.208V172H110.654V159.742L112.22 159.004V163.594C112.508 163.276 112.853 163.03 113.255 162.856C113.663 162.676 114.086 162.586 114.524 162.586C115.304 162.586 115.979 162.781 116.549 163.171C117.119 163.561 117.56 164.116 117.872 164.836C118.184 165.556 118.34 166.408 118.34 167.392C118.34 168.922 118.01 170.11 117.35 170.956C116.69 171.796 115.766 172.216 114.578 172.216ZM114.362 170.758C115.13 170.758 115.718 170.467 116.126 169.885C116.534 169.303 116.738 168.472 116.738 167.392C116.738 166.294 116.534 165.46 116.126 164.89C115.724 164.314 115.136 164.026 114.362 164.026C113.948 164.026 113.54 164.143 113.138 164.377C112.736 164.605 112.43 164.896 112.22 165.25V169.516C112.448 169.894 112.751 170.197 113.129 170.425C113.513 170.647 113.924 170.758 114.362 170.758ZM124.589 172.216C123.749 172.216 123.023 172.009 122.411 171.595C121.799 171.181 121.328 170.611 120.998 169.885C120.668 169.159 120.503 168.328 120.503 167.392C120.503 166.378 120.674 165.514 121.016 164.8C121.358 164.08 121.835 163.531 122.447 163.153C123.059 162.775 123.773 162.586 124.589 162.586C125.279 162.586 125.912 162.742 126.488 163.054C127.064 163.36 127.523 163.837 127.865 164.485C128.213 165.127 128.387 165.952 128.387 166.96C128.387 167.104 128.381 167.272 128.369 167.464C128.363 167.65 128.351 167.842 128.333 168.04H122.105C122.165 168.598 122.303 169.087 122.519 169.507C122.735 169.927 123.02 170.257 123.374 170.497C123.728 170.731 124.145 170.848 124.625 170.848C125.015 170.848 125.375 170.779 125.705 170.641C126.041 170.503 126.353 170.29 126.641 170.002L127.559 171.028C127.217 171.37 126.791 171.655 126.281 171.883C125.777 172.105 125.213 172.216 124.589 172.216ZM122.087 166.672H126.803C126.803 166.15 126.716 165.685 126.542 165.277C126.374 164.863 126.125 164.539 125.795 164.305C125.465 164.071 125.063 163.954 124.589 163.954C123.923 163.954 123.35 164.17 122.87 164.602C122.396 165.034 122.135 165.724 122.087 166.672ZM133.271 172.216C132.623 172.216 131.999 172.078 131.399 171.802C130.805 171.52 130.319 171.142 129.941 170.668L131.057 169.714C131.381 170.062 131.741 170.332 132.137 170.524C132.533 170.716 132.923 170.812 133.307 170.812C133.847 170.812 134.267 170.71 134.567 170.506C134.867 170.296 135.017 170.008 135.017 169.642C135.017 169.402 134.948 169.186 134.81 168.994C134.678 168.802 134.456 168.619 134.144 168.445C133.838 168.271 133.427 168.088 132.911 167.896C131.897 167.518 131.168 167.107 130.724 166.663C130.286 166.219 130.067 165.67 130.067 165.016C130.067 164.296 130.352 163.711 130.922 163.261C131.498 162.811 132.245 162.586 133.163 162.586C133.793 162.586 134.372 162.706 134.9 162.946C135.428 163.18 135.881 163.522 136.259 163.972L135.179 164.872C134.627 164.284 133.949 163.99 133.145 163.99C132.671 163.99 132.296 164.083 132.02 164.269C131.75 164.449 131.615 164.698 131.615 165.016C131.615 165.322 131.768 165.592 132.074 165.826C132.386 166.054 132.947 166.318 133.757 166.618C134.417 166.858 134.951 167.119 135.359 167.401C135.773 167.683 136.073 168.004 136.259 168.364C136.451 168.724 136.547 169.138 136.547 169.606C136.547 170.416 136.256 171.055 135.674 171.523C135.092 171.985 134.291 172.216 133.271 172.216ZM141.37 172.216C140.74 172.216 140.257 172.027 139.921 171.649C139.591 171.271 139.426 170.728 139.426 170.02V164.17H137.932V162.802H139.426V159.76L140.992 159.004V162.802H143.26V164.17H140.992V169.498C140.992 169.936 141.067 170.257 141.217 170.461C141.373 170.659 141.616 170.758 141.946 170.758C142.366 170.758 142.822 170.596 143.314 170.272L143.134 171.802C142.864 171.946 142.582 172.051 142.288 172.117C142 172.183 141.694 172.216 141.37 172.216ZM149.871 172V162.802H151.437V172H149.871ZM150.645 161.128C150.375 161.128 150.144 161.035 149.952 160.849C149.766 160.657 149.673 160.426 149.673 160.156C149.673 159.874 149.766 159.637 149.952 159.445C150.144 159.247 150.375 159.148 150.645 159.148C150.927 159.148 151.161 159.247 151.347 159.445C151.539 159.637 151.635 159.874 151.635 160.156C151.635 160.426 151.539 160.657 151.347 160.849C151.161 161.035 150.927 161.128 150.645 161.128ZM154.424 172V162.802H155.99V163.738C156.272 163.348 156.611 163.06 157.007 162.874C157.403 162.682 157.856 162.586 158.366 162.586C159.482 162.586 160.31 162.925 160.85 163.603C161.39 164.275 161.66 165.31 161.66 166.708V172H160.094V166.438C160.094 165.664 159.92 165.07 159.572 164.656C159.23 164.236 158.744 164.026 158.114 164.026C157.412 164.026 156.881 164.227 156.521 164.629C156.167 165.025 155.99 165.616 155.99 166.402V172H154.424ZM165.088 172V164.17H163.666V162.802H165.088V161.272C165.088 160.612 165.262 160.099 165.61 159.733C165.964 159.367 166.456 159.184 167.086 159.184C167.392 159.184 167.686 159.22 167.968 159.292C168.25 159.364 168.526 159.472 168.796 159.616V160.93C168.538 160.81 168.307 160.723 168.103 160.669C167.899 160.615 167.692 160.588 167.482 160.588C167.188 160.588 166.975 160.663 166.843 160.813C166.717 160.957 166.654 161.2 166.654 161.542V162.802H168.796V164.17H166.654V172H165.088ZM170.65 172V159.742L172.216 159.004V172H170.65ZM178.529 172.216C177.395 172.216 176.552 171.88 176 171.208C175.454 170.536 175.181 169.504 175.181 168.112V162.802H176.747V168.346C176.747 169.126 176.918 169.723 177.26 170.137C177.602 170.551 178.091 170.758 178.727 170.758C179.429 170.758 179.957 170.557 180.311 170.155C180.671 169.753 180.851 169.162 180.851 168.382V162.802H182.417V172H180.851V171.118C180.557 171.496 180.224 171.775 179.852 171.955C179.486 172.129 179.045 172.216 178.529 172.216ZM188.872 172.216C188.032 172.216 187.306 172.009 186.694 171.595C186.082 171.181 185.611 170.611 185.281 169.885C184.951 169.159 184.786 168.328 184.786 167.392C184.786 166.378 184.957 165.514 185.299 164.8C185.641 164.08 186.118 163.531 186.73 163.153C187.342 162.775 188.056 162.586 188.872 162.586C189.562 162.586 190.195 162.742 190.771 163.054C191.347 163.36 191.806 163.837 192.148 164.485C192.496 165.127 192.67 165.952 192.67 166.96C192.67 167.104 192.664 167.272 192.652 167.464C192.646 167.65 192.634 167.842 192.616 168.04H186.388C186.448 168.598 186.586 169.087 186.802 169.507C187.018 169.927 187.303 170.257 187.657 170.497C188.011 170.731 188.428 170.848 188.908 170.848C189.298 170.848 189.658 170.779 189.988 170.641C190.324 170.503 190.636 170.29 190.924 170.002L191.842 171.028C191.5 171.37 191.074 171.655 190.564 171.883C190.06 172.105 189.496 172.216 188.872 172.216ZM186.37 166.672H191.086C191.086 166.15 190.999 165.685 190.825 165.277C190.657 164.863 190.408 164.539 190.078 164.305C189.748 164.071 189.346 163.954 188.872 163.954C188.206 163.954 187.633 164.17 187.153 164.602C186.679 165.034 186.418 165.724 186.37 166.672ZM195.187 172V162.802H196.753V163.738C197.035 163.348 197.374 163.06 197.77 162.874C198.166 162.682 198.619 162.586 199.129 162.586C200.245 162.586 201.073 162.925 201.613 163.603C202.153 164.275 202.423 165.31 202.423 166.708V172H200.857V166.438C200.857 165.664 200.683 165.07 200.335 164.656C199.993 164.236 199.507 164.026 198.877 164.026C198.175 164.026 197.644 164.227 197.284 164.629C196.93 165.025 196.753 165.616 196.753 166.402V172H195.187ZM208.87 172.216C208.078 172.216 207.397 172.024 206.827 171.64C206.257 171.25 205.819 170.698 205.513 169.984C205.207 169.264 205.054 168.406 205.054 167.41C205.054 166.408 205.21 165.547 205.522 164.827C205.834 164.107 206.278 163.555 206.854 163.171C207.436 162.781 208.132 162.586 208.942 162.586C209.734 162.586 210.406 162.769 210.958 163.135C211.51 163.501 211.912 164.032 212.164 164.728L210.688 165.268C210.538 164.872 210.313 164.569 210.013 164.359C209.719 164.149 209.368 164.044 208.96 164.044C208.216 164.044 207.646 164.332 207.25 164.908C206.854 165.484 206.656 166.318 206.656 167.41C206.656 168.478 206.851 169.3 207.241 169.876C207.631 170.452 208.186 170.74 208.906 170.74C209.368 170.74 209.761 170.62 210.085 170.38C210.415 170.14 210.646 169.804 210.778 169.372L212.236 169.858C212.014 170.614 211.609 171.196 211.021 171.604C210.433 172.012 209.716 172.216 208.87 172.216ZM218.28 172.216C217.44 172.216 216.714 172.009 216.102 171.595C215.49 171.181 215.019 170.611 214.689 169.885C214.359 169.159 214.194 168.328 214.194 167.392C214.194 166.378 214.365 165.514 214.707 164.8C215.049 164.08 215.526 163.531 216.138 163.153C216.75 162.775 217.464 162.586 218.28 162.586C218.97 162.586 219.603 162.742 220.179 163.054C220.755 163.36 221.214 163.837 221.556 164.485C221.904 165.127 222.078 165.952 222.078 166.96C222.078 167.104 222.072 167.272 222.06 167.464C222.054 167.65 222.042 167.842 222.024 168.04H215.796C215.856 168.598 215.994 169.087 216.21 169.507C216.426 169.927 216.711 170.257 217.065 170.497C217.419 170.731 217.836 170.848 218.316 170.848C218.706 170.848 219.066 170.779 219.396 170.641C219.732 170.503 220.044 170.29 220.332 170.002L221.25 171.028C220.908 171.37 220.482 171.655 219.972 171.883C219.468 172.105 218.904 172.216 218.28 172.216ZM215.778 166.672H220.494C220.494 166.15 220.407 165.685 220.233 165.277C220.065 164.863 219.816 164.539 219.486 164.305C219.156 164.071 218.754 163.954 218.28 163.954C217.614 163.954 217.041 164.17 216.561 164.602C216.087 165.034 215.826 165.724 215.778 166.672ZM224.596 172V162.802H226.162V164.008C226.372 163.54 226.66 163.186 227.026 162.946C227.398 162.706 227.836 162.586 228.34 162.586C228.898 162.586 229.372 162.742 229.762 163.054L229.528 164.53C229.33 164.392 229.123 164.293 228.907 164.233C228.697 164.167 228.466 164.134 228.214 164.134C227.8 164.134 227.44 164.245 227.134 164.467C226.828 164.689 226.588 165.001 226.414 165.403C226.246 165.805 226.162 166.276 226.162 166.816V172H224.596ZM234.134 172.216C233.486 172.216 232.862 172.078 232.262 171.802C231.668 171.52 231.182 171.142 230.804 170.668L231.92 169.714C232.244 170.062 232.604 170.332 233 170.524C233.396 170.716 233.786 170.812 234.17 170.812C234.71 170.812 235.13 170.71 235.43 170.506C235.73 170.296 235.88 170.008 235.88 169.642C235.88 169.402 235.811 169.186 235.673 168.994C235.541 168.802 235.319 168.619 235.007 168.445C234.701 168.271 234.29 168.088 233.774 167.896C232.76 167.518 232.031 167.107 231.587 166.663C231.149 166.219 230.93 165.67 230.93 165.016C230.93 164.296 231.215 163.711 231.785 163.261C232.361 162.811 233.108 162.586 234.026 162.586C234.656 162.586 235.235 162.706 235.763 162.946C236.291 163.18 236.744 163.522 237.122 163.972L236.042 164.872C235.49 164.284 234.812 163.99 234.008 163.99C233.534 163.99 233.159 164.083 232.883 164.269C232.613 164.449 232.478 164.698 232.478 165.016C232.478 165.322 232.631 165.592 232.937 165.826C233.249 166.054 233.81 166.318 234.62 166.618C235.28 166.858 235.814 167.119 236.222 167.401C236.636 167.683 236.936 168.004 237.122 168.364C237.314 168.724 237.41 169.138 237.41 169.606C237.41 170.416 237.119 171.055 236.537 171.523C235.955 171.985 235.154 172.216 234.134 172.216ZM244.108 172V162.802H245.674V172H244.108ZM244.882 161.128C244.612 161.128 244.381 161.035 244.189 160.849C244.003 160.657 243.91 160.426 243.91 160.156C243.91 159.874 244.003 159.637 244.189 159.445C244.381 159.247 244.612 159.148 244.882 159.148C245.164 159.148 245.398 159.247 245.584 159.445C245.776 159.637 245.872 159.874 245.872 160.156C245.872 160.426 245.776 160.657 245.584 160.849C245.398 161.035 245.164 161.128 244.882 161.128ZM248.66 172V162.802H250.226V163.738C250.508 163.348 250.847 163.06 251.243 162.874C251.639 162.682 252.092 162.586 252.602 162.586C253.718 162.586 254.546 162.925 255.086 163.603C255.626 164.275 255.896 165.31 255.896 166.708V172H254.33V166.438C254.33 165.664 254.156 165.07 253.808 164.656C253.466 164.236 252.98 164.026 252.35 164.026C251.648 164.026 251.117 164.227 250.757 164.629C250.403 165.025 250.226 165.616 250.226 166.402V172H248.66ZM38.7412 198.492L40.1452 194.766L36.7432 185.802H38.3092L40.5952 192.066C40.6612 192.228 40.7152 192.375 40.7572 192.507C40.7992 192.639 40.8412 192.786 40.8832 192.948C40.9312 192.786 40.9762 192.639 41.0182 192.507C41.0602 192.375 41.1112 192.228 41.1712 192.066L43.4932 185.802H45.0952L40.3252 198.492H38.7412ZM50.6197 195.216C49.3597 195.216 48.3667 194.787 47.6407 193.929C46.9147 193.065 46.5517 191.892 46.5517 190.41C46.5517 189.42 46.7167 188.565 47.0467 187.845C47.3767 187.125 47.8447 186.57 48.4507 186.18C49.0627 185.784 49.7857 185.586 50.6197 185.586C51.4597 185.586 52.1827 185.781 52.7887 186.171C53.4007 186.555 53.8687 187.107 54.1927 187.827C54.5227 188.547 54.6877 189.402 54.6877 190.392C54.6877 191.382 54.5227 192.24 54.1927 192.966C53.8627 193.686 53.3917 194.241 52.7797 194.631C52.1737 195.021 51.4537 195.216 50.6197 195.216ZM50.6197 193.758C51.3937 193.758 51.9997 193.461 52.4377 192.867C52.8817 192.267 53.1037 191.442 53.1037 190.392C53.1037 189.336 52.8817 188.511 52.4377 187.917C51.9997 187.323 51.3937 187.026 50.6197 187.026C49.8397 187.026 49.2307 187.323 48.7927 187.917C48.3547 188.505 48.1357 189.336 48.1357 190.41C48.1357 191.46 48.3547 192.282 48.7927 192.876C49.2307 193.464 49.8397 193.758 50.6197 193.758ZM60.3868 195.216C59.2528 195.216 58.4098 194.88 57.8578 194.208C57.3118 193.536 57.0388 192.504 57.0388 191.112V185.802H58.6048V191.346C58.6048 192.126 58.7758 192.723 59.1178 193.137C59.4598 193.551 59.9488 193.758 60.5848 193.758C61.2868 193.758 61.8148 193.557 62.1688 193.155C62.5288 192.753 62.7088 192.162 62.7088 191.382V185.802H64.2748V195H62.7088V194.118C62.4148 194.496 62.0818 194.775 61.7098 194.955C61.3438 195.129 60.9028 195.216 60.3868 195.216ZM67.3944 195V185.802H68.9604V187.008C69.1704 186.54 69.4584 186.186 69.8244 185.946C70.1964 185.706 70.6344 185.586 71.1384 185.586C71.6964 185.586 72.1704 185.742 72.5604 186.054L72.3264 187.53C72.1284 187.392 71.9214 187.293 71.7054 187.233C71.4954 187.167 71.2644 187.134 71.0124 187.134C70.5984 187.134 70.2384 187.245 69.9324 187.467C69.6264 187.689 69.3864 188.001 69.2124 188.403C69.0444 188.805 68.9604 189.276 68.9604 189.816V195H67.3944ZM81.8848 195.216C80.7148 195.216 79.7878 194.784 79.1038 193.92C78.4258 193.05 78.0868 191.874 78.0868 190.392C78.0868 189.408 78.2398 188.556 78.5458 187.836C78.8578 187.116 79.2958 186.561 79.8598 186.171C80.4298 185.781 81.1048 185.586 81.8848 185.586C82.7848 185.586 83.5588 185.874 84.2068 186.45V182.742L85.7728 182.004V195H84.2068V194.28C83.6008 194.904 82.8268 195.216 81.8848 195.216ZM82.1008 193.758C82.5328 193.758 82.9318 193.65 83.2978 193.434C83.6698 193.218 83.9728 192.912 84.2068 192.516V188.196C83.9728 187.836 83.6698 187.551 83.2978 187.341C82.9258 187.131 82.5268 187.026 82.1008 187.026C81.3268 187.026 80.7268 187.317 80.3008 187.899C79.8808 188.481 79.6708 189.312 79.6708 190.392C79.6708 191.058 79.7728 191.643 79.9768 192.147C80.1808 192.651 80.4658 193.047 80.8318 193.335C81.1978 193.617 81.6208 193.758 82.1008 193.758ZM92.2622 195.216C91.0022 195.216 90.0092 194.787 89.2832 193.929C88.5572 193.065 88.1942 191.892 88.1942 190.41C88.1942 189.42 88.3592 188.565 88.6892 187.845C89.0192 187.125 89.4872 186.57 90.0932 186.18C90.7052 185.784 91.4282 185.586 92.2622 185.586C93.1022 185.586 93.8252 185.781 94.4312 186.171C95.0432 186.555 95.5112 187.107 95.8352 187.827C96.1652 188.547 96.3302 189.402 96.3302 190.392C96.3302 191.382 96.1652 192.24 95.8352 192.966C95.5052 193.686 95.0342 194.241 94.4222 194.631C93.8162 195.021 93.0962 195.216 92.2622 195.216ZM92.2622 193.758C93.0362 193.758 93.6422 193.461 94.0802 192.867C94.5242 192.267 94.7462 191.442 94.7462 190.392C94.7462 189.336 94.5242 188.511 94.0802 187.917C93.6422 187.323 93.0362 187.026 92.2622 187.026C91.4822 187.026 90.8732 187.323 90.4352 187.917C89.9972 188.505 89.7782 189.336 89.7782 190.41C89.7782 191.46 89.9972 192.282 90.4352 192.876C90.8732 193.464 91.4822 193.758 92.2622 193.758ZM98.6835 195V185.802H100.249V186.666C100.513 186.312 100.852 186.045 101.266 185.865C101.686 185.679 102.151 185.586 102.661 185.586C103.195 185.586 103.678 185.706 104.11 185.946C104.548 186.18 104.887 186.51 105.127 186.936C105.409 186.504 105.781 186.171 106.243 185.937C106.711 185.703 107.227 185.586 107.791 185.586C108.781 185.586 109.567 185.892 110.149 186.504C110.737 187.11 111.031 187.932 111.031 188.97V195H109.465V189.42C109.465 188.652 109.303 188.061 108.979 187.647C108.661 187.233 108.205 187.026 107.611 187.026C107.215 187.026 106.867 187.128 106.567 187.332C106.273 187.536 106.042 187.824 105.874 188.196C105.712 188.562 105.631 188.988 105.631 189.474V195H104.065V189.42C104.065 188.634 103.909 188.04 103.597 187.638C103.291 187.23 102.835 187.026 102.229 187.026C101.617 187.026 101.134 187.239 100.78 187.665C100.426 188.091 100.249 188.67 100.249 189.402V195H98.6835ZM116.676 195.216C115.68 195.216 114.897 194.94 114.327 194.388C113.757 193.836 113.472 193.08 113.472 192.12C113.472 191.502 113.613 190.965 113.895 190.509C114.177 190.053 114.576 189.702 115.092 189.456C115.608 189.204 116.214 189.078 116.91 189.078C117.36 189.078 117.78 189.129 118.17 189.231C118.566 189.327 118.938 189.474 119.286 189.672V189.024C119.286 188.31 119.124 187.788 118.8 187.458C118.476 187.122 117.972 186.954 117.288 186.954C116.85 186.954 116.394 187.035 115.92 187.197C115.452 187.359 115.014 187.584 114.606 187.872L114.156 186.558C114.618 186.252 115.143 186.015 115.731 185.847C116.325 185.673 116.91 185.586 117.486 185.586C118.578 185.586 119.397 185.865 119.943 186.423C120.489 186.975 120.762 187.8 120.762 188.898V195H119.286V194.154C118.926 194.496 118.521 194.76 118.071 194.946C117.621 195.126 117.156 195.216 116.676 195.216ZM116.91 193.848C117.336 193.848 117.756 193.743 118.17 193.533C118.59 193.323 118.962 193.026 119.286 192.642V191.058C118.98 190.866 118.632 190.716 118.242 190.608C117.852 190.5 117.48 190.446 117.126 190.446C116.454 190.446 115.923 190.599 115.533 190.905C115.143 191.205 114.948 191.616 114.948 192.138C114.948 192.666 115.122 193.083 115.47 193.389C115.818 193.695 116.298 193.848 116.91 193.848ZM123.504 195V185.802H125.07V195H123.504ZM124.278 184.128C124.008 184.128 123.777 184.035 123.585 183.849C123.399 183.657 123.306 183.426 123.306 183.156C123.306 182.874 123.399 182.637 123.585 182.445C123.777 182.247 124.008 182.148 124.278 182.148C124.56 182.148 124.794 182.247 124.98 182.445C125.172 182.637 125.268 182.874 125.268 183.156C125.268 183.426 125.172 183.657 124.98 183.849C124.794 184.035 124.56 184.128 124.278 184.128ZM128.057 195V185.802H129.623V186.738C129.905 186.348 130.244 186.06 130.64 185.874C131.036 185.682 131.489 185.586 131.999 185.586C133.115 185.586 133.943 185.925 134.483 186.603C135.023 187.275 135.293 188.31 135.293 189.708V195H133.727V189.438C133.727 188.664 133.553 188.07 133.205 187.656C132.863 187.236 132.377 187.026 131.747 187.026C131.045 187.026 130.514 187.227 130.154 187.629C129.8 188.025 129.623 188.616 129.623 189.402V195H128.057ZM144.991 195.216C144.361 195.216 143.878 195.027 143.542 194.649C143.212 194.271 143.047 193.728 143.047 193.02V187.17H141.553V185.802H143.047V182.76L144.613 182.004V185.802H146.881V187.17H144.613V192.498C144.613 192.936 144.688 193.257 144.838 193.461C144.994 193.659 145.237 193.758 145.567 193.758C145.987 193.758 146.443 193.596 146.935 193.272L146.755 194.802C146.485 194.946 146.203 195.051 145.909 195.117C145.621 195.183 145.315 195.216 144.991 195.216ZM152.59 195.216C151.33 195.216 150.337 194.787 149.611 193.929C148.885 193.065 148.522 191.892 148.522 190.41C148.522 189.42 148.687 188.565 149.017 187.845C149.347 187.125 149.815 186.57 150.421 186.18C151.033 185.784 151.756 185.586 152.59 185.586C153.43 185.586 154.153 185.781 154.759 186.171C155.371 186.555 155.839 187.107 156.163 187.827C156.493 188.547 156.658 189.402 156.658 190.392C156.658 191.382 156.493 192.24 156.163 192.966C155.833 193.686 155.362 194.241 154.75 194.631C154.144 195.021 153.424 195.216 152.59 195.216ZM152.59 193.758C153.364 193.758 153.97 193.461 154.408 192.867C154.852 192.267 155.074 191.442 155.074 190.392C155.074 189.336 154.852 188.511 154.408 187.917C153.97 187.323 153.364 187.026 152.59 187.026C151.81 187.026 151.201 187.323 150.763 187.917C150.325 188.505 150.106 189.336 150.106 190.41C150.106 191.46 150.325 192.282 150.763 192.876C151.201 193.464 151.81 193.758 152.59 193.758ZM163.336 198.654V185.802H164.902V186.576C165.562 185.916 166.348 185.586 167.26 185.586C168.04 185.586 168.712 185.781 169.276 186.171C169.846 186.561 170.284 187.116 170.59 187.836C170.902 188.556 171.058 189.408 171.058 190.392C171.058 191.376 170.902 192.231 170.59 192.957C170.278 193.677 169.837 194.235 169.267 194.631C168.703 195.021 168.034 195.216 167.26 195.216C166.774 195.216 166.336 195.129 165.946 194.955C165.556 194.775 165.208 194.502 164.902 194.136V197.916L163.336 198.654ZM167.062 193.758C167.836 193.758 168.427 193.467 168.835 192.885C169.249 192.303 169.456 191.472 169.456 190.392C169.456 189.354 169.24 188.535 168.808 187.935C168.376 187.329 167.794 187.026 167.062 187.026C166.594 187.026 166.174 187.134 165.802 187.35C165.43 187.566 165.13 187.872 164.902 188.268V192.516C165.22 192.93 165.559 193.242 165.919 193.452C166.279 193.656 166.66 193.758 167.062 193.758ZM176.424 195.216C175.428 195.216 174.645 194.94 174.075 194.388C173.505 193.836 173.22 193.08 173.22 192.12C173.22 191.502 173.361 190.965 173.643 190.509C173.925 190.053 174.324 189.702 174.84 189.456C175.356 189.204 175.962 189.078 176.658 189.078C177.108 189.078 177.528 189.129 177.918 189.231C178.314 189.327 178.686 189.474 179.034 189.672V189.024C179.034 188.31 178.872 187.788 178.548 187.458C178.224 187.122 177.72 186.954 177.036 186.954C176.598 186.954 176.142 187.035 175.668 187.197C175.2 187.359 174.762 187.584 174.354 187.872L173.904 186.558C174.366 186.252 174.891 186.015 175.479 185.847C176.073 185.673 176.658 185.586 177.234 185.586C178.326 185.586 179.145 185.865 179.691 186.423C180.237 186.975 180.51 187.8 180.51 188.898V195H179.034V194.154C178.674 194.496 178.269 194.76 177.819 194.946C177.369 195.126 176.904 195.216 176.424 195.216ZM176.658 193.848C177.084 193.848 177.504 193.743 177.918 193.533C178.338 193.323 178.71 193.026 179.034 192.642V191.058C178.728 190.866 178.38 190.716 177.99 190.608C177.6 190.5 177.228 190.446 176.874 190.446C176.202 190.446 175.671 190.599 175.281 190.905C174.891 191.205 174.696 191.616 174.696 192.138C174.696 192.666 174.87 193.083 175.218 193.389C175.566 193.695 176.046 193.848 176.658 193.848ZM183.463 195V185.802H185.029V187.008C185.239 186.54 185.527 186.186 185.893 185.946C186.265 185.706 186.703 185.586 187.207 185.586C187.765 185.586 188.239 185.742 188.629 186.054L188.395 187.53C188.197 187.392 187.99 187.293 187.774 187.233C187.564 187.167 187.333 187.134 187.081 187.134C186.667 187.134 186.307 187.245 186.001 187.467C185.695 187.689 185.455 188.001 185.281 188.403C185.113 188.805 185.029 189.276 185.029 189.816V195H183.463ZM193.279 195.216C192.649 195.216 192.166 195.027 191.83 194.649C191.5 194.271 191.335 193.728 191.335 193.02V187.17H189.841V185.802H191.335V182.76L192.901 182.004V185.802H195.169V187.17H192.901V192.498C192.901 192.936 192.976 193.257 193.126 193.461C193.282 193.659 193.525 193.758 193.855 193.758C194.275 193.758 194.731 193.596 195.223 193.272L195.043 194.802C194.773 194.946 194.491 195.051 194.197 195.117C193.909 195.183 193.603 195.216 193.279 195.216ZM196.805 195V185.802H198.371V186.738C198.653 186.348 198.992 186.06 199.388 185.874C199.784 185.682 200.237 185.586 200.747 185.586C201.863 185.586 202.691 185.925 203.231 186.603C203.771 187.275 204.041 188.31 204.041 189.708V195H202.475V189.438C202.475 188.664 202.301 188.07 201.953 187.656C201.611 187.236 201.125 187.026 200.495 187.026C199.793 187.026 199.262 187.227 198.902 187.629C198.548 188.025 198.371 188.616 198.371 189.402V195H196.805ZM210.757 195.216C209.917 195.216 209.191 195.009 208.579 194.595C207.967 194.181 207.496 193.611 207.166 192.885C206.836 192.159 206.671 191.328 206.671 190.392C206.671 189.378 206.842 188.514 207.184 187.8C207.526 187.08 208.003 186.531 208.615 186.153C209.227 185.775 209.941 185.586 210.757 185.586C211.447 185.586 212.08 185.742 212.656 186.054C213.232 186.36 213.691 186.837 214.033 187.485C214.381 188.127 214.555 188.952 214.555 189.96C214.555 190.104 214.549 190.272 214.537 190.464C214.531 190.65 214.519 190.842 214.501 191.04H208.273C208.333 191.598 208.471 192.087 208.687 192.507C208.903 192.927 209.188 193.257 209.542 193.497C209.896 193.731 210.313 193.848 210.793 193.848C211.183 193.848 211.543 193.779 211.873 193.641C212.209 193.503 212.521 193.29 212.809 193.002L213.727 194.028C213.385 194.37 212.959 194.655 212.449 194.883C211.945 195.105 211.381 195.216 210.757 195.216ZM208.255 189.672H212.971C212.971 189.15 212.884 188.685 212.71 188.277C212.542 187.863 212.293 187.539 211.963 187.305C211.633 187.071 211.231 186.954 210.757 186.954C210.091 186.954 209.518 187.17 209.038 187.602C208.564 188.034 208.303 188.724 208.255 189.672ZM217.072 195V185.802H218.638V187.008C218.848 186.54 219.136 186.186 219.502 185.946C219.874 185.706 220.312 185.586 220.816 185.586C221.374 185.586 221.848 185.742 222.238 186.054L222.004 187.53C221.806 187.392 221.599 187.293 221.383 187.233C221.173 187.167 220.942 187.134 220.69 187.134C220.276 187.134 219.916 187.245 219.61 187.467C219.304 187.689 219.064 188.001 218.89 188.403C218.722 188.805 218.638 189.276 218.638 189.816V195H217.072ZM229.844 195L227.486 185.802H229.034L230.438 191.976C230.48 192.144 230.516 192.312 230.546 192.48C230.582 192.642 230.612 192.798 230.636 192.948C230.666 192.792 230.702 192.633 230.744 192.471C230.786 192.303 230.828 192.138 230.87 191.976L232.598 185.802H233.894L235.622 191.976C235.67 192.156 235.715 192.33 235.757 192.498C235.799 192.66 235.838 192.822 235.874 192.984C235.904 192.828 235.934 192.666 235.964 192.498C235.994 192.33 236.03 192.156 236.072 191.976L237.458 185.802H239.006L236.648 195H235.244L233.57 189.546C233.516 189.366 233.456 189.165 233.39 188.943C233.33 188.721 233.276 188.52 233.228 188.34C233.186 188.52 233.135 188.721 233.075 188.943C233.015 189.165 232.958 189.366 232.904 189.546L231.248 195H229.844ZM241.19 195V185.802H242.756V195H241.19ZM241.964 184.128C241.694 184.128 241.463 184.035 241.271 183.849C241.085 183.657 240.992 183.426 240.992 183.156C240.992 182.874 241.085 182.637 241.271 182.445C241.463 182.247 241.694 182.148 241.964 182.148C242.246 182.148 242.48 182.247 242.666 182.445C242.858 182.637 242.954 182.874 242.954 183.156C242.954 183.426 242.858 183.657 242.666 183.849C242.48 184.035 242.246 184.128 241.964 184.128ZM248.298 195.216C247.668 195.216 247.185 195.027 246.849 194.649C246.519 194.271 246.354 193.728 246.354 193.02V187.17H244.86V185.802H246.354V182.76L247.92 182.004V185.802H250.188V187.17H247.92V192.498C247.92 192.936 247.995 193.257 248.145 193.461C248.301 193.659 248.544 193.758 248.874 193.758C249.294 193.758 249.75 193.596 250.242 193.272L250.062 194.802C249.792 194.946 249.51 195.051 249.216 195.117C248.928 195.183 248.622 195.216 248.298 195.216ZM252.193 195V182.724L253.759 182.004V186.756C254.041 186.366 254.38 186.075 254.776 185.883C255.178 185.685 255.631 185.586 256.135 185.586C256.933 185.586 257.572 185.751 258.052 186.081C258.538 186.411 258.889 186.885 259.105 187.503C259.321 188.115 259.429 188.85 259.429 189.708V195H257.863V189.438C257.863 188.718 257.701 188.136 257.377 187.692C257.059 187.248 256.561 187.026 255.883 187.026C255.181 187.026 254.65 187.227 254.29 187.629C253.936 188.025 253.759 188.616 253.759 189.402V195H252.193Z" fill="white"/>
<path d="M33.8704 260V247.4H35.4364V252.728H41.3764V247.4H42.9424V260H41.3764V254.204H35.4364V260H33.8704ZM49.7851 260.216C48.9451 260.216 48.2191 260.009 47.6071 259.595C46.9951 259.181 46.5241 258.611 46.1941 257.885C45.8641 257.159 45.6991 256.328 45.6991 255.392C45.6991 254.378 45.8701 253.514 46.2121 252.8C46.5541 252.08 47.0311 251.531 47.6431 251.153C48.2551 250.775 48.9691 250.586 49.7851 250.586C50.4751 250.586 51.1081 250.742 51.6841 251.054C52.2601 251.36 52.7191 251.837 53.0611 252.485C53.4091 253.127 53.5831 253.952 53.5831 254.96C53.5831 255.104 53.5771 255.272 53.5651 255.464C53.5591 255.65 53.5471 255.842 53.5291 256.04H47.3011C47.3611 256.598 47.4991 257.087 47.7151 257.507C47.9311 257.927 48.2161 258.257 48.5701 258.497C48.9241 258.731 49.3411 258.848 49.8211 258.848C50.2111 258.848 50.5711 258.779 50.9011 258.641C51.2371 258.503 51.5491 258.29 51.8371 258.002L52.7551 259.028C52.4131 259.37 51.9871 259.655 51.4771 259.883C50.9731 260.105 50.4091 260.216 49.7851 260.216ZM47.2831 254.672H51.9991C51.9991 254.15 51.9121 253.685 51.7381 253.277C51.5701 252.863 51.3211 252.539 50.9911 252.305C50.6611 252.071 50.2591 251.954 49.7851 251.954C49.1191 251.954 48.5461 252.17 48.0661 252.602C47.5921 253.034 47.3311 253.724 47.2831 254.672ZM56.0147 260V247.742L57.5807 247.004V260H56.0147ZM60.6356 263.654V250.802H62.2016V251.576C62.8616 250.916 63.6476 250.586 64.5596 250.586C65.3396 250.586 66.0116 250.781 66.5756 251.171C67.1456 251.561 67.5836 252.116 67.8896 252.836C68.2016 253.556 68.3576 254.408 68.3576 255.392C68.3576 256.376 68.2016 257.231 67.8896 257.957C67.5776 258.677 67.1366 259.235 66.5666 259.631C66.0026 260.021 65.3336 260.216 64.5596 260.216C64.0736 260.216 63.6356 260.129 63.2456 259.955C62.8556 259.775 62.5076 259.502 62.2016 259.136V262.916L60.6356 263.654ZM64.3616 258.758C65.1356 258.758 65.7266 258.467 66.1346 257.885C66.5486 257.303 66.7556 256.472 66.7556 255.392C66.7556 254.354 66.5396 253.535 66.1076 252.935C65.6756 252.329 65.0936 252.026 64.3616 252.026C63.8936 252.026 63.4736 252.134 63.1016 252.35C62.7296 252.566 62.4296 252.872 62.2016 253.268V257.516C62.5196 257.93 62.8586 258.242 63.2186 258.452C63.5786 258.656 63.9596 258.758 64.3616 258.758ZM76.1387 263.492L77.5427 259.766L74.1407 250.802H75.7067L77.9927 257.066C78.0587 257.228 78.1127 257.375 78.1547 257.507C78.1967 257.639 78.2387 257.786 78.2807 257.948C78.3287 257.786 78.3737 257.639 78.4157 257.507C78.4577 257.375 78.5087 257.228 78.5687 257.066L80.8907 250.802H82.4927L77.7227 263.492H76.1387ZM88.0171 260.216C86.7571 260.216 85.7641 259.787 85.0381 258.929C84.3121 258.065 83.9491 256.892 83.9491 255.41C83.9491 254.42 84.1141 253.565 84.4441 252.845C84.7741 252.125 85.2421 251.57 85.8481 251.18C86.4601 250.784 87.1831 250.586 88.0171 250.586C88.8571 250.586 89.5801 250.781 90.1861 251.171C90.7981 251.555 91.2661 252.107 91.5901 252.827C91.9201 253.547 92.0851 254.402 92.0851 255.392C92.0851 256.382 91.9201 257.24 91.5901 257.966C91.2601 258.686 90.7891 259.241 90.1771 259.631C89.5711 260.021 88.8511 260.216 88.0171 260.216ZM88.0171 258.758C88.7911 258.758 89.3971 258.461 89.8351 257.867C90.2791 257.267 90.5011 256.442 90.5011 255.392C90.5011 254.336 90.2791 253.511 89.8351 252.917C89.3971 252.323 88.7911 252.026 88.0171 252.026C87.2371 252.026 86.6281 252.323 86.1901 252.917C85.7521 253.505 85.5331 254.336 85.5331 255.41C85.5331 256.46 85.7521 257.282 86.1901 257.876C86.6281 258.464 87.2371 258.758 88.0171 258.758ZM97.7842 260.216C96.6502 260.216 95.8072 259.88 95.2552 259.208C94.7092 258.536 94.4362 257.504 94.4362 256.112V250.802H96.0022V256.346C96.0022 257.126 96.1732 257.723 96.5152 258.137C96.8572 258.551 97.3462 258.758 97.9822 258.758C98.6842 258.758 99.2122 258.557 99.5662 258.155C99.9262 257.753 100.106 257.162 100.106 256.382V250.802H101.672V260H100.106V259.118C99.8122 259.496 99.4792 259.775 99.1072 259.955C98.7412 260.129 98.3002 260.216 97.7842 260.216ZM104.792 260V250.802H106.358V252.008C106.568 251.54 106.856 251.186 107.222 250.946C107.594 250.706 108.032 250.586 108.536 250.586C109.094 250.586 109.568 250.742 109.958 251.054L109.724 252.53C109.526 252.392 109.319 252.293 109.103 252.233C108.893 252.167 108.662 252.134 108.41 252.134C107.996 252.134 107.636 252.245 107.33 252.467C107.024 252.689 106.784 253.001 106.61 253.403C106.442 253.805 106.358 254.276 106.358 254.816V260H104.792ZM119.3 260.216C118.508 260.216 117.827 260.024 117.257 259.64C116.687 259.25 116.249 258.698 115.943 257.984C115.637 257.264 115.484 256.406 115.484 255.41C115.484 254.408 115.64 253.547 115.952 252.827C116.264 252.107 116.708 251.555 117.284 251.171C117.866 250.781 118.562 250.586 119.372 250.586C120.164 250.586 120.836 250.769 121.388 251.135C121.94 251.501 122.342 252.032 122.594 252.728L121.118 253.268C120.968 252.872 120.743 252.569 120.443 252.359C120.149 252.149 119.798 252.044 119.39 252.044C118.646 252.044 118.076 252.332 117.68 252.908C117.284 253.484 117.086 254.318 117.086 255.41C117.086 256.478 117.281 257.3 117.671 257.876C118.061 258.452 118.616 258.74 119.336 258.74C119.798 258.74 120.191 258.62 120.515 258.38C120.845 258.14 121.076 257.804 121.208 257.372L122.666 257.858C122.444 258.614 122.039 259.196 121.451 259.604C120.863 260.012 120.146 260.216 119.3 260.216ZM128.693 260.216C127.433 260.216 126.44 259.787 125.714 258.929C124.988 258.065 124.625 256.892 124.625 255.41C124.625 254.42 124.79 253.565 125.12 252.845C125.45 252.125 125.918 251.57 126.524 251.18C127.136 250.784 127.859 250.586 128.693 250.586C129.533 250.586 130.256 250.781 130.862 251.171C131.474 251.555 131.942 252.107 132.266 252.827C132.596 253.547 132.761 254.402 132.761 255.392C132.761 256.382 132.596 257.24 132.266 257.966C131.936 258.686 131.465 259.241 130.853 259.631C130.247 260.021 129.527 260.216 128.693 260.216ZM128.693 258.758C129.467 258.758 130.073 258.461 130.511 257.867C130.955 257.267 131.177 256.442 131.177 255.392C131.177 254.336 130.955 253.511 130.511 252.917C130.073 252.323 129.467 252.026 128.693 252.026C127.913 252.026 127.304 252.323 126.866 252.917C126.428 253.505 126.209 254.336 126.209 255.41C126.209 256.46 126.428 257.282 126.866 257.876C127.304 258.464 127.913 258.758 128.693 258.758ZM135.114 260V250.802H136.68V251.666C136.944 251.312 137.283 251.045 137.697 250.865C138.117 250.679 138.582 250.586 139.092 250.586C139.626 250.586 140.109 250.706 140.541 250.946C140.979 251.18 141.318 251.51 141.558 251.936C141.84 251.504 142.212 251.171 142.674 250.937C143.142 250.703 143.658 250.586 144.222 250.586C145.212 250.586 145.998 250.892 146.58 251.504C147.168 252.11 147.462 252.932 147.462 253.97V260H145.896V254.42C145.896 253.652 145.734 253.061 145.41 252.647C145.092 252.233 144.636 252.026 144.042 252.026C143.646 252.026 143.298 252.128 142.998 252.332C142.704 252.536 142.473 252.824 142.305 253.196C142.143 253.562 142.062 253.988 142.062 254.474V260H140.496V254.42C140.496 253.634 140.34 253.04 140.028 252.638C139.722 252.23 139.266 252.026 138.66 252.026C138.048 252.026 137.565 252.239 137.211 252.665C136.857 253.091 136.68 253.67 136.68 254.402V260H135.114ZM150.583 263.654V250.802H152.149V251.576C152.809 250.916 153.595 250.586 154.507 250.586C155.287 250.586 155.959 250.781 156.523 251.171C157.093 251.561 157.531 252.116 157.837 252.836C158.149 253.556 158.305 254.408 158.305 255.392C158.305 256.376 158.149 257.231 157.837 257.957C157.525 258.677 157.084 259.235 156.514 259.631C155.95 260.021 155.281 260.216 154.507 260.216C154.021 260.216 153.583 260.129 153.193 259.955C152.803 259.775 152.455 259.502 152.149 259.136V262.916L150.583 263.654ZM154.309 258.758C155.083 258.758 155.674 258.467 156.082 257.885C156.496 257.303 156.703 256.472 156.703 255.392C156.703 254.354 156.487 253.535 156.055 252.935C155.623 252.329 155.041 252.026 154.309 252.026C153.841 252.026 153.421 252.134 153.049 252.35C152.677 252.566 152.377 252.872 152.149 253.268V257.516C152.467 257.93 152.806 258.242 153.166 258.452C153.526 258.656 153.907 258.758 154.309 258.758ZM163.671 260.216C162.675 260.216 161.892 259.94 161.322 259.388C160.752 258.836 160.467 258.08 160.467 257.12C160.467 256.502 160.608 255.965 160.89 255.509C161.172 255.053 161.571 254.702 162.087 254.456C162.603 254.204 163.209 254.078 163.905 254.078C164.355 254.078 164.775 254.129 165.165 254.231C165.561 254.327 165.933 254.474 166.281 254.672V254.024C166.281 253.31 166.119 252.788 165.795 252.458C165.471 252.122 164.967 251.954 164.283 251.954C163.845 251.954 163.389 252.035 162.915 252.197C162.447 252.359 162.009 252.584 161.601 252.872L161.151 251.558C161.613 251.252 162.138 251.015 162.726 250.847C163.32 250.673 163.905 250.586 164.481 250.586C165.573 250.586 166.392 250.865 166.938 251.423C167.484 251.975 167.757 252.8 167.757 253.898V260H166.281V259.154C165.921 259.496 165.516 259.76 165.066 259.946C164.616 260.126 164.151 260.216 163.671 260.216ZM163.905 258.848C164.331 258.848 164.751 258.743 165.165 258.533C165.585 258.323 165.957 258.026 166.281 257.642V256.058C165.975 255.866 165.627 255.716 165.237 255.608C164.847 255.5 164.475 255.446 164.121 255.446C163.449 255.446 162.918 255.599 162.528 255.905C162.138 256.205 161.943 256.616 161.943 257.138C161.943 257.666 162.117 258.083 162.465 258.389C162.813 258.695 163.293 258.848 163.905 258.848ZM170.71 260V250.802H172.276V251.738C172.558 251.348 172.897 251.06 173.293 250.874C173.689 250.682 174.142 250.586 174.652 250.586C175.768 250.586 176.596 250.925 177.136 251.603C177.676 252.275 177.946 253.31 177.946 254.708V260H176.38V254.438C176.38 253.664 176.206 253.07 175.858 252.656C175.516 252.236 175.03 252.026 174.4 252.026C173.698 252.026 173.167 252.227 172.807 252.629C172.453 253.025 172.276 253.616 172.276 254.402V260H170.71ZM181.906 263.492L183.31 259.766L179.908 250.802H181.474L183.76 257.066C183.826 257.228 183.88 257.375 183.922 257.507C183.964 257.639 184.006 257.786 184.048 257.948C184.096 257.786 184.141 257.639 184.183 257.507C184.225 257.375 184.276 257.228 184.336 257.066L186.658 250.802H188.26L183.49 263.492H181.906ZM194.599 260V250.802H196.165V260H194.599ZM195.373 249.128C195.103 249.128 194.872 249.035 194.68 248.849C194.494 248.657 194.401 248.426 194.401 248.156C194.401 247.874 194.494 247.637 194.68 247.445C194.872 247.247 195.103 247.148 195.373 247.148C195.655 247.148 195.889 247.247 196.075 247.445C196.267 247.637 196.363 247.874 196.363 248.156C196.363 248.426 196.267 248.657 196.075 248.849C195.889 249.035 195.655 249.128 195.373 249.128ZM199.151 260V250.802H200.717V251.738C200.999 251.348 201.338 251.06 201.734 250.874C202.13 250.682 202.583 250.586 203.093 250.586C204.209 250.586 205.037 250.925 205.577 251.603C206.117 252.275 206.387 253.31 206.387 254.708V260H204.821V254.438C204.821 253.664 204.647 253.07 204.299 252.656C203.957 252.236 203.471 252.026 202.841 252.026C202.139 252.026 201.608 252.227 201.248 252.629C200.894 253.025 200.717 253.616 200.717 254.402V260H199.151ZM212.833 260.216C212.041 260.216 211.36 260.024 210.79 259.64C210.22 259.25 209.782 258.698 209.476 257.984C209.17 257.264 209.017 256.406 209.017 255.41C209.017 254.408 209.173 253.547 209.485 252.827C209.797 252.107 210.241 251.555 210.817 251.171C211.399 250.781 212.095 250.586 212.905 250.586C213.697 250.586 214.369 250.769 214.921 251.135C215.473 251.501 215.875 252.032 216.127 252.728L214.651 253.268C214.501 252.872 214.276 252.569 213.976 252.359C213.682 252.149 213.331 252.044 212.923 252.044C212.179 252.044 211.609 252.332 211.213 252.908C210.817 253.484 210.619 254.318 210.619 255.41C210.619 256.478 210.814 257.3 211.204 257.876C211.594 258.452 212.149 258.74 212.869 258.74C213.331 258.74 213.724 258.62 214.048 258.38C214.378 258.14 214.609 257.804 214.741 257.372L216.199 257.858C215.977 258.614 215.572 259.196 214.984 259.604C214.396 260.012 213.679 260.216 212.833 260.216ZM218.593 260V250.802H220.159V252.008C220.369 251.54 220.657 251.186 221.023 250.946C221.395 250.706 221.833 250.586 222.337 250.586C222.895 250.586 223.369 250.742 223.759 251.054L223.525 252.53C223.327 252.392 223.12 252.293 222.904 252.233C222.694 252.167 222.463 252.134 222.211 252.134C221.797 252.134 221.437 252.245 221.131 252.467C220.825 252.689 220.585 253.001 220.411 253.403C220.243 253.805 220.159 254.276 220.159 254.816V260H218.593ZM228.678 260.216C227.838 260.216 227.112 260.009 226.5 259.595C225.888 259.181 225.417 258.611 225.087 257.885C224.757 257.159 224.592 256.328 224.592 255.392C224.592 254.378 224.763 253.514 225.105 252.8C225.447 252.08 225.924 251.531 226.536 251.153C227.148 250.775 227.862 250.586 228.678 250.586C229.368 250.586 230.001 250.742 230.577 251.054C231.153 251.36 231.612 251.837 231.954 252.485C232.302 253.127 232.476 253.952 232.476 254.96C232.476 255.104 232.47 255.272 232.458 255.464C232.452 255.65 232.44 255.842 232.422 256.04H226.194C226.254 256.598 226.392 257.087 226.608 257.507C226.824 257.927 227.109 258.257 227.463 258.497C227.817 258.731 228.234 258.848 228.714 258.848C229.104 258.848 229.464 258.779 229.794 258.641C230.13 258.503 230.442 258.29 230.73 258.002L231.648 259.028C231.306 259.37 230.88 259.655 230.37 259.883C229.866 260.105 229.302 260.216 228.678 260.216ZM226.176 254.672H230.892C230.892 254.15 230.805 253.685 230.631 253.277C230.463 252.863 230.214 252.539 229.884 252.305C229.554 252.071 229.152 251.954 228.678 251.954C228.012 251.954 227.439 252.17 226.959 252.602C226.485 253.034 226.224 253.724 226.176 254.672ZM237.393 260.216C236.397 260.216 235.614 259.94 235.044 259.388C234.474 258.836 234.189 258.08 234.189 257.12C234.189 256.502 234.33 255.965 234.612 255.509C234.894 255.053 235.293 254.702 235.809 254.456C236.325 254.204 236.931 254.078 237.627 254.078C238.077 254.078 238.497 254.129 238.887 254.231C239.283 254.327 239.655 254.474 240.003 254.672V254.024C240.003 253.31 239.841 252.788 239.517 252.458C239.193 252.122 238.689 251.954 238.005 251.954C237.567 251.954 237.111 252.035 236.637 252.197C236.169 252.359 235.731 252.584 235.323 252.872L234.873 251.558C235.335 251.252 235.86 251.015 236.448 250.847C237.042 250.673 237.627 250.586 238.203 250.586C239.295 250.586 240.114 250.865 240.66 251.423C241.206 251.975 241.479 252.8 241.479 253.898V260H240.003V259.154C239.643 259.496 239.238 259.76 238.788 259.946C238.338 260.126 237.873 260.216 237.393 260.216ZM237.627 258.848C238.053 258.848 238.473 258.743 238.887 258.533C239.307 258.323 239.679 258.026 240.003 257.642V256.058C239.697 255.866 239.349 255.716 238.959 255.608C238.569 255.5 238.197 255.446 237.843 255.446C237.171 255.446 236.64 255.599 236.25 255.905C235.86 256.205 235.665 256.616 235.665 257.138C235.665 257.666 235.839 258.083 236.187 258.389C236.535 258.695 237.015 258.848 237.627 258.848ZM246.922 260.216C246.274 260.216 245.65 260.078 245.05 259.802C244.456 259.52 243.97 259.142 243.592 258.668L244.708 257.714C245.032 258.062 245.392 258.332 245.788 258.524C246.184 258.716 246.574 258.812 246.958 258.812C247.498 258.812 247.918 258.71 248.218 258.506C248.518 258.296 248.668 258.008 248.668 257.642C248.668 257.402 248.599 257.186 248.461 256.994C248.329 256.802 248.107 256.619 247.795 256.445C247.489 256.271 247.078 256.088 246.562 255.896C245.548 255.518 244.819 255.107 244.375 254.663C243.937 254.219 243.718 253.67 243.718 253.016C243.718 252.296 244.003 251.711 244.573 251.261C245.149 250.811 245.896 250.586 246.814 250.586C247.444 250.586 248.023 250.706 248.551 250.946C249.079 251.18 249.532 251.522 249.91 251.972L248.83 252.872C248.278 252.284 247.6 251.99 246.796 251.99C246.322 251.99 245.947 252.083 245.671 252.269C245.401 252.449 245.266 252.698 245.266 253.016C245.266 253.322 245.419 253.592 245.725 253.826C246.037 254.054 246.598 254.318 247.408 254.618C248.068 254.858 248.602 255.119 249.01 255.401C249.424 255.683 249.724 256.004 249.91 256.364C250.102 256.724 250.198 257.138 250.198 257.606C250.198 258.416 249.907 259.055 249.325 259.523C248.743 259.985 247.942 260.216 246.922 260.216ZM256.012 260.216C255.172 260.216 254.446 260.009 253.834 259.595C253.222 259.181 252.751 258.611 252.421 257.885C252.091 257.159 251.926 256.328 251.926 255.392C251.926 254.378 252.097 253.514 252.439 252.8C252.781 252.08 253.258 251.531 253.87 251.153C254.482 250.775 255.196 250.586 256.012 250.586C256.702 250.586 257.335 250.742 257.911 251.054C258.487 251.36 258.946 251.837 259.288 252.485C259.636 253.127 259.81 253.952 259.81 254.96C259.81 255.104 259.804 255.272 259.792 255.464C259.786 255.65 259.774 255.842 259.756 256.04H253.528C253.588 256.598 253.726 257.087 253.942 257.507C254.158 257.927 254.443 258.257 254.797 258.497C255.151 258.731 255.568 258.848 256.048 258.848C256.438 258.848 256.798 258.779 257.128 258.641C257.464 258.503 257.776 258.29 258.064 258.002L258.982 259.028C258.64 259.37 258.214 259.655 257.704 259.883C257.2 260.105 256.636 260.216 256.012 260.216ZM253.51 254.672H258.226C258.226 254.15 258.139 253.685 257.965 253.277C257.797 252.863 257.548 252.539 257.218 252.305C256.888 252.071 256.486 251.954 256.012 251.954C255.346 251.954 254.773 252.17 254.293 252.602C253.819 253.034 253.558 253.724 253.51 254.672ZM123.139 283L119.773 273.802H121.357L123.535 279.94C123.589 280.09 123.64 280.237 123.688 280.381C123.736 280.525 123.781 280.678 123.823 280.84C123.871 280.678 123.916 280.525 123.958 280.381C124.006 280.237 124.057 280.09 124.111 279.94L126.253 273.802H127.819L124.453 283H123.139ZM129.911 283V273.802H131.477V283H129.911ZM130.685 272.128C130.415 272.128 130.184 272.035 129.992 271.849C129.806 271.657 129.713 271.426 129.713 271.156C129.713 270.874 129.806 270.637 129.992 270.445C130.184 270.247 130.415 270.148 130.685 270.148C130.967 270.148 131.201 270.247 131.387 270.445C131.579 270.637 131.675 270.874 131.675 271.156C131.675 271.426 131.579 271.657 131.387 271.849C131.201 272.035 130.967 272.128 130.685 272.128ZM137.182 283.216C136.534 283.216 135.91 283.078 135.31 282.802C134.716 282.52 134.23 282.142 133.852 281.668L134.968 280.714C135.292 281.062 135.652 281.332 136.048 281.524C136.444 281.716 136.834 281.812 137.218 281.812C137.758 281.812 138.178 281.71 138.478 281.506C138.778 281.296 138.928 281.008 138.928 280.642C138.928 280.402 138.859 280.186 138.721 279.994C138.589 279.802 138.367 279.619 138.055 279.445C137.749 279.271 137.338 279.088 136.822 278.896C135.808 278.518 135.079 278.107 134.635 277.663C134.197 277.219 133.978 276.67 133.978 276.016C133.978 275.296 134.263 274.711 134.833 274.261C135.409 273.811 136.156 273.586 137.074 273.586C137.704 273.586 138.283 273.706 138.811 273.946C139.339 274.18 139.792 274.522 140.17 274.972L139.09 275.872C138.538 275.284 137.86 274.99 137.056 274.99C136.582 274.99 136.207 275.083 135.931 275.269C135.661 275.449 135.526 275.698 135.526 276.016C135.526 276.322 135.679 276.592 135.985 276.826C136.297 277.054 136.858 277.318 137.668 277.618C138.328 277.858 138.862 278.119 139.27 278.401C139.684 278.683 139.984 279.004 140.17 279.364C140.362 279.724 140.458 280.138 140.458 280.606C140.458 281.416 140.167 282.055 139.585 282.523C139.003 282.985 138.202 283.216 137.182 283.216ZM142.919 283V273.802H144.485V283H142.919ZM143.693 272.128C143.423 272.128 143.192 272.035 143 271.849C142.814 271.657 142.721 271.426 142.721 271.156C142.721 270.874 142.814 270.637 143 270.445C143.192 270.247 143.423 270.148 143.693 270.148C143.975 270.148 144.209 270.247 144.395 270.445C144.587 270.637 144.683 270.874 144.683 271.156C144.683 271.426 144.587 271.657 144.395 271.849C144.209 272.035 143.975 272.128 143.693 272.128ZM150.028 283.216C149.398 283.216 148.915 283.027 148.579 282.649C148.249 282.271 148.084 281.728 148.084 281.02V275.17H146.59V273.802H148.084V270.76L149.65 270.004V273.802H151.918V275.17H149.65V280.498C149.65 280.936 149.725 281.257 149.875 281.461C150.031 281.659 150.274 281.758 150.604 281.758C151.024 281.758 151.48 281.596 151.972 281.272L151.792 282.802C151.522 282.946 151.24 283.051 150.946 283.117C150.658 283.183 150.352 283.216 150.028 283.216ZM157.626 283.216C156.366 283.216 155.373 282.787 154.647 281.929C153.921 281.065 153.558 279.892 153.558 278.41C153.558 277.42 153.723 276.565 154.053 275.845C154.383 275.125 154.851 274.57 155.457 274.18C156.069 273.784 156.792 273.586 157.626 273.586C158.466 273.586 159.189 273.781 159.795 274.171C160.407 274.555 160.875 275.107 161.199 275.827C161.529 276.547 161.694 277.402 161.694 278.392C161.694 279.382 161.529 280.24 161.199 280.966C160.869 281.686 160.398 282.241 159.786 282.631C159.18 283.021 158.46 283.216 157.626 283.216ZM157.626 281.758C158.4 281.758 159.006 281.461 159.444 280.867C159.888 280.267 160.11 279.442 160.11 278.392C160.11 277.336 159.888 276.511 159.444 275.917C159.006 275.323 158.4 275.026 157.626 275.026C156.846 275.026 156.237 275.323 155.799 275.917C155.361 276.505 155.142 277.336 155.142 278.41C155.142 279.46 155.361 280.282 155.799 280.876C156.237 281.464 156.846 281.758 157.626 281.758ZM164.048 283V273.802H165.614V275.008C165.824 274.54 166.112 274.186 166.478 273.946C166.85 273.706 167.288 273.586 167.792 273.586C168.35 273.586 168.824 273.742 169.214 274.054L168.98 275.53C168.782 275.392 168.575 275.293 168.359 275.233C168.149 275.167 167.918 275.134 167.666 275.134C167.252 275.134 166.892 275.245 166.586 275.467C166.28 275.689 166.04 276.001 165.866 276.403C165.698 276.805 165.614 277.276 165.614 277.816V283H164.048ZM173.586 283.216C172.938 283.216 172.314 283.078 171.714 282.802C171.12 282.52 170.634 282.142 170.256 281.668L171.372 280.714C171.696 281.062 172.056 281.332 172.452 281.524C172.848 281.716 173.238 281.812 173.622 281.812C174.162 281.812 174.582 281.71 174.882 281.506C175.182 281.296 175.332 281.008 175.332 280.642C175.332 280.402 175.263 280.186 175.125 279.994C174.993 279.802 174.771 279.619 174.459 279.445C174.153 279.271 173.742 279.088 173.226 278.896C172.212 278.518 171.483 278.107 171.039 277.663C170.601 277.219 170.382 276.67 170.382 276.016C170.382 275.296 170.667 274.711 171.237 274.261C171.813 273.811 172.56 273.586 173.478 273.586C174.108 273.586 174.687 273.706 175.215 273.946C175.743 274.18 176.196 274.522 176.574 274.972L175.494 275.872C174.942 275.284 174.264 274.99 173.46 274.99C172.986 274.99 172.611 275.083 172.335 275.269C172.065 275.449 171.93 275.698 171.93 276.016C171.93 276.322 172.083 276.592 172.389 276.826C172.701 277.054 173.262 277.318 174.072 277.618C174.732 277.858 175.266 278.119 175.674 278.401C176.088 278.683 176.388 279.004 176.574 279.364C176.766 279.724 176.862 280.138 176.862 280.606C176.862 281.416 176.571 282.055 175.989 282.523C175.407 282.985 174.606 283.216 173.586 283.216Z" fill="white"/>
<defs>
<filter id="filter0_d_39_101" x="0" y="0" width="293" height="348" filterUnits="userSpaceOnUse" color-interpolation-filters="sRGB">
<feFlood flood-opacity="0" result="BackgroundImageFix"/>
<feColorMatrix in="SourceAlpha" type="matrix" values="0 0 0 0 0 0 0 0 0 0 0 0 0 0 0 0 0 0 127 0" result="hardAlpha"/>
<feOffset dx="-2" dy="6"/>
<feGaussianBlur stdDeviation="2"/>
<feComposite in2="hardAlpha" operator="out"/>
<feColorMatrix type="matrix" values="0 0 0 0 0 0 0 0 0 0 0 0 0 0 0 0 0 0 0.25 0"/>
<feBlend mode="normal" in2="BackgroundImageFix" result="effect1_dropShadow_39_101"/>
<feBlend mode="normal" in="SourceGraphic" in2="effect1_dropShadow_39_101" result="shape"/>
</filter>
<linearGradient id="paint0_linear_39_101" x1="149.5" y1="27" x2="149.5" y2="57" gradientUnits="userSpaceOnUse">
<stop stop-color="#DA210F"/>
<stop offset="1" stop-color="#FEC600"/>
</linearGradient>
</defs>
</svg>
