<svg width="219" height="244" viewBox="0 0 219 244" fill="none" xmlns="http://www.w3.org/2000/svg">
<rect y="69" width="219" height="175" rx="10" fill="#0D0D16"/>
<path d="M58.98 40V12.865H50.16V8.5H72.3675V12.865H63.525V40H58.98ZM83.2789 40.54C81.1339 40.54 79.2814 40.03 77.7214 39.01C76.1764 37.99 74.9839 36.5725 74.1439 34.7575C73.3189 32.9425 72.9064 30.85 72.9064 28.48C72.9064 25.96 73.3339 23.8075 74.1889 22.0225C75.0589 20.2225 76.2664 18.85 77.8114 17.905C79.3714 16.945 81.1939 16.465 83.2789 16.465C85.0489 16.465 86.6614 16.855 88.1164 17.635C89.5864 18.4 90.7564 19.5925 91.6264 21.2125C92.5114 22.8175 92.9539 24.88 92.9539 27.4C92.9539 27.76 92.9389 28.195 92.9089 28.705C92.8939 29.2 92.8564 29.71 92.7964 30.235H77.4289C77.5489 31.51 77.8564 32.635 78.3514 33.61C78.8614 34.57 79.5364 35.32 80.3764 35.86C81.2164 36.4 82.2064 36.67 83.3464 36.67C84.3514 36.67 85.2664 36.4975 86.0914 36.1525C86.9164 35.7925 87.6889 35.2375 88.4089 34.4875L91.0189 37.3C90.1189 38.245 89.0164 39.025 87.7114 39.64C86.4064 40.24 84.9289 40.54 83.2789 40.54ZM77.4064 26.5H88.4989C88.4689 25.285 88.2439 24.22 87.8239 23.305C87.4189 22.375 86.8264 21.6475 86.0464 21.1225C85.2814 20.5975 84.3439 20.335 83.2339 20.335C81.6889 20.335 80.3614 20.83 79.2514 21.82C78.1414 22.81 77.5264 24.37 77.4064 26.5ZM105.218 40.54C102.713 40.54 100.741 39.8575 99.3007 38.4925C97.8757 37.1125 97.1632 35.2375 97.1632 32.8675C97.1632 31.3375 97.5232 30.0025 98.2432 28.8625C98.9632 27.7225 99.9757 26.845 101.281 26.23C102.601 25.6 104.146 25.285 105.916 25.285C106.996 25.285 108.016 25.3975 108.976 25.6225C109.951 25.8475 110.843 26.185 111.653 26.635V25.0825C111.653 23.4625 111.263 22.27 110.483 21.505C109.703 20.725 108.511 20.335 106.906 20.335C105.796 20.335 104.648 20.5375 103.463 20.9425C102.293 21.3475 101.161 21.9175 100.066 22.6525L98.7607 18.985C99.9757 18.19 101.341 17.575 102.856 17.14C104.386 16.69 105.908 16.465 107.423 16.465C110.273 16.465 112.403 17.17 113.813 18.58C115.238 19.99 115.951 22.0975 115.951 24.9025V40H111.653V37.975C110.798 38.8 109.816 39.4375 108.706 39.8875C107.596 40.3225 106.433 40.54 105.218 40.54ZM106.028 36.67C107.048 36.67 108.046 36.4375 109.021 35.9725C110.011 35.4925 110.888 34.825 111.653 33.97V30.415C110.933 29.995 110.116 29.665 109.201 29.425C108.286 29.185 107.408 29.065 106.568 29.065C104.978 29.065 103.726 29.41 102.811 30.1C101.896 30.775 101.438 31.705 101.438 32.89C101.438 34.06 101.843 34.9825 102.653 35.6575C103.463 36.3325 104.588 36.67 106.028 36.67ZM123.123 40V17.005H127.6V19.165C128.29 18.265 129.13 17.59 130.12 17.14C131.125 16.69 132.25 16.465 133.495 16.465C134.845 16.465 136.045 16.7575 137.095 17.3425C138.145 17.9125 138.955 18.73 139.525 19.795C140.26 18.73 141.213 17.9125 142.383 17.3425C143.553 16.7575 144.865 16.465 146.32 16.465C148.9 16.465 150.918 17.23 152.373 18.76C153.828 20.275 154.555 22.39 154.555 25.105V40H150.078V26.5C150.078 24.58 149.703 23.125 148.953 22.135C148.218 21.145 147.138 20.65 145.713 20.65C144.753 20.65 143.92 20.89 143.215 21.37C142.525 21.835 141.993 22.5175 141.618 23.4175C141.243 24.3025 141.055 25.3525 141.055 26.5675V40H136.578V26.5C136.578 24.55 136.218 23.0875 135.498 22.1125C134.778 21.1375 133.69 20.65 132.235 20.65C130.765 20.65 129.625 21.1525 128.815 22.1575C128.005 23.1625 127.6 24.5875 127.6 26.4325V40H123.123Z" fill="white"/>
<path d="M40.5334 107H37.6214L44.1644 88.8182H47.3338L53.8768 107H50.9648L45.8246 92.1207H45.6825L40.5334 107ZM41.0217 99.88H50.4677V102.188H41.0217V99.88ZM56.2583 112.114C55.8617 112.114 55.5007 112.081 55.1752 112.016C54.8496 111.957 54.607 111.892 54.4472 111.821L55.0864 109.646C55.5717 109.776 56.0038 109.832 56.3825 109.814C56.7613 109.797 57.0957 109.654 57.3857 109.388C57.6817 109.122 57.9421 108.687 58.167 108.083L58.4955 107.178L53.5061 93.3636H56.347L59.8005 103.946H59.9426L63.396 93.3636H66.2458L60.6262 108.82C60.3657 109.53 60.0343 110.131 59.6318 110.622C59.2294 111.119 58.75 111.492 58.1936 111.741C57.6373 111.989 56.9922 112.114 56.2583 112.114ZM77.3786 101.345V93.3636H80.042V107H77.4319V104.638H77.2899C76.9762 105.366 76.4731 105.973 75.7806 106.458C75.0941 106.938 74.2388 107.178 73.2149 107.178C72.339 107.178 71.5637 106.985 70.8889 106.6C70.2201 106.21 69.6934 105.633 69.3087 104.869C68.9299 104.106 68.7405 103.162 68.7405 102.037V93.3636H71.395V101.718C71.395 102.647 71.6524 103.387 72.1673 103.937C72.6823 104.488 73.3511 104.763 74.1737 104.763C74.6709 104.763 75.1651 104.638 75.6563 104.39C76.1535 104.141 76.5648 103.766 76.8904 103.262C77.2218 102.759 77.3846 102.12 77.3786 101.345ZM93.8271 96.6928L91.4212 97.119C91.3205 96.8112 91.1607 96.5182 90.9418 96.2401C90.7287 95.9619 90.4387 95.734 90.0717 95.5565C89.7048 95.3789 89.2461 95.2901 88.6957 95.2901C87.944 95.2901 87.3166 95.4588 86.8136 95.7962C86.3105 96.1276 86.0589 96.5567 86.0589 97.0835C86.0589 97.5392 86.2276 97.9061 86.565 98.1843C86.9023 98.4625 87.4469 98.6903 88.1985 98.8679L90.3647 99.3651C91.6194 99.6551 92.5546 100.102 93.1701 100.706C93.7856 101.309 94.0934 102.094 94.0934 103.058C94.0934 103.875 93.8567 104.603 93.3832 105.242C92.9156 105.875 92.2616 106.373 91.4212 106.734C90.5866 107.095 89.619 107.275 88.5181 107.275C86.9911 107.275 85.7453 106.95 84.7805 106.299C83.8158 105.642 83.224 104.71 83.005 103.502L85.5707 103.112C85.7305 103.78 86.0589 104.286 86.5561 104.63C87.0533 104.967 87.7013 105.136 88.5004 105.136C89.3704 105.136 90.0658 104.955 90.5866 104.594C91.1075 104.227 91.3679 103.78 91.3679 103.254C91.3679 102.827 91.2081 102.469 90.8885 102.179C90.5748 101.889 90.0924 101.67 89.4414 101.522L87.1332 101.016C85.8607 100.726 84.9196 100.265 84.31 99.6314C83.7063 98.9981 83.4045 98.1961 83.4045 97.2255C83.4045 96.4206 83.6294 95.7163 84.0792 95.1126C84.529 94.5089 85.1504 94.0384 85.9435 93.701C86.7366 93.3577 87.6451 93.1861 88.669 93.1861C90.1428 93.1861 91.3028 93.5057 92.1491 94.1449C92.9955 94.7782 93.5548 95.6275 93.8271 96.6928ZM99.6665 98.9034V107H97.012V88.8182H99.6309V95.5831H99.7996C100.119 94.8492 100.608 94.2662 101.264 93.8342C101.921 93.4021 102.78 93.1861 103.839 93.1861C104.774 93.1861 105.591 93.3784 106.289 93.7631C106.994 94.1478 107.538 94.7219 107.923 95.4854C108.313 96.243 108.509 97.19 108.509 98.3263V107H105.854V98.646C105.854 97.6457 105.597 96.8704 105.082 96.32C104.567 95.7636 103.851 95.4854 102.934 95.4854C102.306 95.4854 101.744 95.6186 101.247 95.8849C100.755 96.1513 100.368 96.5419 100.084 97.0568C99.8055 97.5658 99.6665 98.1813 99.6665 98.9034ZM128.886 96.6928L126.48 97.119C126.379 96.8112 126.219 96.5182 126 96.2401C125.787 95.9619 125.497 95.734 125.13 95.5565C124.763 95.3789 124.305 95.2901 123.754 95.2901C123.003 95.2901 122.375 95.4588 121.872 95.7962C121.369 96.1276 121.118 96.5567 121.118 97.0835C121.118 97.5392 121.286 97.9061 121.624 98.1843C121.961 98.4625 122.505 98.6903 123.257 98.8679L125.423 99.3651C126.678 99.6551 127.613 100.102 128.229 100.706C128.844 101.309 129.152 102.094 129.152 103.058C129.152 103.875 128.915 104.603 128.442 105.242C127.974 105.875 127.32 106.373 126.48 106.734C125.645 107.095 124.678 107.275 123.577 107.275C122.05 107.275 120.804 106.95 119.839 106.299C118.874 105.642 118.283 104.71 118.064 103.502L120.629 103.112C120.789 103.78 121.118 104.286 121.615 104.63C122.112 104.967 122.76 105.136 123.559 105.136C124.429 105.136 125.124 104.955 125.645 104.594C126.166 104.227 126.426 103.78 126.426 103.254C126.426 102.827 126.267 102.469 125.947 102.179C125.633 101.889 125.151 101.67 124.5 101.522L122.192 101.016C120.919 100.726 119.978 100.265 119.369 99.6314C118.765 98.9981 118.463 98.1961 118.463 97.2255C118.463 96.4206 118.688 95.7163 119.138 95.1126C119.588 94.5089 120.209 94.0384 121.002 93.701C121.795 93.3577 122.704 93.1861 123.728 93.1861C125.201 93.1861 126.361 93.5057 127.208 94.1449C128.054 94.7782 128.613 95.6275 128.886 96.6928ZM132.071 107V93.3636H134.725V107H132.071ZM133.411 91.2596C132.949 91.2596 132.553 91.1057 132.222 90.7979C131.896 90.4843 131.733 90.1114 131.733 89.6793C131.733 89.2414 131.896 88.8685 132.222 88.5607C132.553 88.247 132.949 88.0902 133.411 88.0902C133.873 88.0902 134.266 88.247 134.592 88.5607C134.923 88.8685 135.089 89.2414 135.089 89.6793C135.089 90.1114 134.923 90.4843 134.592 90.7979C134.266 91.1057 133.873 91.2596 133.411 91.2596ZM140.951 98.9034V107H138.296V93.3636H140.844V95.5831H141.013C141.326 94.861 141.818 94.281 142.487 93.843C143.161 93.4051 144.011 93.1861 145.034 93.1861C145.964 93.1861 146.777 93.3814 147.476 93.772C148.174 94.1567 148.716 94.7308 149.1 95.4943C149.485 96.2578 149.678 97.2018 149.678 98.3263V107H147.023V98.646C147.023 97.6576 146.766 96.8852 146.251 96.3288C145.736 95.7666 145.029 95.4854 144.129 95.4854C143.513 95.4854 142.966 95.6186 142.487 95.8849C142.013 96.1513 141.637 96.5419 141.359 97.0568C141.087 97.5658 140.951 98.1813 140.951 98.9034ZM158.955 112.398C157.872 112.398 156.94 112.256 156.158 111.972C155.383 111.688 154.75 111.312 154.259 110.844C153.767 110.377 153.4 109.865 153.158 109.308L155.439 108.367C155.599 108.628 155.812 108.903 156.078 109.193C156.351 109.489 156.718 109.74 157.179 109.947C157.647 110.155 158.248 110.258 158.982 110.258C159.988 110.258 160.819 110.013 161.476 109.521C162.133 109.036 162.462 108.261 162.462 107.195V104.514H162.293C162.133 104.804 161.902 105.127 161.6 105.482C161.305 105.837 160.896 106.145 160.375 106.405C159.855 106.666 159.177 106.796 158.342 106.796C157.265 106.796 156.295 106.544 155.43 106.041C154.572 105.532 153.892 104.783 153.388 103.795C152.891 102.801 152.643 101.579 152.643 100.129C152.643 98.6785 152.888 97.4356 153.38 96.3999C153.877 95.3641 154.557 94.571 155.422 94.0206C156.286 93.4643 157.265 93.1861 158.36 93.1861C159.206 93.1861 159.89 93.3281 160.411 93.6122C160.932 93.8904 161.337 94.2159 161.627 94.5888C161.923 94.9616 162.151 95.2901 162.311 95.5742H162.506V93.3636H165.107V107.302C165.107 108.474 164.835 109.435 164.29 110.187C163.746 110.939 163.009 111.495 162.08 111.856C161.157 112.217 160.115 112.398 158.955 112.398ZM158.928 104.594C159.692 104.594 160.337 104.417 160.864 104.061C161.396 103.7 161.799 103.185 162.071 102.517C162.349 101.842 162.488 101.034 162.488 100.093C162.488 99.1757 162.352 98.3678 162.08 97.6694C161.808 96.971 161.408 96.4265 160.881 96.0359C160.355 95.6393 159.704 95.4411 158.928 95.4411C158.129 95.4411 157.463 95.6482 156.931 96.0625C156.398 96.4709 155.996 97.0272 155.723 97.7315C155.457 98.4358 155.324 99.223 155.324 100.093C155.324 100.987 155.46 101.771 155.732 102.446C156.004 103.12 156.407 103.647 156.94 104.026C157.478 104.405 158.141 104.594 158.928 104.594ZM171.322 98.9034V107H168.667V88.8182H171.286V95.5831H171.455C171.775 94.8492 172.263 94.2662 172.92 93.8342C173.577 93.4021 174.435 93.1861 175.494 93.1861C176.429 93.1861 177.246 93.3784 177.945 93.7631C178.649 94.1478 179.193 94.7219 179.578 95.4854C179.969 96.243 180.164 97.19 180.164 98.3263V107H177.51V98.646C177.51 97.6457 177.252 96.8704 176.737 96.32C176.222 95.7636 175.506 95.4854 174.589 95.4854C173.961 95.4854 173.399 95.6186 172.902 95.8849C172.411 96.1513 172.023 96.5419 171.739 97.0568C171.461 97.5658 171.322 98.1813 171.322 98.9034Z" fill="url(#paint0_linear_39_103)"/>
<path d="M54.8835 146H48.9975V127.818H55.07C56.8514 127.818 58.3814 128.182 59.6598 128.91C60.9382 129.632 61.9177 130.671 62.5984 132.026C63.2849 133.376 63.6282 134.994 63.6282 136.882C63.6282 138.776 63.282 140.404 62.5895 141.765C61.9029 143.127 60.9086 144.174 59.6065 144.908C58.3045 145.636 56.7301 146 54.8835 146ZM51.7408 143.603H54.7326C56.1175 143.603 57.2687 143.343 58.1861 142.822C59.1035 142.295 59.79 141.534 60.2457 140.54C60.7015 139.54 60.9293 138.321 60.9293 136.882C60.9293 135.456 60.7015 134.246 60.2457 133.251C59.7959 132.257 59.1242 131.502 58.2305 130.988C57.3368 130.473 56.227 130.215 54.9013 130.215H51.7408V143.603ZM66.8264 146V132.364H69.4809V146H66.8264ZM68.167 130.26C67.7053 130.26 67.3088 130.106 66.9774 129.798C66.6518 129.484 66.4891 129.111 66.4891 128.679C66.4891 128.241 66.6518 127.868 66.9774 127.561C67.3088 127.247 67.7053 127.09 68.167 127.09C68.6286 127.09 69.0222 127.247 69.3477 127.561C69.6792 127.868 69.8449 128.241 69.8449 128.679C69.8449 129.111 69.6792 129.484 69.3477 129.798C69.0222 130.106 68.6286 130.26 68.167 130.26ZM84.7175 132.364L79.7725 146H76.9316L71.9778 132.364H74.8276L78.2811 142.857H78.4231L81.8677 132.364H84.7175ZM88.8901 151.114C88.4935 151.114 88.1325 151.081 87.807 151.016C87.4815 150.957 87.2388 150.892 87.079 150.821L87.7182 148.646C88.2035 148.776 88.6356 148.832 89.0144 148.814C89.3932 148.797 89.7276 148.654 90.0176 148.388C90.3135 148.122 90.5739 147.687 90.7988 147.083L91.1273 146.178L86.138 132.364H88.9789L92.4324 142.946H92.5744L96.0279 132.364H98.8777L93.258 147.82C92.9976 148.53 92.6661 149.131 92.2637 149.622C91.8612 150.119 91.3818 150.492 90.8255 150.741C90.2691 150.989 89.624 151.114 88.8901 151.114ZM104.95 146.302C104.086 146.302 103.305 146.142 102.606 145.822C101.908 145.497 101.355 145.026 100.946 144.411C100.544 143.795 100.343 143.041 100.343 142.147C100.343 141.378 100.49 140.744 100.786 140.247C101.082 139.75 101.482 139.356 101.985 139.066C102.488 138.776 103.05 138.557 103.672 138.409C104.293 138.261 104.926 138.149 105.572 138.072C106.388 137.977 107.051 137.9 107.56 137.841C108.069 137.776 108.439 137.673 108.67 137.531C108.901 137.388 109.016 137.158 109.016 136.838V136.776C109.016 136.001 108.797 135.4 108.359 134.974C107.927 134.548 107.282 134.335 106.424 134.335C105.53 134.335 104.826 134.533 104.311 134.929C103.802 135.32 103.45 135.755 103.254 136.234L100.76 135.666C101.056 134.838 101.488 134.169 102.056 133.66C102.63 133.145 103.29 132.772 104.036 132.541C104.781 132.304 105.566 132.186 106.388 132.186C106.933 132.186 107.51 132.251 108.119 132.381C108.735 132.506 109.309 132.737 109.842 133.074C110.38 133.411 110.821 133.894 111.165 134.521C111.508 135.142 111.68 135.95 111.68 136.945V146H109.087V144.136H108.981C108.809 144.479 108.552 144.816 108.208 145.148C107.865 145.479 107.424 145.754 106.885 145.973C106.347 146.192 105.702 146.302 104.95 146.302ZM105.527 144.171C106.261 144.171 106.888 144.026 107.409 143.736C107.936 143.446 108.336 143.067 108.608 142.6C108.886 142.126 109.025 141.62 109.025 141.082V139.324C108.93 139.419 108.747 139.507 108.475 139.59C108.208 139.667 107.903 139.735 107.56 139.794C107.217 139.848 106.883 139.898 106.557 139.945C106.231 139.987 105.959 140.022 105.74 140.052C105.225 140.117 104.755 140.226 104.329 140.38C103.908 140.534 103.571 140.756 103.317 141.046C103.068 141.33 102.944 141.709 102.944 142.183C102.944 142.839 103.186 143.337 103.672 143.674C104.157 144.005 104.776 144.171 105.527 144.171ZM117.87 137.903V146H115.215V132.364H117.763V134.583H117.932C118.245 133.861 118.737 133.281 119.405 132.843C120.08 132.405 120.929 132.186 121.953 132.186C122.883 132.186 123.696 132.381 124.395 132.772C125.093 133.157 125.635 133.731 126.019 134.494C126.404 135.258 126.597 136.202 126.597 137.326V146H123.942V137.646C123.942 136.658 123.685 135.885 123.17 135.329C122.655 134.767 121.947 134.485 121.048 134.485C120.432 134.485 119.885 134.619 119.405 134.885C118.932 135.151 118.556 135.542 118.278 136.057C118.006 136.566 117.87 137.181 117.87 137.903ZM140.375 135.693L137.969 136.119C137.868 135.811 137.709 135.518 137.49 135.24C137.277 134.962 136.987 134.734 136.62 134.556C136.253 134.379 135.794 134.29 135.244 134.29C134.492 134.29 133.864 134.459 133.361 134.796C132.858 135.128 132.607 135.557 132.607 136.083C132.607 136.539 132.775 136.906 133.113 137.184C133.45 137.462 133.995 137.69 134.746 137.868L136.913 138.365C138.167 138.655 139.102 139.102 139.718 139.706C140.333 140.309 140.641 141.094 140.641 142.058C140.641 142.875 140.405 143.603 139.931 144.242C139.463 144.875 138.809 145.373 137.969 145.734C137.134 146.095 136.167 146.275 135.066 146.275C133.539 146.275 132.293 145.95 131.328 145.299C130.364 144.642 129.772 143.71 129.553 142.502L132.119 142.112C132.278 142.78 132.607 143.286 133.104 143.63C133.601 143.967 134.249 144.136 135.048 144.136C135.918 144.136 136.614 143.955 137.134 143.594C137.655 143.227 137.916 142.78 137.916 142.254C137.916 141.827 137.756 141.469 137.436 141.179C137.123 140.889 136.64 140.67 135.989 140.522L133.681 140.016C132.409 139.726 131.467 139.265 130.858 138.631C130.254 137.998 129.952 137.196 129.952 136.225C129.952 135.421 130.177 134.716 130.627 134.113C131.077 133.509 131.698 133.038 132.491 132.701C133.284 132.358 134.193 132.186 135.217 132.186C136.691 132.186 137.851 132.506 138.697 133.145C139.543 133.778 140.103 134.627 140.375 135.693ZM146.214 137.903V146H143.56V127.818H146.179V134.583H146.347C146.667 133.849 147.155 133.266 147.812 132.834C148.469 132.402 149.327 132.186 150.387 132.186C151.322 132.186 152.139 132.378 152.837 132.763C153.541 133.148 154.086 133.722 154.471 134.485C154.861 135.243 155.057 136.19 155.057 137.326V146H152.402V137.646C152.402 136.646 152.145 135.87 151.63 135.32C151.115 134.764 150.399 134.485 149.481 134.485C148.854 134.485 148.292 134.619 147.795 134.885C147.303 135.151 146.916 135.542 146.632 136.057C146.353 136.566 146.214 137.181 146.214 137.903ZM167.237 140.345V132.364H169.9V146H167.29V143.638H167.148C166.835 144.366 166.331 144.973 165.639 145.458C164.952 145.938 164.097 146.178 163.073 146.178C162.197 146.178 161.422 145.985 160.747 145.6C160.079 145.21 159.552 144.633 159.167 143.869C158.788 143.106 158.599 142.162 158.599 141.037V132.364H161.253V140.718C161.253 141.647 161.511 142.387 162.026 142.937C162.541 143.488 163.209 143.763 164.032 143.763C164.529 143.763 165.023 143.638 165.515 143.39C166.012 143.141 166.423 142.766 166.749 142.262C167.08 141.759 167.243 141.12 167.237 140.345Z" fill="url(#paint1_linear_39_103)"/>
<path d="M78.5334 185H75.6214L82.1644 166.818H85.3338L91.8768 185H88.9648L83.8246 170.121H83.6825L78.5334 185ZM79.0217 177.88H88.4677V180.188H79.0217V177.88ZM94.2893 185V171.364H96.8373V173.583H97.0059C97.29 172.831 97.7546 172.246 98.3998 171.825C99.0449 171.399 99.8173 171.186 100.717 171.186C101.628 171.186 102.392 171.399 103.007 171.825C103.629 172.251 104.088 172.837 104.383 173.583H104.525C104.851 172.855 105.369 172.275 106.079 171.843C106.789 171.405 107.636 171.186 108.618 171.186C109.855 171.186 110.864 171.574 111.646 172.349C112.433 173.124 112.826 174.293 112.826 175.856V185H110.172V176.104C110.172 175.181 109.92 174.512 109.417 174.098C108.914 173.684 108.313 173.477 107.615 173.477C106.751 173.477 106.079 173.743 105.6 174.276C105.12 174.802 104.881 175.48 104.881 176.309V185H102.235V175.936C102.235 175.196 102.004 174.601 101.543 174.151C101.081 173.701 100.48 173.477 99.7403 173.477C99.2372 173.477 98.7726 173.61 98.3465 173.876C97.9263 174.136 97.586 174.5 97.3256 174.968C97.0711 175.436 96.9438 175.977 96.9438 176.593V185H94.2893ZM120.352 185.302C119.488 185.302 118.707 185.142 118.009 184.822C117.31 184.497 116.757 184.026 116.349 183.411C115.946 182.795 115.745 182.041 115.745 181.147C115.745 180.378 115.893 179.744 116.189 179.247C116.485 178.75 116.884 178.356 117.387 178.066C117.89 177.776 118.453 177.557 119.074 177.409C119.695 177.261 120.329 177.149 120.974 177.072C121.791 176.977 122.454 176.9 122.963 176.841C123.472 176.776 123.841 176.673 124.072 176.531C124.303 176.388 124.419 176.158 124.419 175.838V175.776C124.419 175.001 124.2 174.4 123.762 173.974C123.329 173.548 122.684 173.335 121.826 173.335C120.932 173.335 120.228 173.533 119.713 173.929C119.204 174.32 118.852 174.755 118.657 175.234L116.162 174.666C116.458 173.838 116.89 173.169 117.458 172.66C118.032 172.145 118.692 171.772 119.438 171.541C120.184 171.304 120.968 171.186 121.791 171.186C122.335 171.186 122.912 171.251 123.522 171.381C124.137 171.506 124.711 171.737 125.244 172.074C125.783 172.411 126.224 172.894 126.567 173.521C126.91 174.142 127.082 174.95 127.082 175.945V185H124.49V183.136H124.383C124.211 183.479 123.954 183.816 123.611 184.148C123.267 184.479 122.826 184.754 122.288 184.973C121.749 185.192 121.104 185.302 120.352 185.302ZM120.93 183.171C121.663 183.171 122.291 183.026 122.812 182.736C123.338 182.446 123.738 182.067 124.01 181.6C124.288 181.126 124.427 180.62 124.427 180.082V178.324C124.333 178.419 124.149 178.507 123.877 178.59C123.611 178.667 123.306 178.735 122.963 178.794C122.619 178.848 122.285 178.898 121.959 178.945C121.634 178.987 121.362 179.022 121.143 179.052C120.628 179.117 120.157 179.226 119.731 179.38C119.311 179.534 118.973 179.756 118.719 180.046C118.47 180.33 118.346 180.709 118.346 181.183C118.346 181.839 118.589 182.337 119.074 182.674C119.559 183.005 120.178 183.171 120.93 183.171ZM133.272 176.903V185H130.617V171.364H133.165V173.583H133.334C133.648 172.861 134.139 172.281 134.808 171.843C135.483 171.405 136.332 171.186 137.356 171.186C138.285 171.186 139.099 171.381 139.797 171.772C140.496 172.157 141.037 172.731 141.422 173.494C141.806 174.258 141.999 175.202 141.999 176.326V185H139.344V176.646C139.344 175.658 139.087 174.885 138.572 174.329C138.057 173.767 137.35 173.485 136.45 173.485C135.835 173.485 135.287 173.619 134.808 173.885C134.334 174.151 133.958 174.542 133.68 175.057C133.408 175.566 133.272 176.181 133.272 176.903Z" fill="url(#paint2_linear_39_103)"/>
<path d="M59.5334 224H56.6214L63.1644 205.818H66.3338L72.8768 224H69.9648L64.8246 209.121H64.6825L59.5334 224ZM60.0217 216.88H69.4677V219.188H60.0217V216.88ZM77.9438 215.903V224H75.2893V210.364H77.8373V212.583H78.0059C78.3196 211.861 78.8109 211.281 79.4797 210.843C80.1544 210.405 81.0037 210.186 82.0276 210.186C82.9568 210.186 83.7706 210.381 84.469 210.772C85.1674 211.157 85.709 211.731 86.0937 212.494C86.4784 213.258 86.6707 214.202 86.6707 215.326V224H84.0162V215.646C84.0162 214.658 83.7588 213.885 83.2439 213.329C82.729 212.767 82.0217 212.485 81.1221 212.485C80.5065 212.485 79.9591 212.619 79.4797 212.885C79.0062 213.151 78.6304 213.542 78.3522 214.057C78.0799 214.566 77.9438 215.181 77.9438 215.903ZM98.8689 218.345V210.364H101.532V224H98.9221V221.638H98.7801C98.4664 222.366 97.9633 222.973 97.2709 223.458C96.5843 223.938 95.7291 224.178 94.7052 224.178C93.8292 224.178 93.0539 223.985 92.3792 223.6C91.7104 223.21 91.1836 222.633 90.7989 221.869C90.4201 221.106 90.2307 220.162 90.2307 219.037V210.364H92.8852V218.718C92.8852 219.647 93.1427 220.387 93.6576 220.937C94.1725 221.488 94.8413 221.763 95.664 221.763C96.1611 221.763 96.6553 221.638 97.1466 221.39C97.6437 221.141 98.0551 220.766 98.3806 220.262C98.712 219.759 98.8748 219.12 98.8689 218.345ZM105.312 224V205.818H107.966V212.574H108.126C108.28 212.29 108.502 211.962 108.792 211.589C109.082 211.216 109.485 210.89 109.999 210.612C110.514 210.328 111.195 210.186 112.041 210.186C113.142 210.186 114.125 210.464 114.989 211.021C115.853 211.577 116.531 212.379 117.022 213.426C117.519 214.474 117.768 215.735 117.768 217.208C117.768 218.682 117.522 219.946 117.031 220.999C116.539 222.047 115.865 222.855 115.007 223.423C114.148 223.985 113.169 224.266 112.068 224.266C111.239 224.266 110.562 224.127 110.035 223.849C109.514 223.571 109.106 223.245 108.81 222.873C108.514 222.5 108.286 222.168 108.126 221.878H107.904V224H105.312ZM107.913 217.182C107.913 218.141 108.052 218.981 108.33 219.703C108.609 220.425 109.011 220.99 109.538 221.399C110.065 221.801 110.71 222.002 111.473 222.002C112.266 222.002 112.929 221.792 113.462 221.372C113.994 220.946 114.397 220.369 114.669 219.641C114.947 218.913 115.086 218.093 115.086 217.182C115.086 216.282 114.95 215.474 114.678 214.758C114.412 214.042 114.009 213.477 113.471 213.062C112.938 212.648 112.272 212.441 111.473 212.441C110.704 212.441 110.053 212.639 109.52 213.036C108.993 213.432 108.594 213.986 108.322 214.696C108.049 215.406 107.913 216.235 107.913 217.182ZM123.403 215.903V224H120.748V205.818H123.367V212.583H123.536C123.856 211.849 124.344 211.266 125.001 210.834C125.658 210.402 126.516 210.186 127.575 210.186C128.511 210.186 129.327 210.378 130.026 210.763C130.73 211.148 131.274 211.722 131.659 212.485C132.05 213.243 132.245 214.19 132.245 215.326V224H129.591V215.646C129.591 214.646 129.333 213.87 128.818 213.32C128.303 212.764 127.587 212.485 126.67 212.485C126.042 212.485 125.48 212.619 124.983 212.885C124.492 213.151 124.104 213.542 123.82 214.057C123.542 214.566 123.403 215.181 123.403 215.903ZM139.756 224.302C138.892 224.302 138.11 224.142 137.412 223.822C136.714 223.497 136.16 223.026 135.752 222.411C135.349 221.795 135.148 221.041 135.148 220.147C135.148 219.378 135.296 218.744 135.592 218.247C135.888 217.75 136.287 217.356 136.791 217.066C137.294 216.776 137.856 216.557 138.477 216.409C139.099 216.261 139.732 216.149 140.377 216.072C141.194 215.977 141.857 215.9 142.366 215.841C142.875 215.776 143.245 215.673 143.476 215.531C143.706 215.388 143.822 215.158 143.822 214.838V214.776C143.822 214.001 143.603 213.4 143.165 212.974C142.733 212.548 142.088 212.335 141.229 212.335C140.336 212.335 139.631 212.533 139.117 212.929C138.608 213.32 138.255 213.755 138.06 214.234L135.565 213.666C135.861 212.838 136.293 212.169 136.862 211.66C137.436 211.145 138.096 210.772 138.841 210.541C139.587 210.304 140.371 210.186 141.194 210.186C141.738 210.186 142.316 210.251 142.925 210.381C143.541 210.506 144.115 210.737 144.647 211.074C145.186 211.411 145.627 211.894 145.97 212.521C146.314 213.142 146.485 213.95 146.485 214.945V224H143.893V222.136H143.786C143.615 222.479 143.357 222.816 143.014 223.148C142.671 223.479 142.23 223.754 141.691 223.973C141.153 224.192 140.507 224.302 139.756 224.302ZM140.333 222.171C141.067 222.171 141.694 222.026 142.215 221.736C142.742 221.446 143.141 221.067 143.413 220.6C143.692 220.126 143.831 219.62 143.831 219.082V217.324C143.736 217.419 143.553 217.507 143.28 217.59C143.014 217.667 142.709 217.735 142.366 217.794C142.023 217.848 141.688 217.898 141.363 217.945C141.037 217.987 140.765 218.022 140.546 218.052C140.031 218.117 139.56 218.226 139.134 218.38C138.714 218.534 138.377 218.756 138.122 219.046C137.874 219.33 137.749 219.709 137.749 220.183C137.749 220.839 137.992 221.337 138.477 221.674C138.963 222.005 139.581 222.171 140.333 222.171ZM161.198 210.364L156.253 224H153.412L148.458 210.364H151.308L154.762 220.857H154.904L158.348 210.364H161.198Z" fill="url(#paint3_linear_39_103)"/>
<defs>
<linearGradient id="paint0_linear_39_103" x1="109.5" y1="83" x2="109.5" y2="113" gradientUnits="userSpaceOnUse">
<stop stop-color="#DA210F"/>
<stop offset="1" stop-color="#F6A402"/>
</linearGradient>
<linearGradient id="paint1_linear_39_103" x1="109.5" y1="122" x2="109.5" y2="152" gradientUnits="userSpaceOnUse">
<stop stop-color="#DA210F"/>
<stop offset="1" stop-color="#F6A402"/>
</linearGradient>
<linearGradient id="paint2_linear_39_103" x1="109.5" y1="161" x2="109.5" y2="191" gradientUnits="userSpaceOnUse">
<stop stop-color="#DA210F"/>
<stop offset="1" stop-color="#F6A402"/>
</linearGradient>
<linearGradient id="paint3_linear_39_103" x1="109" y1="200" x2="109" y2="230" gradientUnits="userSpaceOnUse">
<stop stop-color="#DA210F"/>
<stop offset="1" stop-color="#F6A402"/>
</linearGradient>
</defs>
</svg>
