<svg width="41" height="41" viewBox="0 0 41 41" fill="none" xmlns="http://www.w3.org/2000/svg">
<circle cx="20.5" cy="20.5" r="20.5" fill="#F6A402"/>
<path d="M26.5469 21.135C26.4741 21.0656 26.3877 21.0106 26.2927 20.9732C26.1978 20.9358 26.096 20.9167 25.9934 20.9171C25.8907 20.9174 25.7892 20.9372 25.6945 20.9752C25.5998 21.0133 25.5138 21.0688 25.4415 21.1388C25.3691 21.2087 25.3119 21.2916 25.2729 21.3828C25.234 21.474 25.2141 21.5716 25.2145 21.6702C25.2148 21.7687 25.2354 21.8662 25.275 21.9571C25.3146 22.048 25.3725 22.1306 25.4454 22.2C26.1064 22.8279 26.6312 23.5755 26.9892 24.3994C27.3473 25.2233 27.5315 26.1073 27.5313 27C27.5313 27.915 24.7891 29.25 20.5 29.25C16.211 29.25 13.4688 27.915 13.4688 27C13.4676 26.1131 13.6484 25.2347 14.0009 24.415C14.3535 23.5952 14.8709 22.8502 15.5235 22.2225C15.669 22.082 15.7507 21.8919 15.7507 21.6938C15.7507 21.4956 15.669 21.3055 15.5235 21.165C15.3771 21.0253 15.1791 20.9469 14.9727 20.9469C14.7663 20.9469 14.5683 21.0253 14.4219 21.165C13.6212 21.9294 12.9866 22.8387 12.5547 23.8404C12.1229 24.842 11.9025 25.916 11.9063 27C11.9063 29.4375 16.336 30.75 20.5 30.75C24.6641 30.75 29.0938 29.4375 29.0938 27C29.0968 25.9089 28.8731 24.8283 28.4358 23.8212C27.9985 22.8142 27.3563 21.9009 26.5469 21.135V21.135Z" fill="white"/>
<path d="M20.5 21.75C21.5816 21.75 22.6389 21.4421 23.5383 20.8652C24.4376 20.2883 25.1385 19.4684 25.5525 18.5091C25.9664 17.5498 26.0747 16.4942 25.8637 15.4758C25.6527 14.4574 25.1318 13.5219 24.367 12.7877C23.6022 12.0535 22.6277 11.5535 21.5669 11.3509C20.5061 11.1483 19.4065 11.2523 18.4072 11.6496C17.4079 12.047 16.5538 12.7199 15.9529 13.5833C15.352 14.4466 15.0312 15.4617 15.0312 16.5C15.0312 17.8924 15.6074 19.2277 16.633 20.2123C17.6586 21.1969 19.0496 21.75 20.5 21.75ZM20.5 12.75C21.2726 12.75 22.0278 12.9699 22.6702 13.382C23.3126 13.794 23.8132 14.3797 24.1089 15.0649C24.4046 15.7502 24.4819 16.5042 24.3312 17.2316C24.1805 17.959 23.8084 18.6272 23.2621 19.1517C22.7158 19.6761 22.0198 20.0333 21.2621 20.1779C20.5043 20.3226 19.7189 20.2484 19.0051 19.9646C18.2914 19.6807 17.6813 19.2001 17.2521 18.5834C16.8228 17.9667 16.5937 17.2417 16.5937 16.5C16.5937 15.5054 17.0053 14.5516 17.7379 13.8484C18.4704 13.1451 19.464 12.75 20.5 12.75V12.75Z" fill="white"/>
</svg>
