<svg width="293" height="331" viewBox="0 0 293 331" fill="none" xmlns="http://www.w3.org/2000/svg">
<g filter="url(#filter0_d_99_1946)">
<rect x="6" width="285" height="321" rx="15" fill="#11111D"/>
</g>
<path d="M87.9975 151.818H91.3267L97.1151 165.952H97.3281L103.116 151.818H106.446V170H103.836V156.843H103.667L98.3047 169.973H96.1385L90.7763 156.834H90.6076V170H87.9975V151.818ZM114.189 170.302C113.325 170.302 112.544 170.142 111.846 169.822C111.147 169.497 110.594 169.026 110.185 168.411C109.783 167.795 109.582 167.041 109.582 166.147C109.582 165.378 109.73 164.744 110.026 164.247C110.322 163.75 110.721 163.356 111.224 163.066C111.727 162.776 112.29 162.557 112.911 162.409C113.532 162.261 114.166 162.149 114.811 162.072C115.628 161.977 116.29 161.9 116.799 161.841C117.308 161.776 117.678 161.673 117.909 161.531C118.14 161.388 118.255 161.158 118.255 160.838V160.776C118.255 160.001 118.036 159.4 117.598 158.974C117.166 158.548 116.521 158.335 115.663 158.335C114.769 158.335 114.065 158.533 113.55 158.929C113.041 159.32 112.689 159.755 112.494 160.234L109.999 159.666C110.295 158.838 110.727 158.169 111.295 157.66C111.869 157.145 112.529 156.772 113.275 156.541C114.021 156.304 114.805 156.186 115.628 156.186C116.172 156.186 116.749 156.251 117.359 156.381C117.974 156.506 118.548 156.737 119.081 157.074C119.62 157.411 120.061 157.894 120.404 158.521C120.747 159.142 120.919 159.95 120.919 160.945V170H118.326V168.136H118.22C118.048 168.479 117.791 168.816 117.448 169.148C117.104 169.479 116.663 169.754 116.125 169.973C115.586 170.192 114.941 170.302 114.189 170.302ZM114.766 168.171C115.5 168.171 116.128 168.026 116.649 167.736C117.175 167.446 117.575 167.067 117.847 166.6C118.125 166.126 118.264 165.62 118.264 165.082V163.324C118.17 163.419 117.986 163.507 117.714 163.59C117.448 163.667 117.143 163.735 116.799 163.794C116.456 163.848 116.122 163.898 115.796 163.945C115.471 163.987 115.198 164.022 114.979 164.052C114.465 164.117 113.994 164.226 113.568 164.38C113.148 164.534 112.81 164.756 112.556 165.046C112.307 165.33 112.183 165.709 112.183 166.183C112.183 166.839 112.426 167.337 112.911 167.674C113.396 168.005 114.015 168.171 114.766 168.171ZM124.454 170V156.364H127.02V158.53H127.162C127.411 157.796 127.849 157.219 128.476 156.799C129.109 156.373 129.825 156.159 130.624 156.159C130.79 156.159 130.985 156.165 131.21 156.177C131.441 156.189 131.622 156.204 131.752 156.222V158.761C131.645 158.731 131.456 158.699 131.184 158.663C130.912 158.622 130.639 158.601 130.367 158.601C129.74 158.601 129.18 158.734 128.689 159C128.204 159.261 127.819 159.625 127.535 160.092C127.251 160.554 127.109 161.081 127.109 161.673V170H124.454ZM136.491 165.375L136.473 162.134H136.934L142.368 156.364H145.546L139.349 162.933H138.932L136.491 165.375ZM134.049 170V151.818H136.704V170H134.049ZM142.661 170L137.778 163.519L139.607 161.664L145.919 170H142.661ZM153.281 170.275C151.937 170.275 150.78 169.988 149.809 169.414C148.845 168.834 148.099 168.02 147.572 166.973C147.051 165.919 146.791 164.685 146.791 163.271C146.791 161.874 147.051 160.643 147.572 159.577C148.099 158.512 148.833 157.681 149.774 157.083C150.721 156.485 151.828 156.186 153.094 156.186C153.864 156.186 154.609 156.313 155.331 156.568C156.054 156.822 156.702 157.222 157.276 157.766C157.85 158.311 158.303 159.018 158.634 159.888C158.965 160.752 159.131 161.803 159.131 163.04V163.981H148.291V161.992H156.53C156.53 161.294 156.388 160.675 156.104 160.137C155.82 159.592 155.42 159.163 154.905 158.849C154.396 158.536 153.799 158.379 153.112 158.379C152.366 158.379 151.715 158.562 151.159 158.929C150.608 159.29 150.182 159.764 149.881 160.35C149.585 160.93 149.437 161.56 149.437 162.241V163.794C149.437 164.706 149.596 165.481 149.916 166.12C150.242 166.76 150.694 167.248 151.274 167.585C151.854 167.917 152.532 168.082 153.307 168.082C153.81 168.082 154.269 168.011 154.683 167.869C155.098 167.721 155.456 167.502 155.758 167.212C156.059 166.922 156.29 166.564 156.45 166.138L158.963 166.591C158.761 167.331 158.4 167.979 157.879 168.535C157.365 169.086 156.716 169.515 155.935 169.822C155.16 170.124 154.275 170.275 153.281 170.275ZM168.442 156.364V158.494H160.993V156.364H168.442ZM162.991 153.097H165.645V165.996C165.645 166.511 165.722 166.899 165.876 167.159C166.03 167.414 166.228 167.588 166.471 167.683C166.72 167.772 166.989 167.816 167.279 167.816C167.492 167.816 167.678 167.801 167.838 167.772C167.998 167.742 168.122 167.718 168.211 167.701L168.69 169.893C168.537 169.953 168.318 170.012 168.033 170.071C167.749 170.136 167.394 170.172 166.968 170.178C166.27 170.189 165.619 170.065 165.015 169.805C164.411 169.544 163.923 169.142 163.55 168.597C163.177 168.053 162.991 167.369 162.991 166.547V153.097ZM171.378 170V156.364H174.033V170H171.378ZM172.719 154.26C172.257 154.26 171.861 154.106 171.529 153.798C171.204 153.484 171.041 153.111 171.041 152.679C171.041 152.241 171.204 151.868 171.529 151.561C171.861 151.247 172.257 151.09 172.719 151.09C173.18 151.09 173.574 151.247 173.9 151.561C174.231 151.868 174.397 152.241 174.397 152.679C174.397 153.111 174.231 153.484 173.9 153.798C173.574 154.106 173.18 154.26 172.719 154.26ZM180.258 161.903V170H177.604V156.364H180.152V158.583H180.32C180.634 157.861 181.125 157.281 181.794 156.843C182.469 156.405 183.318 156.186 184.342 156.186C185.271 156.186 186.085 156.381 186.783 156.772C187.482 157.157 188.023 157.731 188.408 158.494C188.793 159.258 188.985 160.202 188.985 161.326V170H186.331V161.646C186.331 160.658 186.073 159.885 185.558 159.329C185.043 158.767 184.336 158.485 183.437 158.485C182.821 158.485 182.274 158.619 181.794 158.885C181.321 159.151 180.945 159.542 180.667 160.057C180.394 160.566 180.258 161.181 180.258 161.903ZM198.263 175.398C197.179 175.398 196.247 175.256 195.466 174.972C194.691 174.688 194.057 174.312 193.566 173.844C193.075 173.377 192.708 172.865 192.465 172.308L194.747 171.367C194.907 171.628 195.12 171.903 195.386 172.193C195.658 172.489 196.025 172.74 196.487 172.947C196.955 173.155 197.555 173.258 198.289 173.258C199.295 173.258 200.127 173.013 200.784 172.521C201.441 172.036 201.769 171.261 201.769 170.195V167.514H201.601C201.441 167.804 201.21 168.127 200.908 168.482C200.612 168.837 200.204 169.145 199.683 169.405C199.162 169.666 198.484 169.796 197.65 169.796C196.573 169.796 195.602 169.544 194.738 169.041C193.88 168.532 193.199 167.783 192.696 166.795C192.199 165.801 191.95 164.579 191.95 163.129C191.95 161.679 192.196 160.436 192.687 159.4C193.184 158.364 193.865 157.571 194.729 157.021C195.593 156.464 196.573 156.186 197.668 156.186C198.514 156.186 199.198 156.328 199.718 156.612C200.239 156.89 200.645 157.216 200.935 157.589C201.231 157.962 201.459 158.29 201.618 158.574H201.814V156.364H204.415V170.302C204.415 171.474 204.143 172.435 203.598 173.187C203.054 173.939 202.317 174.495 201.388 174.856C200.464 175.217 199.423 175.398 198.263 175.398ZM198.236 167.594C198.999 167.594 199.645 167.417 200.171 167.061C200.704 166.7 201.106 166.185 201.379 165.517C201.657 164.842 201.796 164.034 201.796 163.093C201.796 162.176 201.66 161.368 201.388 160.669C201.115 159.971 200.716 159.426 200.189 159.036C199.662 158.639 199.011 158.441 198.236 158.441C197.437 158.441 196.771 158.648 196.238 159.062C195.706 159.471 195.303 160.027 195.031 160.732C194.765 161.436 194.631 162.223 194.631 163.093C194.631 163.987 194.768 164.771 195.04 165.446C195.312 166.12 195.715 166.647 196.247 167.026C196.786 167.405 197.449 167.594 198.236 167.594Z" fill="url(#paint0_linear_99_1946)"/>
<defs>
<filter id="filter0_d_99_1946" x="0" y="0" width="293" height="331" filterUnits="userSpaceOnUse" color-interpolation-filters="sRGB">
<feFlood flood-opacity="0" result="BackgroundImageFix"/>
<feColorMatrix in="SourceAlpha" type="matrix" values="0 0 0 0 0 0 0 0 0 0 0 0 0 0 0 0 0 0 127 0" result="hardAlpha"/>
<feOffset dx="-2" dy="6"/>
<feGaussianBlur stdDeviation="2"/>
<feComposite in2="hardAlpha" operator="out"/>
<feColorMatrix type="matrix" values="0 0 0 0 0 0 0 0 0 0 0 0 0 0 0 0 0 0 0.25 0"/>
<feBlend mode="normal" in2="BackgroundImageFix" result="effect1_dropShadow_99_1946"/>
<feBlend mode="normal" in="SourceGraphic" in2="effect1_dropShadow_99_1946" result="shape"/>
</filter>
<linearGradient id="paint0_linear_99_1946" x1="146.5" y1="146" x2="146.5" y2="176" gradientUnits="userSpaceOnUse">
<stop stop-color="#DA210F"/>
<stop offset="1" stop-color="#F6A402"/>
</linearGradient>
</defs>
</svg>
