<svg width="41" height="41" viewBox="0 0 41 41" fill="none" xmlns="http://www.w3.org/2000/svg">
<circle cx="20.5" cy="20.5" r="20.5" fill="#F6A402"/>
<path d="M10.5 28.75C10.5 29.275 10.85 29.625 11.375 29.625H30.625C31.15 29.625 31.5 29.275 31.5 28.75C31.5 28.225 31.15 27.875 30.625 27.875H11.375C10.85 27.875 10.5 28.225 10.5 28.75Z" fill="white"/>
<path d="M32.375 30.5H9.625C9.1 30.5 8.75 30.85 8.75 31.375C8.75 31.9 9.1 32.25 9.625 32.25H32.375C32.9 32.25 33.25 31.9 33.25 31.375C33.25 30.85 32.9 30.5 32.375 30.5Z" fill="white"/>
<path d="M10.5 16.5H31.5C31.85 16.5 32.2 16.2375 32.375 15.8875C32.55 15.5375 32.375 15.1 32.025 14.925L21.525 7.92495C21.2625 7.74995 20.825 7.74995 20.5625 7.92495L10.0625 14.925C9.71247 15.1 9.62497 15.5375 9.71247 15.8875C9.79997 16.2375 10.15 16.5 10.5 16.5Z" fill="white"/>
<path d="M21.875 26.125V18.25C21.875 17.725 21.525 17.375 21 17.375C20.475 17.375 20.125 17.725 20.125 18.25V26.125C20.125 26.65 20.475 27 21 27C21.525 27 21.875 26.65 21.875 26.125Z" fill="white"/>
<path d="M18.375 26.125V18.25C18.375 17.725 18.025 17.375 17.5 17.375C16.975 17.375 16.625 17.725 16.625 18.25V26.125C16.625 26.65 16.975 27 17.5 27C18.025 27 18.375 26.65 18.375 26.125Z" fill="white"/>
<path d="M14.875 26.125V18.25C14.875 17.725 14.525 17.375 14 17.375C13.475 17.375 13.125 17.725 13.125 18.25V26.125C13.125 26.65 13.475 27 14 27C14.525 27 14.875 26.65 14.875 26.125Z" fill="white"/>
<path d="M28.875 26.125V18.25C28.875 17.725 28.525 17.375 28 17.375C27.475 17.375 27.125 17.725 27.125 18.25V26.125C27.125 26.65 27.475 27 28 27C28.525 27 28.875 26.65 28.875 26.125Z" fill="white"/>
<path d="M25.375 26.125V18.25C25.375 17.725 25.025 17.375 24.5 17.375C23.975 17.375 23.625 17.725 23.625 18.25V26.125C23.625 26.65 23.975 27 24.5 27C25.025 27 25.375 26.65 25.375 26.125Z" fill="white"/>
</svg>
