<svg width="293" height="329" viewBox="0 0 293 329" fill="none" xmlns="http://www.w3.org/2000/svg">
<g filter="url(#filter0_d_99_1948)">
<rect x="4" width="285" height="321" rx="15" fill="#11111D"/>
</g>
<path d="M95.7912 160.909C95.7912 162.85 95.4361 164.519 94.7259 165.916C94.0156 167.307 93.042 168.378 91.805 169.13C90.574 169.876 89.1742 170.249 87.6058 170.249C86.0315 170.249 84.6258 169.876 83.3888 169.13C82.1578 168.378 81.1871 167.304 80.4769 165.907C79.7667 164.511 79.4116 162.844 79.4116 160.909C79.4116 158.968 79.7667 157.302 80.4769 155.911C81.1871 154.514 82.1578 153.443 83.3888 152.697C84.6258 151.945 86.0315 151.57 87.6058 151.57C89.1742 151.57 90.574 151.945 91.805 152.697C93.042 153.443 94.0156 154.514 94.7259 155.911C95.4361 157.302 95.7912 158.968 95.7912 160.909ZM93.0746 160.909C93.0746 159.429 92.8349 158.184 92.3555 157.172C91.882 156.154 91.2309 155.384 90.4023 154.863C89.5797 154.337 88.6475 154.073 87.6058 154.073C86.5582 154.073 85.6231 154.337 84.8004 154.863C83.9777 155.384 83.3267 156.154 82.8473 157.172C82.3738 158.184 82.1371 159.429 82.1371 160.909C82.1371 162.389 82.3738 163.638 82.8473 164.656C83.3267 165.668 83.9777 166.437 84.8004 166.964C85.6231 167.485 86.5582 167.745 87.6058 167.745C88.6475 167.745 89.5797 167.485 90.4023 166.964C91.2309 166.437 91.882 165.668 92.3555 164.656C92.8349 163.638 93.0746 162.389 93.0746 160.909ZM98.9983 170V156.364H101.564V158.53H101.706C101.955 157.796 102.393 157.219 103.02 156.799C103.653 156.373 104.369 156.159 105.168 156.159C105.334 156.159 105.529 156.165 105.754 156.177C105.985 156.189 106.166 156.204 106.296 156.222V158.761C106.189 158.731 106 158.699 105.728 158.663C105.455 158.622 105.183 158.601 104.911 158.601C104.284 158.601 103.724 158.734 103.233 159C102.748 159.261 102.363 159.625 102.079 160.092C101.795 160.554 101.653 161.081 101.653 161.673V170H98.9983ZM113.822 175.398C112.739 175.398 111.807 175.256 111.026 174.972C110.25 174.688 109.617 174.312 109.126 173.844C108.634 173.377 108.268 172.865 108.025 172.308L110.306 171.367C110.466 171.628 110.679 171.903 110.946 172.193C111.218 172.489 111.585 172.74 112.047 172.947C112.514 173.155 113.115 173.258 113.849 173.258C114.855 173.258 115.686 173.013 116.343 172.521C117 172.036 117.329 171.261 117.329 170.195V167.514H117.16C117 167.804 116.77 168.127 116.468 168.482C116.172 168.837 115.763 169.145 115.243 169.405C114.722 169.666 114.044 169.796 113.21 169.796C112.132 169.796 111.162 169.544 110.298 169.041C109.439 168.532 108.759 167.783 108.256 166.795C107.759 165.801 107.51 164.579 107.51 163.129C107.51 161.679 107.756 160.436 108.247 159.4C108.744 158.364 109.425 157.571 110.289 157.021C111.153 156.464 112.132 156.186 113.227 156.186C114.074 156.186 114.757 156.328 115.278 156.612C115.799 156.89 116.204 157.216 116.494 157.589C116.79 157.962 117.018 158.29 117.178 158.574H117.373V156.364H119.974V170.302C119.974 171.474 119.702 172.435 119.158 173.187C118.613 173.939 117.876 174.495 116.947 174.856C116.024 175.217 114.982 175.398 113.822 175.398ZM113.795 167.594C114.559 167.594 115.204 167.417 115.731 167.061C116.263 166.7 116.666 166.185 116.938 165.517C117.216 164.842 117.355 164.034 117.355 163.093C117.355 162.176 117.219 161.368 116.947 160.669C116.675 159.971 116.275 159.426 115.749 159.036C115.222 158.639 114.571 158.441 113.795 158.441C112.996 158.441 112.331 158.648 111.798 159.062C111.265 159.471 110.863 160.027 110.591 160.732C110.324 161.436 110.191 162.223 110.191 163.093C110.191 163.987 110.327 164.771 110.599 165.446C110.872 166.12 111.274 166.647 111.807 167.026C112.345 167.405 113.008 167.594 113.795 167.594ZM127.503 170.302C126.639 170.302 125.857 170.142 125.159 169.822C124.461 169.497 123.907 169.026 123.499 168.411C123.096 167.795 122.895 167.041 122.895 166.147C122.895 165.378 123.043 164.744 123.339 164.247C123.635 163.75 124.035 163.356 124.538 163.066C125.041 162.776 125.603 162.557 126.224 162.409C126.846 162.261 127.479 162.149 128.124 162.072C128.941 161.977 129.604 161.9 130.113 161.841C130.622 161.776 130.992 161.673 131.223 161.531C131.453 161.388 131.569 161.158 131.569 160.838V160.776C131.569 160.001 131.35 159.4 130.912 158.974C130.48 158.548 129.835 158.335 128.977 158.335C128.083 158.335 127.379 158.533 126.864 158.929C126.355 159.32 126.002 159.755 125.807 160.234L123.312 159.666C123.608 158.838 124.04 158.169 124.609 157.66C125.183 157.145 125.843 156.772 126.588 156.541C127.334 156.304 128.118 156.186 128.941 156.186C129.486 156.186 130.063 156.251 130.672 156.381C131.288 156.506 131.862 156.737 132.395 157.074C132.933 157.411 133.374 157.894 133.717 158.521C134.061 159.142 134.232 159.95 134.232 160.945V170H131.64V168.136H131.533C131.362 168.479 131.104 168.816 130.761 169.148C130.418 169.479 129.977 169.754 129.438 169.973C128.9 170.192 128.254 170.302 127.503 170.302ZM128.08 168.171C128.814 168.171 129.441 168.026 129.962 167.736C130.489 167.446 130.888 167.067 131.161 166.6C131.439 166.126 131.578 165.62 131.578 165.082V163.324C131.483 163.419 131.3 163.507 131.027 163.59C130.761 163.667 130.456 163.735 130.113 163.794C129.77 163.848 129.435 163.898 129.11 163.945C128.784 163.987 128.512 164.022 128.293 164.052C127.778 164.117 127.308 164.226 126.881 164.38C126.461 164.534 126.124 164.756 125.869 165.046C125.621 165.33 125.496 165.709 125.496 166.183C125.496 166.839 125.739 167.337 126.224 167.674C126.71 168.005 127.328 168.171 128.08 168.171ZM140.422 161.903V170H137.768V156.364H140.316V158.583H140.484C140.798 157.861 141.289 157.281 141.958 156.843C142.633 156.405 143.482 156.186 144.506 156.186C145.435 156.186 146.249 156.381 146.948 156.772C147.646 157.157 148.187 157.731 148.572 158.494C148.957 159.258 149.149 160.202 149.149 161.326V170H146.495V161.646C146.495 160.658 146.237 159.885 145.722 159.329C145.207 158.767 144.5 158.485 143.601 158.485C142.985 158.485 142.438 158.619 141.958 158.885C141.485 159.151 141.109 159.542 140.831 160.057C140.558 160.566 140.422 161.181 140.422 161.903ZM152.709 170V156.364H155.364V170H152.709ZM154.05 154.26C153.588 154.26 153.192 154.106 152.86 153.798C152.535 153.484 152.372 153.111 152.372 152.679C152.372 152.241 152.535 151.868 152.86 151.561C153.192 151.247 153.588 151.09 154.05 151.09C154.511 151.09 154.905 151.247 155.231 151.561C155.562 151.868 155.728 152.241 155.728 152.679C155.728 153.111 155.562 153.484 155.231 153.798C154.905 154.106 154.511 154.26 154.05 154.26ZM169.153 159.693L166.747 160.119C166.647 159.811 166.487 159.518 166.268 159.24C166.055 158.962 165.765 158.734 165.398 158.556C165.031 158.379 164.572 158.29 164.022 158.29C163.27 158.29 162.643 158.459 162.14 158.796C161.637 159.128 161.385 159.557 161.385 160.083C161.385 160.539 161.554 160.906 161.891 161.184C162.229 161.462 162.773 161.69 163.525 161.868L165.691 162.365C166.946 162.655 167.881 163.102 168.496 163.706C169.112 164.309 169.42 165.094 169.42 166.058C169.42 166.875 169.183 167.603 168.709 168.242C168.242 168.875 167.588 169.373 166.747 169.734C165.913 170.095 164.945 170.275 163.844 170.275C162.317 170.275 161.071 169.95 160.107 169.299C159.142 168.642 158.55 167.71 158.331 166.502L160.897 166.112C161.057 166.78 161.385 167.286 161.882 167.63C162.379 167.967 163.028 168.136 163.827 168.136C164.697 168.136 165.392 167.955 165.913 167.594C166.434 167.227 166.694 166.78 166.694 166.254C166.694 165.827 166.534 165.469 166.215 165.179C165.901 164.889 165.419 164.67 164.768 164.522L162.459 164.016C161.187 163.726 160.246 163.265 159.636 162.631C159.032 161.998 158.731 161.196 158.731 160.225C158.731 159.421 158.956 158.716 159.405 158.113C159.855 157.509 160.477 157.038 161.27 156.701C162.063 156.358 162.971 156.186 163.995 156.186C165.469 156.186 166.629 156.506 167.475 157.145C168.322 157.778 168.881 158.627 169.153 159.693ZM176.307 170.302C175.442 170.302 174.661 170.142 173.963 169.822C173.264 169.497 172.711 169.026 172.303 168.411C171.9 167.795 171.699 167.041 171.699 166.147C171.699 165.378 171.847 164.744 172.143 164.247C172.439 163.75 172.838 163.356 173.341 163.066C173.844 162.776 174.407 162.557 175.028 162.409C175.65 162.261 176.283 162.149 176.928 162.072C177.745 161.977 178.408 161.9 178.917 161.841C179.426 161.776 179.796 161.673 180.026 161.531C180.257 161.388 180.373 161.158 180.373 160.838V160.776C180.373 160.001 180.154 159.4 179.716 158.974C179.284 158.548 178.638 158.335 177.78 158.335C176.887 158.335 176.182 158.533 175.667 158.929C175.158 159.32 174.806 159.755 174.611 160.234L172.116 159.666C172.412 158.838 172.844 158.169 173.412 157.66C173.986 157.145 174.646 156.772 175.392 156.541C176.138 156.304 176.922 156.186 177.745 156.186C178.289 156.186 178.866 156.251 179.476 156.381C180.091 156.506 180.666 156.737 181.198 157.074C181.737 157.411 182.178 157.894 182.521 158.521C182.864 159.142 183.036 159.95 183.036 160.945V170H180.444V168.136H180.337C180.165 168.479 179.908 168.816 179.565 169.148C179.221 169.479 178.781 169.754 178.242 169.973C177.703 170.192 177.058 170.302 176.307 170.302ZM176.884 168.171C177.618 168.171 178.245 168.026 178.766 167.736C179.292 167.446 179.692 167.067 179.964 166.6C180.242 166.126 180.381 165.62 180.381 165.082V163.324C180.287 163.419 180.103 163.507 179.831 163.59C179.565 163.667 179.26 163.735 178.917 163.794C178.573 163.848 178.239 163.898 177.913 163.945C177.588 163.987 177.316 164.022 177.097 164.052C176.582 164.117 176.111 164.226 175.685 164.38C175.265 164.534 174.928 164.756 174.673 165.046C174.424 165.33 174.3 165.709 174.3 166.183C174.3 166.839 174.543 167.337 175.028 167.674C175.513 168.005 176.132 168.171 176.884 168.171ZM192.937 156.364V158.494H185.488V156.364H192.937ZM187.486 153.097H190.14V165.996C190.14 166.511 190.217 166.899 190.371 167.159C190.525 167.414 190.723 167.588 190.966 167.683C191.215 167.772 191.484 167.816 191.774 167.816C191.987 167.816 192.173 167.801 192.333 167.772C192.493 167.742 192.617 167.718 192.706 167.701L193.186 169.893C193.032 169.953 192.813 170.012 192.529 170.071C192.244 170.136 191.889 170.172 191.463 170.178C190.765 170.189 190.114 170.065 189.51 169.805C188.906 169.544 188.418 169.142 188.045 168.597C187.672 168.053 187.486 167.369 187.486 166.547V153.097ZM195.873 170V156.364H198.528V170H195.873ZM197.214 154.26C196.752 154.26 196.356 154.106 196.024 153.798C195.699 153.484 195.536 153.111 195.536 152.679C195.536 152.241 195.699 151.868 196.024 151.561C196.356 151.247 196.752 151.09 197.214 151.09C197.676 151.09 198.069 151.247 198.395 151.561C198.726 151.868 198.892 152.241 198.892 152.679C198.892 153.111 198.726 153.484 198.395 153.798C198.069 154.106 197.676 154.26 197.214 154.26ZM207.843 170.275C206.564 170.275 205.449 169.982 204.496 169.396C203.543 168.81 202.803 167.991 202.276 166.937C201.75 165.884 201.486 164.653 201.486 163.244C201.486 161.829 201.75 160.592 202.276 159.533C202.803 158.474 203.543 157.651 204.496 157.065C205.449 156.479 206.564 156.186 207.843 156.186C209.121 156.186 210.237 156.479 211.19 157.065C212.143 157.651 212.883 158.474 213.409 159.533C213.936 160.592 214.199 161.829 214.199 163.244C214.199 164.653 213.936 165.884 213.409 166.937C212.883 167.991 212.143 168.81 211.19 169.396C210.237 169.982 209.121 170.275 207.843 170.275ZM207.852 168.047C208.68 168.047 209.367 167.828 209.911 167.39C210.456 166.952 210.858 166.369 211.119 165.641C211.385 164.913 211.518 164.111 211.518 163.235C211.518 162.365 211.385 161.566 211.119 160.838C210.858 160.104 210.456 159.515 209.911 159.071C209.367 158.627 208.68 158.406 207.852 158.406C207.017 158.406 206.325 158.627 205.774 159.071C205.23 159.515 204.824 160.104 204.558 160.838C204.298 161.566 204.167 162.365 204.167 163.235C204.167 164.111 204.298 164.913 204.558 165.641C204.824 166.369 205.23 166.952 205.774 167.39C206.325 167.828 207.017 168.047 207.852 168.047ZM219.817 161.903V170H217.162V156.364H219.71V158.583H219.879C220.193 157.861 220.684 157.281 221.353 156.843C222.027 156.405 222.877 156.186 223.901 156.186C224.83 156.186 225.644 156.381 226.342 156.772C227.04 157.157 227.582 157.731 227.967 158.494C228.351 159.258 228.544 160.202 228.544 161.326V170H225.889V161.646C225.889 160.658 225.632 159.885 225.117 159.329C224.602 158.767 223.895 158.485 222.995 158.485C222.38 158.485 221.832 158.619 221.353 158.885C220.879 159.151 220.503 159.542 220.225 160.057C219.953 160.566 219.817 161.181 219.817 161.903Z" fill="url(#paint0_linear_99_1948)"/>
<defs>
<filter id="filter0_d_99_1948" x="0" y="0" width="293" height="329" filterUnits="userSpaceOnUse" color-interpolation-filters="sRGB">
<feFlood flood-opacity="0" result="BackgroundImageFix"/>
<feColorMatrix in="SourceAlpha" type="matrix" values="0 0 0 0 0 0 0 0 0 0 0 0 0 0 0 0 0 0 127 0" result="hardAlpha"/>
<feOffset dy="4"/>
<feGaussianBlur stdDeviation="2"/>
<feComposite in2="hardAlpha" operator="out"/>
<feColorMatrix type="matrix" values="0 0 0 0 0 0 0 0 0 0 0 0 0 0 0 0 0 0 0.25 0"/>
<feBlend mode="normal" in2="BackgroundImageFix" result="effect1_dropShadow_99_1948"/>
<feBlend mode="normal" in="SourceGraphic" in2="effect1_dropShadow_99_1948" result="shape"/>
</filter>
<linearGradient id="paint0_linear_99_1948" x1="154.5" y1="146" x2="154.5" y2="176" gradientUnits="userSpaceOnUse">
<stop stop-color="#DA210F"/>
<stop offset="1" stop-color="#F6A402"/>
</linearGradient>
</defs>
</svg>
